Fatemi-Maqala-Regular.ufo
<glyph name="numbersign" format="2">
  <advance width="960"/>
  <unicode hex="0023"/>
  <outline>
    <contour>
      <point x="584" y="454" type="line"/>
      <point x="629" y="738" type="line"/>
      <point x="374" y="738" type="line"/>
      <point x="328" y="454" type="line"/>
    </contour>
    <contour>
      <point x="651" y="454" type="line"/>
      <point x="785" y="454" type="line" smooth="yes"/>
      <point x="794" y="454"/>
      <point x="799" y="447"/>
      <point x="800" y="432" type="curve" smooth="yes"/>
      <point x="801" y="417"/>
      <point x="798" y="402"/>
      <point x="792" y="386" type="curve" smooth="yes"/>
      <point x="786" y="370"/>
      <point x="779" y="360"/>
      <point x="771" y="356" type="curve"/>
      <point x="635" y="356" type="line"/>
      <point x="603" y="154" type="line" smooth="yes"/>
      <point x="602" y="149"/>
      <point x="597" y="143"/>
      <point x="588" y="137" type="curve" smooth="yes"/>
      <point x="579" y="131"/>
      <point x="568" y="128"/>
      <point x="555" y="128" type="curve" smooth="yes"/>
      <point x="549" y="128"/>
      <point x="544" y="129"/>
      <point x="540" y="130" type="curve" smooth="yes"/>
      <point x="536" y="131"/>
      <point x="535" y="133"/>
      <point x="534" y="134" type="curve" smooth="yes"/>
      <point x="533" y="136" type="line"/>
      <point x="568" y="356" type="line"/>
      <point x="312" y="356" type="line"/>
      <point x="279" y="154" type="line" smooth="yes"/>
      <point x="278" y="149"/>
      <point x="273" y="143"/>
      <point x="265" y="137" type="curve" smooth="yes"/>
      <point x="257" y="131"/>
      <point x="246" y="128"/>
      <point x="233" y="128" type="curve" smooth="yes"/>
      <point x="227" y="128"/>
      <point x="222" y="129"/>
      <point x="218" y="130" type="curve" smooth="yes"/>
      <point x="214" y="131"/>
      <point x="213" y="133"/>
      <point x="212" y="134" type="curve" smooth="yes"/>
      <point x="211" y="136" type="line"/>
      <point x="246" y="356" type="line"/>
      <point x="113" y="356" type="line" smooth="yes"/>
      <point x="106" y="358"/>
      <point x="102" y="366"/>
      <point x="102" y="380" type="curve" smooth="yes"/>
      <point x="102" y="394"/>
      <point x="104" y="408"/>
      <point x="111" y="425" type="curve" smooth="yes"/>
      <point x="118" y="442"/>
      <point x="125" y="451"/>
      <point x="133" y="454" type="curve" smooth="yes"/>
      <point x="262" y="454" type="line"/>
      <point x="307" y="738" type="line"/>
      <point x="169" y="738" type="line" smooth="yes"/>
      <point x="162" y="738"/>
      <point x="158" y="746"/>
      <point x="158" y="761" type="curve" smooth="yes"/>
      <point x="158" y="776"/>
      <point x="160" y="792"/>
      <point x="166" y="808" type="curve" smooth="yes"/>
      <point x="172" y="824"/>
      <point x="179" y="833"/>
      <point x="187" y="836" type="curve" smooth="yes"/>
      <point x="323" y="836" type="line"/>
      <point x="355" y="1036" type="line" smooth="yes"/>
      <point x="357" y="1043"/>
      <point x="358" y="1047"/>
      <point x="359" y="1048" type="curve" smooth="yes"/>
      <point x="360" y="1049"/>
      <point x="361" y="1052"/>
      <point x="364" y="1055" type="curve" smooth="yes"/>
      <point x="367" y="1058"/>
      <point x="372" y="1060"/>
      <point x="377" y="1061" type="curve" smooth="yes"/>
      <point x="382" y="1062"/>
      <point x="390" y="1062"/>
      <point x="399" y="1062" type="curve" smooth="yes"/>
      <point x="410" y="1062"/>
      <point x="419" y="1060"/>
      <point x="425" y="1056" type="curve"/>
      <point x="389" y="836" type="line"/>
      <point x="645" y="836" type="line"/>
      <point x="677" y="1036" type="line" smooth="yes"/>
      <point x="679" y="1043"/>
      <point x="680" y="1047"/>
      <point x="681" y="1048" type="curve" smooth="yes"/>
      <point x="682" y="1049"/>
      <point x="683" y="1052"/>
      <point x="686" y="1055" type="curve" smooth="yes"/>
      <point x="689" y="1058"/>
      <point x="694" y="1060"/>
      <point x="699" y="1061" type="curve" smooth="yes"/>
      <point x="704" y="1062"/>
      <point x="712" y="1062"/>
      <point x="721" y="1062" type="curve" smooth="yes"/>
      <point x="732" y="1062"/>
      <point x="741" y="1060"/>
      <point x="747" y="1056" type="curve"/>
      <point x="712" y="836" type="line"/>
      <point x="839" y="836" type="line" smooth="yes"/>
      <point x="848" y="836"/>
      <point x="853" y="829"/>
      <point x="854" y="814" type="curve" smooth="yes"/>
      <point x="855" y="799"/>
      <point x="854" y="784"/>
      <point x="848" y="768" type="curve" smooth="yes"/>
      <point x="842" y="752"/>
      <point x="835" y="742"/>
      <point x="827" y="738" type="curve"/>
      <point x="696" y="738" type="line"/>
    </contour>
  </outline>
</glyph>
<glyph name="dollar" format="2">
  <advance width="996"/>
  <unicode hex="0024"/>
  <outline>
    <contour>
      <point x="482" y="751" type="curve"/>
      <point x="557" y="1205" type="line"/>
      <point x="540" y="1210"/>
      <point x="522" y="1212"/>
      <point x="502" y="1212" type="curve" smooth="yes"/>
      <point x="462" y="1212"/>
      <point x="428" y="1205"/>
      <point x="399" y="1192" type="curve" smooth="yes"/>
      <point x="370" y="1179"/>
      <point x="349" y="1162"/>
      <point x="334" y="1140" type="curve" smooth="yes"/>
      <point x="319" y="1118"/>
      <point x="308" y="1095"/>
      <point x="302" y="1072" type="curve" smooth="yes"/>
      <point x="296" y="1049"/>
      <point x="292" y="1025"/>
      <point x="292" y="1000" type="curve" smooth="yes"/>
      <point x="292" y="971"/>
      <point x="296" y="944"/>
      <point x="306" y="920" type="curve" smooth="yes"/>
      <point x="316" y="896"/>
      <point x="331" y="873"/>
      <point x="351" y="852" type="curve" smooth="yes"/>
      <point x="371" y="831"/>
      <point x="390" y="814"/>
      <point x="409" y="800" type="curve" smooth="yes"/>
      <point x="428" y="786"/>
      <point x="452" y="770"/>
    </contour>
    <contour>
      <point x="519" y="530" type="line"/>
      <point x="440" y="52" type="line"/>
      <point x="456" y="49"/>
      <point x="475" y="48"/>
      <point x="498" y="48" type="curve" smooth="yes"/>
      <point x="561" y="48"/>
      <point x="615" y="69"/>
      <point x="660" y="110" type="curve" smooth="yes"/>
      <point x="705" y="151"/>
      <point x="728" y="208"/>
      <point x="728" y="280" type="curve" smooth="yes"/>
      <point x="728" y="295"/>
      <point x="727" y="310"/>
      <point x="724" y="324" type="curve" smooth="yes"/>
      <point x="721" y="338"/>
      <point x="719" y="350"/>
      <point x="716" y="361" type="curve" smooth="yes"/>
      <point x="713" y="372"/>
      <point x="707" y="382"/>
      <point x="698" y="394" type="curve" smooth="yes"/>
      <point x="689" y="406"/>
      <point x="682" y="415"/>
      <point x="678" y="422" type="curve" smooth="yes"/>
      <point x="674" y="429"/>
      <point x="665" y="438"/>
      <point x="652" y="448" type="curve" smooth="yes"/>
      <point x="639" y="458"/>
      <point x="629" y="465"/>
      <point x="624" y="469" type="curve" smooth="yes"/>
      <point x="619" y="473"/>
      <point x="607" y="480"/>
      <point x="590" y="490" type="curve" smooth="yes"/>
      <point x="573" y="500"/>
      <point x="561" y="507"/>
      <point x="556" y="510" type="curve" smooth="yes"/>
    </contour>
    <contour>
      <point x="584" y="1366" type="line"/>
      <point x="631" y="1366"/>
      <point x="654" y="1361"/>
      <point x="654" y="1352" type="curve" smooth="yes"/>
      <point x="640" y="1265" type="line"/>
      <point x="655" y="1262"/>
      <point x="680" y="1255"/>
      <point x="715" y="1246" type="curve" smooth="yes"/>
      <point x="750" y="1237"/>
      <point x="779" y="1229"/>
      <point x="804" y="1224" type="curve"/>
      <point x="809" y="1201"/>
      <point x="814" y="1174"/>
      <point x="818" y="1144" type="curve" smooth="yes"/>
      <point x="822" y="1114"/>
      <point x="823" y="1090"/>
      <point x="824" y="1072" type="curve" smooth="yes"/>
      <point x="825" y="1054"/>
      <point x="826" y="1030"/>
      <point x="827" y="1000" type="curve" smooth="yes"/>
      <point x="828" y="970"/>
      <point x="828" y="954"/>
      <point x="828" y="952" type="curve" smooth="yes"/>
      <point x="819" y="947"/>
      <point x="807" y="944"/>
      <point x="792" y="944" type="curve" smooth="yes"/>
      <point x="780" y="944"/>
      <point x="771" y="947"/>
      <point x="764" y="954" type="curve"/>
      <point x="759" y="991"/>
      <point x="745" y="1030"/>
      <point x="720" y="1072" type="curve" smooth="yes"/>
      <point x="695" y="1114"/>
      <point x="663" y="1149"/>
      <point x="625" y="1174" type="curve"/>
      <point x="548" y="711" type="line" smooth="yes"/>
      <point x="549" y="710"/>
      <point x="552" y="709"/>
      <point x="555" y="707" type="curve" smooth="yes"/>
      <point x="558" y="705"/>
      <point x="561" y="703"/>
      <point x="562" y="702" type="curve" smooth="yes"/>
      <point x="572" y="695"/>
      <point x="589" y="685"/>
      <point x="612" y="671" type="curve" smooth="yes"/>
      <point x="635" y="657"/>
      <point x="654" y="646"/>
      <point x="668" y="637" type="curve" smooth="yes"/>
      <point x="682" y="628"/>
      <point x="700" y="616"/>
      <point x="722" y="600" type="curve" smooth="yes"/>
      <point x="744" y="584"/>
      <point x="763" y="571"/>
      <point x="777" y="558" type="curve" smooth="yes"/>
      <point x="791" y="545"/>
      <point x="806" y="530"/>
      <point x="823" y="512" type="curve" smooth="yes"/>
      <point x="840" y="494"/>
      <point x="853" y="475"/>
      <point x="862" y="458" type="curve" smooth="yes"/>
      <point x="871" y="441"/>
      <point x="879" y="422"/>
      <point x="886" y="400" type="curve" smooth="yes"/>
      <point x="893" y="378"/>
      <point x="896" y="355"/>
      <point x="896" y="332" type="curve" smooth="yes"/>
      <point x="896" y="264"/>
      <point x="877" y="203"/>
      <point x="838" y="148" type="curve" smooth="yes"/>
      <point x="799" y="93"/>
      <point x="750" y="52"/>
      <point x="689" y="23" type="curve" smooth="yes"/>
      <point x="628" y="-6"/>
      <point x="563" y="-20"/>
      <point x="494" y="-20" type="curve" smooth="yes"/>
      <point x="472" y="-20"/>
      <point x="450" y="-19"/>
      <point x="428" y="-17" type="curve"/>
      <point x="414" y="-104" type="line"/>
      <point x="400" y="-104"/>
      <point x="384" y="-103"/>
      <point x="368" y="-100" type="curve" smooth="yes"/>
      <point x="352" y="-97"/>
      <point x="344" y="-92"/>
      <point x="344" y="-86" type="curve" smooth="yes"/>
      <point x="357" y="-8" type="line"/>
      <point x="344" y="-6"/>
      <point x="274" y="9"/>
      <point x="148" y="36" type="curve"/>
      <point x="137" y="88"/>
      <point x="127" y="146"/>
      <point x="117" y="212" type="curve" smooth="yes"/>
      <point x="107" y="278"/>
      <point x="102" y="317"/>
      <point x="102" y="330" type="curve"/>
      <point x="106" y="334"/>
      <point x="113" y="338"/>
      <point x="124" y="341" type="curve" smooth="yes"/>
      <point x="135" y="344"/>
      <point x="145" y="346"/>
      <point x="152" y="346" type="curve" smooth="yes"/>
      <point x="163" y="346"/>
      <point x="171" y="343"/>
      <point x="174" y="336" type="curve" smooth="yes"/>
      <point x="178" y="318"/>
      <point x="184" y="300"/>
      <point x="190" y="282" type="curve" smooth="yes"/>
      <point x="196" y="264"/>
      <point x="206" y="239"/>
      <point x="220" y="210" type="curve" smooth="yes"/>
      <point x="234" y="181"/>
      <point x="254" y="155"/>
      <point x="280" y="130" type="curve" smooth="yes"/>
      <point x="306" y="105"/>
      <point x="336" y="86"/>
      <point x="370" y="72" type="curve"/>
      <point x="452" y="568" type="line"/>
      <point x="421" y="586"/>
      <point x="397" y="600"/>
      <point x="378" y="612" type="curve" smooth="yes"/>
      <point x="359" y="624"/>
      <point x="336" y="640"/>
      <point x="308" y="660" type="curve" smooth="yes"/>
      <point x="280" y="680"/>
      <point x="257" y="699"/>
      <point x="240" y="717" type="curve" smooth="yes"/>
      <point x="223" y="735"/>
      <point x="205" y="756"/>
      <point x="188" y="779" type="curve" smooth="yes"/>
      <point x="171" y="802"/>
      <point x="158" y="827"/>
      <point x="150" y="854" type="curve" smooth="yes"/>
      <point x="142" y="881"/>
      <point x="138" y="910"/>
      <point x="138" y="940" type="curve" smooth="yes"/>
      <point x="138" y="1005"/>
      <point x="156" y="1064"/>
      <point x="192" y="1117" type="curve" smooth="yes"/>
      <point x="228" y="1170"/>
      <point x="275" y="1210"/>
      <point x="332" y="1237" type="curve" smooth="yes"/>
      <point x="389" y="1264"/>
      <point x="449" y="1278"/>
      <point x="514" y="1278" type="curve" smooth="yes"/>
      <point x="528" y="1278"/>
      <point x="546" y="1277"/>
      <point x="569" y="1276" type="curve"/>
    </contour>
  </outline>
</glyph>
<glyph name="parenright" format="2">
  <advance width="524"/>
  <unicode hex="0029"/>
  <outline>
    <contour>
      <point x="450" y="570" type="curve" smooth="yes"/>
      <point x="450" y="383"/>
      <point x="414" y="216"/>
      <point x="342" y="68" type="curve" smooth="yes"/>
      <point x="270" y="-80"/>
      <point x="173" y="-203"/>
      <point x="50" y="-300" type="curve"/>
      <point x="46" y="-297"/>
      <point x="41" y="-293"/>
      <point x="34" y="-286" type="curve" smooth="yes"/>
      <point x="27" y="-279"/>
      <point x="23" y="-274"/>
      <point x="20" y="-270" type="curve" smooth="yes"/>
      <point x="16" y="-264"/>
      <point x="15" y="-264"/>
      <point x="12" y="-260" type="curve"/>
      <point x="103" y="-180"/>
      <point x="174" y="-63"/>
      <point x="226" y="92" type="curve" smooth="yes"/>
      <point x="278" y="247"/>
      <point x="304" y="406"/>
      <point x="304" y="570" type="curve" smooth="yes"/>
      <point x="304" y="734"/>
      <point x="278" y="892"/>
      <point x="226" y="1046" type="curve" smooth="yes"/>
      <point x="174" y="1200"/>
      <point x="103" y="1317"/>
      <point x="12" y="1398" type="curve" smooth="yes"/>
      <point x="13" y="1399"/>
      <point x="14" y="1402"/>
      <point x="18" y="1407" type="curve" smooth="yes"/>
      <point x="22" y="1412"/>
      <point x="27" y="1417"/>
      <point x="34" y="1424" type="curve" smooth="yes"/>
      <point x="41" y="1431"/>
      <point x="46" y="1435"/>
      <point x="50" y="1438" type="curve"/>
      <point x="173" y="1341"/>
      <point x="270" y="1219"/>
      <point x="342" y="1072" type="curve" smooth="yes"/>
      <point x="414" y="925"/>
      <point x="450" y="757"/>
    </contour>
  </outline>
</glyph>
<glyph name="comma" format="2">
  <advance width="402"/>
  <unicode hex="002C"/>
  <outline>
    <contour>
      <point x="212" y="246" type="curve" smooth="yes"/>
      <point x="231" y="246"/>
      <point x="248" y="241"/>
      <point x="264" y="232" type="curve"/>
      <point x="288" y="191"/>
      <point x="300" y="144"/>
      <point x="300" y="92" type="curve" smooth="yes"/>
      <point x="300" y="36"/>
      <point x="274" y="-33"/>
      <point x="221" y="-114" type="curve" smooth="yes"/>
      <point x="168" y="-195"/>
      <point x="116" y="-249"/>
      <point x="64" y="-278" type="curve" smooth="yes"/>
      <point x="57" y="-278"/>
      <point x="51" y="-273"/>
      <point x="44" y="-262" type="curve" smooth="yes"/>
      <point x="37" y="-251"/>
      <point x="34" y="-243"/>
      <point x="34" y="-236" type="curve"/>
      <point x="49" y="-225"/>
      <point x="62" y="-215"/>
      <point x="72" y="-206" type="curve" smooth="yes"/>
      <point x="82" y="-197"/>
      <point x="95" y="-183"/>
      <point x="111" y="-164" type="curve" smooth="yes"/>
      <point x="127" y="-145"/>
      <point x="140" y="-122"/>
      <point x="148" y="-97" type="curve" smooth="yes"/>
      <point x="156" y="-72"/>
      <point x="160" y="-44"/>
      <point x="160" y="-14" type="curve" smooth="yes"/>
      <point x="160" y="7"/>
      <point x="149" y="33"/>
      <point x="127" y="63" type="curve" smooth="yes"/>
      <point x="105" y="93"/>
      <point x="94" y="121"/>
      <point x="94" y="148" type="curve" smooth="yes"/>
      <point x="94" y="171"/>
      <point x="106" y="193"/>
      <point x="128" y="214" type="curve" smooth="yes"/>
      <point x="150" y="235"/>
      <point x="178" y="246"/>
    </contour>
  </outline>
</glyph>
<glyph name="period" format="2">
  <advance width="414"/>
  <unicode hex="002E"/>
  <outline>
    <contour>
      <point x="96" y="90" type="curve" smooth="yes"/>
      <point x="96" y="120"/>
      <point x="108" y="145"/>
      <point x="130" y="166" type="curve" smooth="yes"/>
      <point x="152" y="187"/>
      <point x="178" y="198"/>
      <point x="208" y="198" type="curve" smooth="yes"/>
      <point x="238" y="198"/>
      <point x="263" y="187"/>
      <point x="284" y="166" type="curve" smooth="yes"/>
      <point x="305" y="145"/>
      <point x="316" y="120"/>
      <point x="316" y="90" type="curve" smooth="yes"/>
      <point x="316" y="60"/>
      <point x="305" y="34"/>
      <point x="284" y="12" type="curve" smooth="yes"/>
      <point x="263" y="-10"/>
      <point x="238" y="-22"/>
      <point x="208" y="-22" type="curve" smooth="yes"/>
      <point x="178" y="-22"/>
      <point x="152" y="-10"/>
      <point x="130" y="12" type="curve" smooth="yes"/>
      <point x="108" y="34"/>
      <point x="96" y="60"/>
    </contour>
  </outline>
</glyph>
<glyph name="slash" format="2">
  <advance width="826"/>
  <unicode hex="002F"/>
  <outline>
    <contour>
      <point x="738" y="1522" type="curve" smooth="yes"/>
      <point x="751" y="1522"/>
      <point x="760" y="1516"/>
      <point x="764" y="1504" type="curve"/>
      <point x="174" y="-24" type="line" smooth="yes"/>
      <point x="170" y="-34"/>
      <point x="161" y="-44"/>
      <point x="147" y="-54" type="curve" smooth="yes"/>
      <point x="133" y="-64"/>
      <point x="116" y="-70"/>
      <point x="96" y="-70" type="curve" smooth="yes"/>
      <point x="87" y="-70"/>
      <point x="80" y="-68"/>
      <point x="74" y="-66" type="curve" smooth="yes"/>
      <point x="68" y="-64"/>
      <point x="64" y="-62"/>
      <point x="62" y="-60" type="curve" smooth="yes"/>
      <point x="60" y="-56" type="line"/>
      <point x="658" y="1492" type="line" smooth="yes"/>
      <point x="659" y="1495"/>
      <point x="662" y="1498"/>
      <point x="668" y="1502" type="curve" smooth="yes"/>
      <point x="674" y="1506"/>
      <point x="684" y="1512"/>
      <point x="697" y="1516" type="curve" smooth="yes"/>
      <point x="710" y="1520"/>
      <point x="723" y="1522"/>
    </contour>
  </outline>
</glyph>
<glyph name="zero" format="2">
  <advance width="1090"/>
  <unicode hex="0030"/>
  <outline>
    <contour>
      <point x="544" y="1282" type="curve" smooth="yes"/>
      <point x="634" y="1282"/>
      <point x="713" y="1252"/>
      <point x="780" y="1193" type="curve" smooth="yes"/>
      <point x="847" y="1134"/>
      <point x="897" y="1056"/>
      <point x="930" y="960" type="curve" smooth="yes"/>
      <point x="963" y="864"/>
      <point x="980" y="756"/>
      <point x="980" y="638" type="curve" smooth="yes"/>
      <point x="980" y="521"/>
      <point x="964" y="414"/>
      <point x="930" y="317" type="curve" smooth="yes"/>
      <point x="896" y="220"/>
      <point x="845" y="142"/>
      <point x="778" y="83" type="curve" smooth="yes"/>
      <point x="711" y="24"/>
      <point x="633" y="-6"/>
      <point x="544" y="-6" type="curve" smooth="yes"/>
      <point x="456" y="-6"/>
      <point x="379" y="24"/>
      <point x="312" y="83" type="curve" smooth="yes"/>
      <point x="245" y="142"/>
      <point x="194" y="220"/>
      <point x="160" y="317" type="curve" smooth="yes"/>
      <point x="126" y="414"/>
      <point x="108" y="521"/>
      <point x="108" y="638" type="curve" smooth="yes"/>
      <point x="108" y="755"/>
      <point x="124" y="862"/>
      <point x="158" y="959" type="curve" smooth="yes"/>
      <point x="192" y="1056"/>
      <point x="243" y="1134"/>
      <point x="310" y="1193" type="curve" smooth="yes"/>
      <point x="377" y="1252"/>
      <point x="455" y="1282"/>
    </contour>
    <contour>
      <point x="556" y="1208" type="curve" smooth="yes"/>
      <point x="501" y="1208"/>
      <point x="454" y="1182"/>
      <point x="412" y="1131" type="curve" smooth="yes"/>
      <point x="370" y="1080"/>
      <point x="338" y="1011"/>
      <point x="316" y="926" type="curve" smooth="yes"/>
      <point x="294" y="841"/>
      <point x="284" y="745"/>
      <point x="284" y="640" type="curve" smooth="yes"/>
      <point x="284" y="536"/>
      <point x="295" y="441"/>
      <point x="316" y="354" type="curve" smooth="yes"/>
      <point x="337" y="267"/>
      <point x="367" y="198"/>
      <point x="406" y="146" type="curve" smooth="yes"/>
      <point x="445" y="94"/>
      <point x="488" y="68"/>
      <point x="536" y="68" type="curve" smooth="yes"/>
      <point x="593" y="68"/>
      <point x="643" y="95"/>
      <point x="684" y="149" type="curve" smooth="yes"/>
      <point x="725" y="203"/>
      <point x="756" y="274"/>
      <point x="775" y="360" type="curve" smooth="yes"/>
      <point x="794" y="446"/>
      <point x="804" y="543"/>
      <point x="804" y="650" type="curve" smooth="yes"/>
      <point x="804" y="754"/>
      <point x="794" y="848"/>
      <point x="773" y="933" type="curve" smooth="yes"/>
      <point x="752" y="1018"/>
      <point x="723" y="1085"/>
      <point x="685" y="1134" type="curve" smooth="yes"/>
      <point x="647" y="1183"/>
      <point x="604" y="1208"/>
    </contour>
  </outline>
</glyph>
<glyph name="two" format="2">
  <advance width="1090"/>
  <unicode hex="0032"/>
  <outline>
    <contour>
      <point x="956" y="300" type="curve"/>
      <point x="927" y="229"/>
      <point x="891" y="129"/>
      <point x="848" y="0" type="curve"/>
      <point x="848" y="0"/>
      <point x="848" y="0"/>
      <point x="156" y="0" type="curve" smooth="yes"/>
      <point x="152" y="2"/>
      <point x="148" y="6"/>
      <point x="143" y="12" type="curve" smooth="yes"/>
      <point x="138" y="18"/>
      <point x="136" y="24"/>
      <point x="136" y="28" type="curve" smooth="yes"/>
      <point x="347" y="262"/>
      <point x="506" y="457"/>
      <point x="612" y="612" type="curve" smooth="yes"/>
      <point x="650" y="668"/>
      <point x="675" y="718"/>
      <point x="688" y="763" type="curve" smooth="yes"/>
      <point x="701" y="808"/>
      <point x="708" y="857"/>
      <point x="708" y="912" type="curve" smooth="yes"/>
      <point x="708" y="981"/>
      <point x="687" y="1039"/>
      <point x="646" y="1085" type="curve" smooth="yes"/>
      <point x="605" y="1131"/>
      <point x="552" y="1154"/>
      <point x="488" y="1154" type="curve" smooth="yes"/>
      <point x="451" y="1154"/>
      <point x="414" y="1148"/>
      <point x="380" y="1134" type="curve" smooth="yes"/>
      <point x="346" y="1120"/>
      <point x="317" y="1103"/>
      <point x="293" y="1082" type="curve" smooth="yes"/>
      <point x="269" y="1061"/>
      <point x="250" y="1042"/>
      <point x="236" y="1026" type="curve" smooth="yes"/>
      <point x="222" y="1010"/>
      <point x="210" y="995"/>
      <point x="202" y="982" type="curve"/>
      <point x="195" y="982"/>
      <point x="187" y="986"/>
      <point x="178" y="994" type="curve" smooth="yes"/>
      <point x="169" y="1002"/>
      <point x="164" y="1009"/>
      <point x="164" y="1014" type="curve" smooth="yes"/>
      <point x="168" y="1029"/>
      <point x="180" y="1051"/>
      <point x="199" y="1078" type="curve" smooth="yes"/>
      <point x="218" y="1105"/>
      <point x="244" y="1135"/>
      <point x="274" y="1167" type="curve" smooth="yes"/>
      <point x="304" y="1199"/>
      <point x="342" y="1227"/>
      <point x="389" y="1250" type="curve" smooth="yes"/>
      <point x="436" y="1273"/>
      <point x="483" y="1284"/>
      <point x="532" y="1284" type="curve" smooth="yes"/>
      <point x="626" y="1284"/>
      <point x="708" y="1250"/>
      <point x="776" y="1182" type="curve" smooth="yes"/>
      <point x="844" y="1114"/>
      <point x="878" y="1037"/>
      <point x="878" y="950" type="curve" smooth="yes"/>
      <point x="878" y="842"/>
      <point x="840" y="741"/>
      <point x="764" y="648" type="curve" smooth="yes"/>
      <point x="661" y="523"/>
      <point x="516" y="355"/>
      <point x="328" y="146" type="curve"/>
      <point x="724" y="146" type="line" smooth="yes"/>
      <point x="763" y="146"/>
      <point x="794" y="158"/>
      <point x="820" y="183" type="curve" smooth="yes"/>
      <point x="846" y="208"/>
      <point x="870" y="247"/>
      <point x="892" y="300" type="curve" smooth="yes"/>
      <point x="895" y="308"/>
      <point x="903" y="312"/>
      <point x="916" y="312" type="curve" smooth="yes"/>
      <point x="932" y="312"/>
      <point x="945" y="308"/>
    </contour>
  </outline>
</glyph>
<glyph name="four" format="2">
  <advance width="1090"/>
  <unicode hex="0034"/>
  <outline>
    <contour>
      <point x="684" y="1048" type="line"/>
      <point x="236" y="462" type="line"/>
      <point x="684" y="462" type="line"/>
    </contour>
    <contour>
      <point x="812" y="1288" type="curve" smooth="yes"/>
      <point x="821" y="1288"/>
      <point x="829" y="1284"/>
      <point x="834" y="1277" type="curve" smooth="yes"/>
      <point x="839" y="1270"/>
      <point x="842" y="1261"/>
      <point x="842" y="1252" type="curve" smooth="yes"/>
      <point x="842" y="462" type="line"/>
      <point x="960" y="462" type="line" smooth="yes"/>
      <point x="966" y="462"/>
      <point x="972" y="453"/>
      <point x="978" y="436" type="curve" smooth="yes"/>
      <point x="984" y="419"/>
      <point x="988" y="400"/>
      <point x="988" y="380" type="curve" smooth="yes"/>
      <point x="988" y="367"/>
      <point x="985" y="356"/>
      <point x="980" y="348" type="curve"/>
      <point x="842" y="348" type="line"/>
      <point x="842" y="-2" type="line"/>
      <point x="837" y="-9"/>
      <point x="808" y="-12"/>
      <point x="756" y="-12" type="curve" smooth="yes"/>
      <point x="708" y="-12"/>
      <point x="684" y="-7"/>
      <point x="684" y="4" type="curve" smooth="yes"/>
      <point x="684" y="348" type="line"/>
      <point x="120" y="348" type="line"/>
      <point x="107" y="355"/>
      <point x="100" y="368"/>
      <point x="100" y="386" type="curve"/>
      <point x="752" y="1238" type="line" smooth="yes"/>
      <point x="760" y="1249"/>
      <point x="770" y="1260"/>
      <point x="782" y="1271" type="curve" smooth="yes"/>
      <point x="794" y="1282"/>
      <point x="805" y="1288"/>
    </contour>
  </outline>
</glyph>
<glyph name="five" format="2">
  <advance width="1090"/>
  <unicode hex="0035"/>
  <outline>
    <contour>
      <point x="544" y="790" type="curve" smooth="yes"/>
      <point x="601" y="790"/>
      <point x="654" y="779"/>
      <point x="702" y="758" type="curve" smooth="yes"/>
      <point x="750" y="737"/>
      <point x="790" y="710"/>
      <point x="821" y="676" type="curve" smooth="yes"/>
      <point x="852" y="642"/>
      <point x="877" y="605"/>
      <point x="894" y="563" type="curve" smooth="yes"/>
      <point x="911" y="521"/>
      <point x="920" y="479"/>
      <point x="920" y="436" type="curve" smooth="yes"/>
      <point x="920" y="370"/>
      <point x="905" y="309"/>
      <point x="876" y="252" type="curve" smooth="yes"/>
      <point x="847" y="195"/>
      <point x="808" y="148"/>
      <point x="760" y="110" type="curve" smooth="yes"/>
      <point x="712" y="72"/>
      <point x="658" y="43"/>
      <point x="597" y="22" type="curve" smooth="yes"/>
      <point x="536" y="1"/>
      <point x="475" y="-10"/>
      <point x="412" y="-10" type="curve" smooth="yes"/>
      <point x="337" y="-10"/>
      <point x="269" y="5"/>
      <point x="208" y="36" type="curve" smooth="yes"/>
      <point x="200" y="41"/>
      <point x="191" y="52"/>
      <point x="182" y="68" type="curve" smooth="yes"/>
      <point x="173" y="84"/>
      <point x="168" y="98"/>
      <point x="168" y="112" type="curve" smooth="yes"/>
      <point x="168" y="140"/>
      <point x="176" y="163"/>
      <point x="193" y="181" type="curve" smooth="yes"/>
      <point x="210" y="199"/>
      <point x="229" y="208"/>
      <point x="252" y="208" type="curve" smooth="yes"/>
      <point x="269" y="208"/>
      <point x="283" y="204"/>
      <point x="296" y="195" type="curve" smooth="yes"/>
      <point x="309" y="186"/>
      <point x="322" y="172"/>
      <point x="336" y="154" type="curve" smooth="yes"/>
      <point x="350" y="136"/>
      <point x="359" y="125"/>
      <point x="364" y="120" type="curve" smooth="yes"/>
      <point x="397" y="87"/>
      <point x="447" y="70"/>
      <point x="512" y="70" type="curve" smooth="yes"/>
      <point x="540" y="70"/>
      <point x="567" y="75"/>
      <point x="594" y="86" type="curve" smooth="yes"/>
      <point x="621" y="97"/>
      <point x="646" y="115"/>
      <point x="670" y="138" type="curve" smooth="yes"/>
      <point x="694" y="161"/>
      <point x="712" y="192"/>
      <point x="726" y="234" type="curve" smooth="yes"/>
      <point x="740" y="276"/>
      <point x="748" y="325"/>
      <point x="748" y="380" type="curve" smooth="yes"/>
      <point x="748" y="406"/>
      <point x="745" y="432"/>
      <point x="738" y="459" type="curve" smooth="yes"/>
      <point x="731" y="486"/>
      <point x="719" y="512"/>
      <point x="702" y="538" type="curve" smooth="yes"/>
      <point x="685" y="564"/>
      <point x="665" y="588"/>
      <point x="641" y="609" type="curve" smooth="yes"/>
      <point x="617" y="630"/>
      <point x="587" y="646"/>
      <point x="550" y="659" type="curve" smooth="yes"/>
      <point x="513" y="672"/>
      <point x="473" y="678"/>
      <point x="428" y="678" type="curve" smooth="yes"/>
      <point x="405" y="678"/>
      <point x="375" y="674"/>
      <point x="338" y="668" type="curve" smooth="yes"/>
      <point x="301" y="662"/>
      <point x="275" y="655"/>
      <point x="260" y="648" type="curve" smooth="yes"/>
      <point x="256" y="648"/>
      <point x="252" y="651"/>
      <point x="249" y="657" type="curve" smooth="yes"/>
      <point x="246" y="663"/>
      <point x="244" y="669"/>
      <point x="244" y="676" type="curve" smooth="yes"/>
      <point x="316" y="1044"/>
      <point x="355" y="1242"/>
      <point x="360" y="1270" type="curve"/>
      <point x="656" y="1270" type="line" smooth="yes"/>
      <point x="680" y="1270"/>
      <point x="707" y="1271"/>
      <point x="738" y="1274" type="curve" smooth="yes"/>
      <point x="769" y="1277"/>
      <point x="793" y="1281"/>
      <point x="812" y="1284" type="curve" smooth="yes"/>
      <point x="840" y="1288" type="line" smooth="yes"/>
      <point x="842" y="1287"/>
      <point x="844" y="1284"/>
      <point x="848" y="1282" type="curve" smooth="yes"/>
      <point x="852" y="1280"/>
      <point x="854" y="1279"/>
      <point x="856" y="1278" type="curve" smooth="yes"/>
      <point x="858" y="1277"/>
      <point x="860" y="1275"/>
      <point x="862" y="1273" type="curve" smooth="yes"/>
      <point x="864" y="1271"/>
      <point x="864" y="1269"/>
      <point x="864" y="1266" type="curve" smooth="yes"/>
      <point x="864" y="1256"/>
      <point x="858" y="1234"/>
      <point x="846" y="1201" type="curve" smooth="yes"/>
      <point x="834" y="1168"/>
      <point x="819" y="1142"/>
      <point x="804" y="1124" type="curve"/>
      <point x="729" y="1116"/>
      <point x="652" y="1112"/>
      <point x="572" y="1112" type="curve" smooth="yes"/>
      <point x="404" y="1112" type="line"/>
      <point x="399" y="1085"/>
      <point x="392" y="1047"/>
      <point x="382" y="997" type="curve" smooth="yes"/>
      <point x="372" y="947"/>
      <point x="363" y="902"/>
      <point x="355" y="862" type="curve" smooth="yes"/>
      <point x="347" y="822"/>
      <point x="339" y="785"/>
      <point x="332" y="752" type="curve"/>
      <point x="359" y="763"/>
      <point x="393" y="772"/>
      <point x="436" y="779" type="curve" smooth="yes"/>
      <point x="479" y="786"/>
      <point x="515" y="790"/>
    </contour>
  </outline>
</glyph>
<glyph name="six" format="2">
  <advance width="1090"/>
  <unicode hex="0036"/>
  <outline>
    <contour>
      <point x="578" y="790" type="curve" smooth="yes"/>
      <point x="631" y="790"/>
      <point x="680" y="782"/>
      <point x="723" y="764" type="curve" smooth="yes"/>
      <point x="766" y="746"/>
      <point x="801" y="723"/>
      <point x="828" y="696" type="curve" smooth="yes"/>
      <point x="855" y="669"/>
      <point x="877" y="639"/>
      <point x="895" y="604" type="curve" smooth="yes"/>
      <point x="913" y="569"/>
      <point x="926" y="535"/>
      <point x="933" y="502" type="curve" smooth="yes"/>
      <point x="940" y="469"/>
      <point x="944" y="437"/>
      <point x="944" y="406" type="curve" smooth="yes"/>
      <point x="944" y="293"/>
      <point x="905" y="195"/>
      <point x="826" y="112" type="curve" smooth="yes"/>
      <point x="747" y="29"/>
      <point x="651" y="-12"/>
      <point x="538" y="-12" type="curve" smooth="yes"/>
      <point x="480" y="-12"/>
      <point x="426" y="1"/>
      <point x="376" y="28" type="curve" smooth="yes"/>
      <point x="326" y="55"/>
      <point x="284" y="90"/>
      <point x="251" y="133" type="curve" smooth="yes"/>
      <point x="218" y="176"/>
      <point x="193" y="225"/>
      <point x="174" y="278" type="curve" smooth="yes"/>
      <point x="155" y="331"/>
      <point x="146" y="385"/>
      <point x="146" y="440" type="curve" smooth="yes"/>
      <point x="146" y="543"/>
      <point x="162" y="639"/>
      <point x="195" y="730" type="curve" smooth="yes"/>
      <point x="228" y="821"/>
      <point x="275" y="901"/>
      <point x="338" y="970" type="curve" smooth="yes"/>
      <point x="406" y="1045"/>
      <point x="490" y="1111"/>
      <point x="590" y="1170" type="curve" smooth="yes"/>
      <point x="690" y="1229"/>
      <point x="785" y="1271"/>
      <point x="874" y="1294" type="curve" smooth="yes"/>
      <point x="882" y="1294"/>
      <point x="888" y="1286"/>
      <point x="892" y="1272" type="curve" smooth="yes"/>
      <point x="896" y="1258"/>
      <point x="898" y="1246"/>
      <point x="898" y="1236" type="curve"/>
      <point x="593" y="1138"/>
      <point x="408" y="959"/>
      <point x="342" y="700" type="curve"/>
      <point x="375" y="728"/>
      <point x="414" y="750"/>
      <point x="458" y="766" type="curve" smooth="yes"/>
      <point x="502" y="782"/>
      <point x="542" y="790"/>
    </contour>
    <contour>
      <point x="326" y="612" type="curve"/>
      <point x="321" y="575"/>
      <point x="318" y="529"/>
      <point x="318" y="476" type="curve" smooth="yes"/>
      <point x="318" y="429"/>
      <point x="323" y="382"/>
      <point x="333" y="334" type="curve" smooth="yes"/>
      <point x="343" y="286"/>
      <point x="358" y="241"/>
      <point x="376" y="198" type="curve" smooth="yes"/>
      <point x="394" y="155"/>
      <point x="419" y="121"/>
      <point x="450" y="94" type="curve" smooth="yes"/>
      <point x="481" y="67"/>
      <point x="516" y="54"/>
      <point x="554" y="54" type="curve" smooth="yes"/>
      <point x="617" y="54"/>
      <point x="670" y="84"/>
      <point x="712" y="144" type="curve" smooth="yes"/>
      <point x="754" y="204"/>
      <point x="774" y="278"/>
      <point x="774" y="368" type="curve" smooth="yes"/>
      <point x="774" y="427"/>
      <point x="766" y="481"/>
      <point x="750" y="528" type="curve" smooth="yes"/>
      <point x="734" y="575"/>
      <point x="705" y="615"/>
      <point x="666" y="646" type="curve" smooth="yes"/>
      <point x="627" y="677"/>
      <point x="579" y="692"/>
      <point x="522" y="692" type="curve" smooth="yes"/>
      <point x="440" y="692"/>
      <point x="375" y="665"/>
    </contour>
  </outline>
</glyph>
<glyph name="nine" format="2">
  <advance width="1090"/>
  <unicode hex="0039"/>
  <outline>
    <contour>
      <point x="192" y="46" type="curve"/>
      <point x="497" y="144"/>
      <point x="682" y="323"/>
      <point x="748" y="582" type="curve"/>
      <point x="715" y="554"/>
      <point x="676" y="532"/>
      <point x="632" y="516" type="curve" smooth="yes"/>
      <point x="588" y="500"/>
      <point x="548" y="492"/>
      <point x="512" y="492" type="curve" smooth="yes"/>
      <point x="459" y="492"/>
      <point x="410" y="500"/>
      <point x="367" y="518" type="curve" smooth="yes"/>
      <point x="324" y="536"/>
      <point x="288" y="559"/>
      <point x="262" y="586" type="curve" smooth="yes"/>
      <point x="236" y="613"/>
      <point x="214" y="644"/>
      <point x="196" y="679" type="curve" smooth="yes"/>
      <point x="178" y="714"/>
      <point x="165" y="748"/>
      <point x="158" y="780" type="curve" smooth="yes"/>
      <point x="151" y="812"/>
      <point x="148" y="845"/>
      <point x="148" y="876" type="curve" smooth="yes"/>
      <point x="148" y="989"/>
      <point x="188" y="1087"/>
      <point x="266" y="1170" type="curve" smooth="yes"/>
      <point x="344" y="1253"/>
      <point x="439" y="1294"/>
      <point x="552" y="1294" type="curve" smooth="yes"/>
      <point x="610" y="1294"/>
      <point x="664" y="1281"/>
      <point x="714" y="1254" type="curve" smooth="yes"/>
      <point x="764" y="1227"/>
      <point x="806" y="1192"/>
      <point x="839" y="1149" type="curve" smooth="yes"/>
      <point x="872" y="1106"/>
      <point x="897" y="1057"/>
      <point x="916" y="1004" type="curve" smooth="yes"/>
      <point x="935" y="951"/>
      <point x="944" y="897"/>
      <point x="944" y="842" type="curve" smooth="yes"/>
      <point x="944" y="739"/>
      <point x="928" y="643"/>
      <point x="895" y="552" type="curve" smooth="yes"/>
      <point x="862" y="461"/>
      <point x="815" y="381"/>
      <point x="752" y="312" type="curve" smooth="yes"/>
      <point x="684" y="237"/>
      <point x="600" y="171"/>
      <point x="500" y="112" type="curve" smooth="yes"/>
      <point x="400" y="53"/>
      <point x="305" y="11"/>
      <point x="216" y="-12" type="curve" smooth="yes"/>
      <point x="208" y="-12"/>
      <point x="202" y="-4"/>
      <point x="198" y="10" type="curve" smooth="yes"/>
      <point x="194" y="24"/>
      <point x="192" y="36"/>
    </contour>
    <contour>
      <point x="764" y="670" type="curve"/>
      <point x="769" y="707"/>
      <point x="772" y="753"/>
      <point x="772" y="806" type="curve" smooth="yes"/>
      <point x="772" y="853"/>
      <point x="767" y="900"/>
      <point x="757" y="948" type="curve" smooth="yes"/>
      <point x="747" y="996"/>
      <point x="732" y="1041"/>
      <point x="714" y="1084" type="curve" smooth="yes"/>
      <point x="696" y="1127"/>
      <point x="671" y="1161"/>
      <point x="640" y="1188" type="curve" smooth="yes"/>
      <point x="609" y="1215"/>
      <point x="574" y="1228"/>
      <point x="536" y="1228" type="curve" smooth="yes"/>
      <point x="473" y="1228"/>
      <point x="421" y="1198"/>
      <point x="380" y="1138" type="curve" smooth="yes"/>
      <point x="339" y="1078"/>
      <point x="318" y="1004"/>
      <point x="318" y="914" type="curve" smooth="yes"/>
      <point x="318" y="854"/>
      <point x="326" y="801"/>
      <point x="342" y="754" type="curve" smooth="yes"/>
      <point x="358" y="707"/>
      <point x="385" y="667"/>
      <point x="424" y="636" type="curve" smooth="yes"/>
      <point x="463" y="605"/>
      <point x="511" y="590"/>
      <point x="568" y="590" type="curve" smooth="yes"/>
      <point x="650" y="590"/>
      <point x="715" y="617"/>
    </contour>
  </outline>
</glyph>
<glyph name="colon" format="2">
  <advance width="452"/>
  <unicode hex="003A"/>
  <outline>
    <contour>
      <point x="116" y="754" type="curve" smooth="yes"/>
      <point x="116" y="784"/>
      <point x="128" y="809"/>
      <point x="150" y="830" type="curve" smooth="yes"/>
      <point x="172" y="851"/>
      <point x="198" y="862"/>
      <point x="228" y="862" type="curve" smooth="yes"/>
      <point x="258" y="862"/>
      <point x="283" y="851"/>
      <point x="304" y="830" type="curve" smooth="yes"/>
      <point x="325" y="809"/>
      <point x="336" y="784"/>
      <point x="336" y="754" type="curve" smooth="yes"/>
      <point x="336" y="724"/>
      <point x="325" y="698"/>
      <point x="304" y="676" type="curve" smooth="yes"/>
      <point x="283" y="654"/>
      <point x="258" y="642"/>
      <point x="228" y="642" type="curve" smooth="yes"/>
      <point x="198" y="642"/>
      <point x="172" y="654"/>
      <point x="150" y="676" type="curve" smooth="yes"/>
      <point x="128" y="698"/>
      <point x="116" y="724"/>
    </contour>
    <contour>
      <point x="116" y="90" type="curve" smooth="yes"/>
      <point x="116" y="120"/>
      <point x="128" y="145"/>
      <point x="150" y="166" type="curve" smooth="yes"/>
      <point x="172" y="187"/>
      <point x="198" y="198"/>
      <point x="228" y="198" type="curve" smooth="yes"/>
      <point x="258" y="198"/>
      <point x="283" y="187"/>
      <point x="304" y="166" type="curve" smooth="yes"/>
      <point x="325" y="145"/>
      <point x="336" y="120"/>
      <point x="336" y="90" type="curve" smooth="yes"/>
      <point x="336" y="60"/>
      <point x="325" y="34"/>
      <point x="304" y="12" type="curve" smooth="yes"/>
      <point x="283" y="-10"/>
      <point x="258" y="-22"/>
      <point x="228" y="-22" type="curve" smooth="yes"/>
      <point x="198" y="-22"/>
      <point x="172" y="-10"/>
      <point x="150" y="12" type="curve" smooth="yes"/>
      <point x="128" y="34"/>
      <point x="116" y="60"/>
    </contour>
  </outline>
</glyph>
<glyph name="less" format="2">
  <advance width="984"/>
  <unicode hex="003C"/>
  <outline>
    <contour>
      <point x="888" y="70" type="curve" smooth="yes"/>
      <point x="888" y="61"/>
      <point x="884" y="42"/>
      <point x="876" y="13" type="curve" smooth="yes"/>
      <point x="868" y="-16"/>
      <point x="861" y="-30"/>
      <point x="856" y="-30" type="curve" smooth="yes"/>
      <point x="855" y="-30"/>
      <point x="851" y="-29"/>
      <point x="846" y="-26" type="curve" smooth="yes"/>
      <point x="96" y="354" type="line" smooth="yes"/>
      <point x="72" y="367"/>
      <point x="60" y="393"/>
      <point x="60" y="434" type="curve" smooth="yes"/>
      <point x="60" y="454"/>
      <point x="72" y="470"/>
      <point x="96" y="482" type="curve" smooth="yes"/>
      <point x="834" y="856" type="line" smooth="yes"/>
      <point x="839" y="859"/>
      <point x="843" y="860"/>
      <point x="844" y="860" type="curve" smooth="yes"/>
      <point x="855" y="860"/>
      <point x="866" y="829"/>
      <point x="878" y="766" type="curve" smooth="yes"/>
      <point x="879" y="763"/>
      <point x="879" y="759"/>
      <point x="878" y="756" type="curve" smooth="yes"/>
      <point x="877" y="753"/>
      <point x="875" y="751"/>
      <point x="874" y="750" type="curve" smooth="yes"/>
      <point x="872" y="748" type="line"/>
      <point x="220" y="418" type="line"/>
      <point x="882" y="82" type="line" smooth="yes"/>
      <point x="886" y="81"/>
      <point x="888" y="77"/>
    </contour>
  </outline>
</glyph>
<glyph name="equal" format="2">
  <advance width="1130"/>
  <unicode hex="003D"/>
  <outline>
    <contour>
      <point x="957" y="528" type="curve"/>
      <point x="145" y="528" type="line" smooth="yes"/>
      <point x="138" y="531"/>
      <point x="135" y="539"/>
      <point x="136" y="554" type="curve" smooth="yes"/>
      <point x="137" y="569"/>
      <point x="142" y="586"/>
      <point x="151" y="605" type="curve" smooth="yes"/>
      <point x="160" y="624"/>
      <point x="168" y="635"/>
      <point x="177" y="638" type="curve" smooth="yes"/>
      <point x="983" y="638" type="line" smooth="yes"/>
      <point x="991" y="635"/>
      <point x="994" y="626"/>
      <point x="994" y="612" type="curve" smooth="yes"/>
      <point x="994" y="598"/>
      <point x="990" y="582"/>
      <point x="982" y="563" type="curve" smooth="yes"/>
      <point x="974" y="544"/>
      <point x="966" y="533"/>
    </contour>
    <contour>
      <point x="957" y="240" type="curve"/>
      <point x="957" y="240"/>
      <point x="957" y="240"/>
      <point x="145" y="240" type="curve" smooth="yes"/>
      <point x="138" y="243"/>
      <point x="135" y="251"/>
      <point x="136" y="266" type="curve" smooth="yes"/>
      <point x="137" y="281"/>
      <point x="142" y="298"/>
      <point x="151" y="317" type="curve" smooth="yes"/>
      <point x="160" y="336"/>
      <point x="168" y="347"/>
      <point x="177" y="350" type="curve" smooth="yes"/>
      <point x="983" y="350" type="line" smooth="yes"/>
      <point x="991" y="347"/>
      <point x="994" y="338"/>
      <point x="994" y="324" type="curve" smooth="yes"/>
      <point x="994" y="310"/>
      <point x="990" y="294"/>
      <point x="982" y="275" type="curve" smooth="yes"/>
      <point x="974" y="256"/>
      <point x="966" y="245"/>
    </contour>
  </outline>
</glyph>
<glyph name="at" format="2">
  <advance width="1496"/>
  <unicode hex="0040"/>
  <outline>
    <contour>
      <point x="876" y="778" type="curve" smooth="yes"/>
      <point x="839" y="778"/>
      <point x="799" y="764"/>
      <point x="758" y="736" type="curve" smooth="yes"/>
      <point x="717" y="708"/>
      <point x="681" y="670"/>
      <point x="648" y="626" type="curve" smooth="yes"/>
      <point x="615" y="582"/>
      <point x="589" y="531"/>
      <point x="568" y="473" type="curve" smooth="yes"/>
      <point x="547" y="415"/>
      <point x="536" y="358"/>
      <point x="536" y="302" type="curve" smooth="yes"/>
      <point x="536" y="171"/>
      <point x="570" y="106"/>
      <point x="638" y="106" type="curve" smooth="yes"/>
      <point x="670" y="106"/>
      <point x="706" y="129"/>
      <point x="746" y="176" type="curve" smooth="yes"/>
      <point x="786" y="223"/>
      <point x="821" y="282"/>
      <point x="852" y="350" type="curve" smooth="yes"/>
      <point x="883" y="418"/>
      <point x="905" y="484"/>
      <point x="918" y="548" type="curve" smooth="yes"/>
      <point x="958" y="752" type="line"/>
      <point x="943" y="769"/>
      <point x="915" y="778"/>
    </contour>
    <contour>
      <point x="836" y="1156" type="curve" smooth="yes"/>
      <point x="912" y="1156"/>
      <point x="982" y="1145"/>
      <point x="1047" y="1122" type="curve" smooth="yes"/>
      <point x="1112" y="1099"/>
      <point x="1166" y="1068"/>
      <point x="1212" y="1029" type="curve" smooth="yes"/>
      <point x="1258" y="990"/>
      <point x="1298" y="944"/>
      <point x="1330" y="892" type="curve" smooth="yes"/>
      <point x="1362" y="840"/>
      <point x="1386" y="783"/>
      <point x="1401" y="724" type="curve" smooth="yes"/>
      <point x="1416" y="665"/>
      <point x="1424" y="603"/>
      <point x="1424" y="540" type="curve" smooth="yes"/>
      <point x="1424" y="439"/>
      <point x="1406" y="347"/>
      <point x="1370" y="262" type="curve" smooth="yes"/>
      <point x="1334" y="177"/>
      <point x="1285" y="110"/>
      <point x="1222" y="60" type="curve" smooth="yes"/>
      <point x="1159" y="10"/>
      <point x="1089" y="-14"/>
      <point x="1012" y="-14" type="curve" smooth="yes"/>
      <point x="961" y="-14"/>
      <point x="920" y="0"/>
      <point x="890" y="28" type="curve" smooth="yes"/>
      <point x="860" y="56"/>
      <point x="846" y="99"/>
      <point x="846" y="158" type="curve" smooth="yes"/>
      <point x="846" y="195"/>
      <point x="851" y="225"/>
      <point x="860" y="250" type="curve"/>
      <point x="849" y="229"/>
      <point x="834" y="205"/>
      <point x="815" y="178" type="curve" smooth="yes"/>
      <point x="796" y="151"/>
      <point x="774" y="122"/>
      <point x="749" y="93" type="curve" smooth="yes"/>
      <point x="724" y="64"/>
      <point x="696" y="40"/>
      <point x="665" y="20" type="curve" smooth="yes"/>
      <point x="634" y="0"/>
      <point x="605" y="-10"/>
      <point x="578" y="-10" type="curve" smooth="yes"/>
      <point x="519" y="-10"/>
      <point x="472" y="16"/>
      <point x="438" y="69" type="curve" smooth="yes"/>
      <point x="404" y="122"/>
      <point x="388" y="185"/>
      <point x="388" y="260" type="curve" smooth="yes"/>
      <point x="388" y="331"/>
      <point x="406" y="404"/>
      <point x="440" y="478" type="curve" smooth="yes"/>
      <point x="474" y="552"/>
      <point x="518" y="618"/>
      <point x="571" y="675" type="curve" smooth="yes"/>
      <point x="624" y="732"/>
      <point x="686" y="780"/>
      <point x="756" y="816" type="curve" smooth="yes"/>
      <point x="826" y="852"/>
      <point x="893" y="870"/>
      <point x="960" y="870" type="curve" smooth="yes"/>
      <point x="1010" y="870"/>
      <point x="1059" y="861"/>
      <point x="1106" y="844" type="curve"/>
      <point x="984" y="212" type="line" smooth="yes"/>
      <point x="980" y="196"/>
      <point x="978" y="179"/>
      <point x="978" y="162" type="curve" smooth="yes"/>
      <point x="978" y="131"/>
      <point x="986" y="109"/>
      <point x="1004" y="94" type="curve" smooth="yes"/>
      <point x="1022" y="79"/>
      <point x="1045" y="72"/>
      <point x="1074" y="72" type="curve" smooth="yes"/>
      <point x="1105" y="72"/>
      <point x="1138" y="85"/>
      <point x="1170" y="110" type="curve" smooth="yes"/>
      <point x="1202" y="135"/>
      <point x="1230" y="167"/>
      <point x="1256" y="208" type="curve" smooth="yes"/>
      <point x="1282" y="249"/>
      <point x="1304" y="298"/>
      <point x="1320" y="356" type="curve" smooth="yes"/>
      <point x="1336" y="414"/>
      <point x="1344" y="473"/>
      <point x="1344" y="534" type="curve" smooth="yes"/>
      <point x="1344" y="589"/>
      <point x="1338" y="642"/>
      <point x="1325" y="694" type="curve" smooth="yes"/>
      <point x="1312" y="746"/>
      <point x="1292" y="796"/>
      <point x="1265" y="842" type="curve" smooth="yes"/>
      <point x="1238" y="888"/>
      <point x="1205" y="928"/>
      <point x="1166" y="963" type="curve" smooth="yes"/>
      <point x="1127" y="998"/>
      <point x="1079" y="1026"/>
      <point x="1022" y="1046" type="curve" smooth="yes"/>
      <point x="965" y="1066"/>
      <point x="903" y="1076"/>
      <point x="836" y="1076" type="curve" smooth="yes"/>
      <point x="757" y="1076"/>
      <point x="682" y="1062"/>
      <point x="611" y="1033" type="curve" smooth="yes"/>
      <point x="540" y="1004"/>
      <point x="480" y="966"/>
      <point x="428" y="917" type="curve" smooth="yes"/>
      <point x="376" y="868"/>
      <point x="330" y="813"/>
      <point x="292" y="750" type="curve" smooth="yes"/>
      <point x="254" y="687"/>
      <point x="225" y="620"/>
      <point x="206" y="550" type="curve" smooth="yes"/>
      <point x="187" y="480"/>
      <point x="178" y="410"/>
      <point x="178" y="340" type="curve" smooth="yes"/>
      <point x="178" y="229"/>
      <point x="204" y="129"/>
      <point x="254" y="42" type="curve" smooth="yes"/>
      <point x="304" y="-45"/>
      <point x="367" y="-111"/>
      <point x="444" y="-156" type="curve" smooth="yes"/>
      <point x="495" y="-185"/>
      <point x="545" y="-204"/>
      <point x="594" y="-212" type="curve"/>
      <point x="594" y="-219"/>
      <point x="586" y="-228"/>
      <point x="568" y="-236" type="curve" smooth="yes"/>
      <point x="550" y="-244"/>
      <point x="535" y="-248"/>
      <point x="522" y="-248" type="curve" smooth="yes"/>
      <point x="491" y="-248"/>
      <point x="465" y="-244"/>
      <point x="444" y="-236" type="curve" smooth="yes"/>
      <point x="348" y="-201"/>
      <point x="266" y="-130"/>
      <point x="199" y="-24" type="curve" smooth="yes"/>
      <point x="132" y="82"/>
      <point x="98" y="204"/>
      <point x="98" y="340" type="curve" smooth="yes"/>
      <point x="98" y="419"/>
      <point x="109" y="497"/>
      <point x="130" y="575" type="curve" smooth="yes"/>
      <point x="151" y="653"/>
      <point x="182" y="726"/>
      <point x="224" y="796" type="curve" smooth="yes"/>
      <point x="266" y="866"/>
      <point x="317" y="928"/>
      <point x="375" y="982" type="curve" smooth="yes"/>
      <point x="433" y="1036"/>
      <point x="502" y="1078"/>
      <point x="582" y="1109" type="curve" smooth="yes"/>
      <point x="662" y="1140"/>
      <point x="746" y="1156"/>
    </contour>
  </outline>
</glyph>
<glyph name="B" format="2">
  <advance width="1192"/>
  <unicode hex="0042"/>
  <outline>
    <contour>
      <point x="611" y="1318" type="curve" smooth="yes"/>
      <point x="650" y="1318"/>
      <point x="687" y="1315"/>
      <point x="723" y="1309" type="curve" smooth="yes"/>
      <point x="759" y="1303"/>
      <point x="795" y="1292"/>
      <point x="831" y="1278" type="curve" smooth="yes"/>
      <point x="867" y="1264"/>
      <point x="898" y="1246"/>
      <point x="924" y="1224" type="curve" smooth="yes"/>
      <point x="950" y="1202"/>
      <point x="972" y="1173"/>
      <point x="988" y="1138" type="curve" smooth="yes"/>
      <point x="1004" y="1103"/>
      <point x="1013" y="1064"/>
      <point x="1013" y="1020" type="curve" smooth="yes"/>
      <point x="1013" y="951"/>
      <point x="991" y="890"/>
      <point x="946" y="836" type="curve" smooth="yes"/>
      <point x="901" y="782"/>
      <point x="856" y="747"/>
      <point x="811" y="730" type="curve" smooth="yes"/>
      <point x="805" y="727"/>
      <point x="805" y="724"/>
      <point x="811" y="720" type="curve" smooth="yes"/>
      <point x="837" y="719"/>
      <point x="866" y="710"/>
      <point x="899" y="695" type="curve" smooth="yes"/>
      <point x="932" y="680"/>
      <point x="963" y="658"/>
      <point x="994" y="632" type="curve" smooth="yes"/>
      <point x="1025" y="606"/>
      <point x="1052" y="572"/>
      <point x="1073" y="530" type="curve" smooth="yes"/>
      <point x="1094" y="488"/>
      <point x="1105" y="445"/>
      <point x="1105" y="398" type="curve" smooth="yes"/>
      <point x="1105" y="276"/>
      <point x="1060" y="177"/>
      <point x="970" y="102" type="curve" smooth="yes"/>
      <point x="887" y="33"/>
      <point x="747" y="-3"/>
      <point x="551" y="-6" type="curve" smooth="yes"/>
      <point x="91" y="-6" type="line"/>
      <point x="86" y="-1"/>
      <point x="84" y="9"/>
      <point x="84" y="23" type="curve" smooth="yes"/>
      <point x="84" y="37"/>
      <point x="87" y="47"/>
      <point x="91" y="52" type="curve"/>
      <point x="111" y="52"/>
      <point x="138" y="55"/>
      <point x="173" y="61" type="curve" smooth="yes"/>
      <point x="208" y="67"/>
      <point x="226" y="75"/>
      <point x="229" y="84" type="curve" smooth="yes"/>
      <point x="236" y="105"/>
      <point x="239" y="155"/>
      <point x="239" y="232" type="curve" smooth="yes"/>
      <point x="239" y="1086" type="line" smooth="yes"/>
      <point x="239" y="1163"/>
      <point x="236" y="1213"/>
      <point x="229" y="1234" type="curve" smooth="yes"/>
      <point x="226" y="1243"/>
      <point x="208" y="1251"/>
      <point x="173" y="1257" type="curve" smooth="yes"/>
      <point x="138" y="1263"/>
      <point x="111" y="1266"/>
      <point x="91" y="1266" type="curve"/>
      <point x="87" y="1271"/>
      <point x="84" y="1281"/>
      <point x="84" y="1295" type="curve" smooth="yes"/>
      <point x="84" y="1309"/>
      <point x="86" y="1319"/>
      <point x="91" y="1324" type="curve"/>
      <point x="228" y="1317"/>
      <point x="306" y="1314"/>
      <point x="327" y="1314" type="curve" smooth="yes"/>
      <point x="350" y="1314"/>
      <point x="392" y="1315"/>
      <point x="454" y="1316" type="curve" smooth="yes"/>
      <point x="516" y="1317"/>
      <point x="568" y="1318"/>
    </contour>
    <contour>
      <point x="413" y="740" type="line"/>
      <point x="580" y="740" type="line" smooth="yes"/>
      <point x="663" y="740"/>
      <point x="726" y="763"/>
      <point x="768" y="809" type="curve" smooth="yes"/>
      <point x="810" y="855"/>
      <point x="831" y="910"/>
      <point x="831" y="974" type="curve" smooth="yes"/>
      <point x="831" y="1062"/>
      <point x="804" y="1131"/>
      <point x="748" y="1180" type="curve" smooth="yes"/>
      <point x="692" y="1229"/>
      <point x="617" y="1254"/>
      <point x="523" y="1254" type="curve" smooth="yes"/>
      <point x="462" y="1254"/>
      <point x="429" y="1247"/>
      <point x="423" y="1234" type="curve" smooth="yes"/>
      <point x="416" y="1217"/>
      <point x="413" y="1178"/>
      <point x="413" y="1117" type="curve" smooth="yes"/>
      <point x="413" y="1101"/>
      <point x="413" y="1101"/>
      <point x="413" y="1084" type="curve" smooth="yes"/>
    </contour>
    <contour>
      <point x="413" y="664" type="line"/>
      <point x="413" y="230" type="line" smooth="yes"/>
      <point x="413" y="225"/>
      <point x="413" y="225"/>
      <point x="413" y="220" type="curve" smooth="yes"/>
      <point x="413" y="202"/>
      <point x="414" y="179"/>
      <point x="417" y="152" type="curve" smooth="yes"/>
      <point x="420" y="119"/>
      <point x="425" y="100"/>
      <point x="431" y="94" type="curve" smooth="yes"/>
      <point x="445" y="79"/>
      <point x="464" y="70"/>
      <point x="488" y="65" type="curve" smooth="yes"/>
      <point x="512" y="60"/>
      <point x="546" y="58"/>
      <point x="589" y="58" type="curve" smooth="yes"/>
      <point x="801" y="58"/>
      <point x="907" y="156"/>
      <point x="907" y="352" type="curve" smooth="yes"/>
      <point x="907" y="560"/>
      <point x="783" y="664"/>
      <point x="535" y="664" type="curve" smooth="yes"/>
    </contour>
  </outline>
</glyph>
<glyph name="C" format="2">
  <advance width="1348"/>
  <unicode hex="0043"/>
  <outline>
    <contour>
      <point x="772" y="1334" type="curve" smooth="yes"/>
      <point x="925" y="1334"/>
      <point x="1067" y="1320"/>
      <point x="1196" y="1292" type="curve"/>
      <point x="1227" y="1108"/>
      <point x="1242" y="1009"/>
      <point x="1242" y="996" type="curve" smooth="yes"/>
      <point x="1243" y="990"/>
      <point x="1238" y="984"/>
      <point x="1228" y="978" type="curve" smooth="yes"/>
      <point x="1218" y="972"/>
      <point x="1208" y="970"/>
      <point x="1198" y="970" type="curve" smooth="yes"/>
      <point x="1188" y="970"/>
      <point x="1180" y="972"/>
      <point x="1174" y="976" type="curve"/>
      <point x="1136" y="1171"/>
      <point x="1005" y="1268"/>
      <point x="782" y="1268" type="curve" smooth="yes"/>
      <point x="687" y="1268"/>
      <point x="602" y="1239"/>
      <point x="526" y="1180" type="curve" smooth="yes"/>
      <point x="450" y="1121"/>
      <point x="392" y="1048"/>
      <point x="353" y="960" type="curve" smooth="yes"/>
      <point x="314" y="872"/>
      <point x="294" y="781"/>
      <point x="294" y="686" type="curve" smooth="yes"/>
      <point x="294" y="623"/>
      <point x="300" y="560"/>
      <point x="314" y="500" type="curve" smooth="yes"/>
      <point x="328" y="440"/>
      <point x="350" y="383"/>
      <point x="378" y="329" type="curve" smooth="yes"/>
      <point x="406" y="275"/>
      <point x="440" y="228"/>
      <point x="480" y="187" type="curve" smooth="yes"/>
      <point x="520" y="146"/>
      <point x="570" y="114"/>
      <point x="627" y="90" type="curve" smooth="yes"/>
      <point x="684" y="66"/>
      <point x="747" y="54"/>
      <point x="814" y="54" type="curve" smooth="yes"/>
      <point x="917" y="54"/>
      <point x="1005" y="86"/>
      <point x="1078" y="150" type="curve" smooth="yes"/>
      <point x="1138" y="204"/>
      <point x="1179" y="281"/>
      <point x="1200" y="382" type="curve"/>
      <point x="1205" y="382"/>
      <point x="1205" y="382"/>
      <point x="1209" y="382" type="curve" smooth="yes"/>
      <point x="1229" y="382"/>
      <point x="1247" y="377"/>
      <point x="1264" y="366" type="curve"/>
      <point x="1264" y="341"/>
      <point x="1255" y="289"/>
      <point x="1238" y="211" type="curve" smooth="yes"/>
      <point x="1221" y="133"/>
      <point x="1207" y="89"/>
      <point x="1194" y="78" type="curve" smooth="yes"/>
      <point x="1087" y="18"/>
      <point x="944" y="-12"/>
      <point x="764" y="-12" type="curve" smooth="yes"/>
      <point x="667" y="-12"/>
      <point x="577" y="6"/>
      <point x="493" y="41" type="curve" smooth="yes"/>
      <point x="409" y="76"/>
      <point x="338" y="124"/>
      <point x="281" y="183" type="curve" smooth="yes"/>
      <point x="224" y="242"/>
      <point x="179" y="312"/>
      <point x="146" y="392" type="curve" smooth="yes"/>
      <point x="113" y="472"/>
      <point x="96" y="556"/>
      <point x="96" y="644" type="curve" smooth="yes"/>
      <point x="96" y="737"/>
      <point x="113" y="826"/>
      <point x="147" y="910" type="curve" smooth="yes"/>
      <point x="181" y="994"/>
      <point x="227" y="1068"/>
      <point x="286" y="1130" type="curve" smooth="yes"/>
      <point x="345" y="1192"/>
      <point x="416" y="1241"/>
      <point x="501" y="1278" type="curve" smooth="yes"/>
      <point x="586" y="1315"/>
      <point x="676" y="1334"/>
    </contour>
  </outline>
</glyph>
<glyph name="G" format="2">
  <advance width="1440"/>
  <unicode hex="0047"/>
  <outline>
    <contour>
      <point x="1070" y="350" type="line" smooth="yes"/>
      <point x="1070" y="427"/>
      <point x="1067" y="477"/>
      <point x="1060" y="498" type="curve" smooth="yes"/>
      <point x="1057" y="507"/>
      <point x="1039" y="515"/>
      <point x="1005" y="521" type="curve" smooth="yes"/>
      <point x="971" y="527"/>
      <point x="944" y="530"/>
      <point x="924" y="530" type="curve"/>
      <point x="920" y="535"/>
      <point x="918" y="545"/>
      <point x="918" y="559" type="curve" smooth="yes"/>
      <point x="918" y="573"/>
      <point x="919" y="583"/>
      <point x="924" y="588" type="curve"/>
      <point x="1061" y="581"/>
      <point x="1139" y="578"/>
      <point x="1158" y="578" type="curve" smooth="yes"/>
      <point x="1171" y="578"/>
      <point x="1245" y="581"/>
      <point x="1382" y="588" type="curve"/>
      <point x="1387" y="583"/>
      <point x="1388" y="573"/>
      <point x="1388" y="559" type="curve" smooth="yes"/>
      <point x="1388" y="545"/>
      <point x="1386" y="535"/>
      <point x="1382" y="530" type="curve"/>
      <point x="1363" y="530"/>
      <point x="1336" y="527"/>
      <point x="1304" y="521" type="curve" smooth="yes"/>
      <point x="1272" y="515"/>
      <point x="1255" y="507"/>
      <point x="1252" y="498" type="curve" smooth="yes"/>
      <point x="1245" y="477"/>
      <point x="1242" y="427"/>
      <point x="1242" y="350" type="curve" smooth="yes"/>
      <point x="1242" y="208" type="line" smooth="yes"/>
      <point x="1242" y="192"/>
      <point x="1245" y="176"/>
      <point x="1252" y="160" type="curve" smooth="yes"/>
      <point x="1259" y="144"/>
      <point x="1262" y="133"/>
      <point x="1262" y="128" type="curve" smooth="yes"/>
      <point x="1262" y="122"/>
      <point x="1259" y="117"/>
      <point x="1254" y="112" type="curve" smooth="yes"/>
      <point x="1249" y="107"/>
      <point x="1239" y="101"/>
      <point x="1222" y="92" type="curve" smooth="yes"/>
      <point x="1182" y="71"/>
      <point x="1149" y="54"/>
      <point x="1122" y="42" type="curve" smooth="yes"/>
      <point x="1095" y="30"/>
      <point x="1049" y="18"/>
      <point x="984" y="6" type="curve" smooth="yes"/>
      <point x="919" y="-6"/>
      <point x="845" y="-12"/>
      <point x="764" y="-12" type="curve" smooth="yes"/>
      <point x="667" y="-12"/>
      <point x="577" y="6"/>
      <point x="493" y="41" type="curve" smooth="yes"/>
      <point x="409" y="76"/>
      <point x="338" y="124"/>
      <point x="281" y="183" type="curve" smooth="yes"/>
      <point x="224" y="242"/>
      <point x="179" y="312"/>
      <point x="146" y="392" type="curve" smooth="yes"/>
      <point x="113" y="472"/>
      <point x="96" y="556"/>
      <point x="96" y="644" type="curve" smooth="yes"/>
      <point x="96" y="737"/>
      <point x="113" y="826"/>
      <point x="147" y="910" type="curve" smooth="yes"/>
      <point x="181" y="994"/>
      <point x="227" y="1068"/>
      <point x="286" y="1130" type="curve" smooth="yes"/>
      <point x="345" y="1192"/>
      <point x="416" y="1241"/>
      <point x="501" y="1278" type="curve" smooth="yes"/>
      <point x="586" y="1315"/>
      <point x="676" y="1334"/>
      <point x="772" y="1334" type="curve" smooth="yes"/>
      <point x="925" y="1334"/>
      <point x="1067" y="1320"/>
      <point x="1196" y="1292" type="curve"/>
      <point x="1227" y="1108"/>
      <point x="1242" y="1009"/>
      <point x="1242" y="996" type="curve" smooth="yes"/>
      <point x="1243" y="990"/>
      <point x="1238" y="984"/>
      <point x="1228" y="978" type="curve" smooth="yes"/>
      <point x="1218" y="972"/>
      <point x="1208" y="970"/>
      <point x="1198" y="970" type="curve" smooth="yes"/>
      <point x="1188" y="970"/>
      <point x="1180" y="972"/>
      <point x="1174" y="976" type="curve"/>
      <point x="1136" y="1171"/>
      <point x="1005" y="1268"/>
      <point x="782" y="1268" type="curve" smooth="yes"/>
      <point x="687" y="1268"/>
      <point x="602" y="1239"/>
      <point x="526" y="1180" type="curve" smooth="yes"/>
      <point x="450" y="1121"/>
      <point x="392" y="1048"/>
      <point x="353" y="960" type="curve" smooth="yes"/>
      <point x="314" y="872"/>
      <point x="294" y="781"/>
      <point x="294" y="686" type="curve" smooth="yes"/>
      <point x="294" y="623"/>
      <point x="301" y="560"/>
      <point x="314" y="500" type="curve" smooth="yes"/>
      <point x="327" y="440"/>
      <point x="348" y="383"/>
      <point x="376" y="329" type="curve" smooth="yes"/>
      <point x="404" y="275"/>
      <point x="440" y="228"/>
      <point x="480" y="187" type="curve" smooth="yes"/>
      <point x="520" y="146"/>
      <point x="569" y="114"/>
      <point x="626" y="90" type="curve" smooth="yes"/>
      <point x="683" y="66"/>
      <point x="746" y="54"/>
      <point x="814" y="54" type="curve" smooth="yes"/>
      <point x="890" y="54"/>
      <point x="971" y="75"/>
      <point x="1056" y="118" type="curve" smooth="yes"/>
      <point x="1065" y="123"/>
      <point x="1070" y="133"/>
      <point x="1070" y="148" type="curve" smooth="yes"/>
    </contour>
  </outline>
</glyph>
<glyph name="K" format="2">
  <advance width="1314"/>
  <unicode hex="004B"/>
  <outline>
    <contour>
      <point x="327" y="1314" type="curve" smooth="yes"/>
      <point x="346" y="1314"/>
      <point x="424" y="1317"/>
      <point x="561" y="1324" type="curve"/>
      <point x="566" y="1319"/>
      <point x="568" y="1308"/>
      <point x="568" y="1292" type="curve" smooth="yes"/>
      <point x="568" y="1276"/>
      <point x="565" y="1265"/>
      <point x="561" y="1260" type="curve"/>
      <point x="541" y="1260"/>
      <point x="514" y="1257"/>
      <point x="479" y="1251" type="curve" smooth="yes"/>
      <point x="444" y="1245"/>
      <point x="426" y="1237"/>
      <point x="423" y="1228" type="curve" smooth="yes"/>
      <point x="416" y="1206"/>
      <point x="413" y="1167"/>
      <point x="413" y="1110" type="curve" smooth="yes"/>
      <point x="413" y="1096"/>
      <point x="413" y="1096"/>
      <point x="413" y="1080" type="curve" smooth="yes"/>
      <point x="413" y="682" type="line"/>
      <point x="448" y="703"/>
      <point x="523" y="771"/>
      <point x="639" y="884" type="curve" smooth="yes"/>
      <point x="716" y="961"/>
      <point x="770" y="1015"/>
      <point x="801" y="1048" type="curve" smooth="yes"/>
      <point x="832" y="1081"/>
      <point x="862" y="1117"/>
      <point x="893" y="1156" type="curve" smooth="yes"/>
      <point x="912" y="1181"/>
      <point x="921" y="1201"/>
      <point x="921" y="1218" type="curve" smooth="yes"/>
      <point x="921" y="1223"/>
      <point x="920" y="1228"/>
      <point x="918" y="1232" type="curve" smooth="yes"/>
      <point x="916" y="1236"/>
      <point x="913" y="1241"/>
      <point x="909" y="1244" type="curve" smooth="yes"/>
      <point x="905" y="1247"/>
      <point x="901" y="1250"/>
      <point x="896" y="1252" type="curve" smooth="yes"/>
      <point x="891" y="1254"/>
      <point x="886" y="1256"/>
      <point x="880" y="1257" type="curve" smooth="yes"/>
      <point x="874" y="1258"/>
      <point x="869" y="1259"/>
      <point x="864" y="1260" type="curve" smooth="yes"/>
      <point x="859" y="1261"/>
      <point x="853" y="1262"/>
      <point x="846" y="1262" type="curve" smooth="yes"/>
      <point x="839" y="1262"/>
      <point x="834" y="1262"/>
      <point x="830" y="1262" type="curve" smooth="yes"/>
      <point x="818" y="1262" type="line"/>
      <point x="809" y="1262" type="line"/>
      <point x="806" y="1268"/>
      <point x="804" y="1277"/>
      <point x="804" y="1290" type="curve" smooth="yes"/>
      <point x="804" y="1303"/>
      <point x="806" y="1315"/>
      <point x="809" y="1324" type="curve"/>
      <point x="824" y="1323"/>
      <point x="848" y="1322"/>
      <point x="880" y="1320" type="curve" smooth="yes"/>
      <point x="912" y="1318"/>
      <point x="942" y="1315"/>
      <point x="968" y="1314" type="curve" smooth="yes"/>
      <point x="994" y="1313"/>
      <point x="1017" y="1312"/>
      <point x="1039" y="1312" type="curve" smooth="yes"/>
      <point x="1074" y="1312"/>
      <point x="1115" y="1314"/>
      <point x="1164" y="1318" type="curve" smooth="yes"/>
      <point x="1213" y="1322"/>
      <point x="1243" y="1323"/>
      <point x="1255" y="1324" type="curve"/>
      <point x="1258" y="1318"/>
      <point x="1258" y="1306"/>
      <point x="1258" y="1288" type="curve" smooth="yes"/>
      <point x="1258" y="1270"/>
      <point x="1256" y="1262"/>
      <point x="1251" y="1262" type="curve" smooth="yes"/>
      <point x="1235" y="1261" type="line" smooth="yes"/>
      <point x="1224" y="1260"/>
      <point x="1215" y="1259"/>
      <point x="1206" y="1258" type="curve" smooth="yes"/>
      <point x="1197" y="1257"/>
      <point x="1186" y="1255"/>
      <point x="1171" y="1252" type="curve" smooth="yes"/>
      <point x="1156" y="1249"/>
      <point x="1142" y="1245"/>
      <point x="1130" y="1240" type="curve" smooth="yes"/>
      <point x="1118" y="1235"/>
      <point x="1104" y="1228"/>
      <point x="1090" y="1219" type="curve" smooth="yes"/>
      <point x="1076" y="1210"/>
      <point x="1064" y="1200"/>
      <point x="1053" y="1188" type="curve" smooth="yes"/>
      <point x="1012" y="1144"/>
      <point x="971" y="1101"/>
      <point x="929" y="1058" type="curve" smooth="yes"/>
      <point x="887" y="1015"/>
      <point x="853" y="980"/>
      <point x="826" y="954" type="curve" smooth="yes"/>
      <point x="799" y="928"/>
      <point x="760" y="890"/>
      <point x="708" y="841" type="curve" smooth="yes"/>
      <point x="656" y="792"/>
      <point x="617" y="754"/>
      <point x="590" y="728" type="curve" smooth="yes"/>
      <point x="587" y="723"/>
      <point x="587" y="717"/>
      <point x="590" y="712" type="curve" smooth="yes"/>
      <point x="599" y="702"/>
      <point x="617" y="680"/>
      <point x="646" y="646" type="curve" smooth="yes"/>
      <point x="675" y="612"/>
      <point x="694" y="591"/>
      <point x="703" y="580" type="curve" smooth="yes"/>
      <point x="712" y="569"/>
      <point x="730" y="550"/>
      <point x="756" y="520" type="curve" smooth="yes"/>
      <point x="782" y="490"/>
      <point x="799" y="468"/>
      <point x="810" y="456" type="curve" smooth="yes"/>
      <point x="821" y="444"/>
      <point x="837" y="426"/>
      <point x="860" y="400" type="curve" smooth="yes"/>
      <point x="883" y="374"/>
      <point x="900" y="354"/>
      <point x="912" y="341" type="curve" smooth="yes"/>
      <point x="924" y="328"/>
      <point x="941" y="311"/>
      <point x="960" y="290" type="curve" smooth="yes"/>
      <point x="979" y="269"/>
      <point x="996" y="250"/>
      <point x="1010" y="236" type="curve" smooth="yes"/>
      <point x="1024" y="222"/>
      <point x="1040" y="206"/>
      <point x="1056" y="190" type="curve" smooth="yes"/>
      <point x="1072" y="174"/>
      <point x="1088" y="159"/>
      <point x="1103" y="144" type="curve" smooth="yes"/>
      <point x="1132" y="117"/>
      <point x="1163" y="96"/>
      <point x="1196" y="81" type="curve" smooth="yes"/>
      <point x="1229" y="66"/>
      <point x="1270" y="56"/>
      <point x="1321" y="52" type="curve"/>
      <point x="1325" y="45"/>
      <point x="1326" y="34"/>
      <point x="1324" y="20" type="curve" smooth="yes"/>
      <point x="1322" y="6"/>
      <point x="1321" y="-2"/>
      <point x="1319" y="-6" type="curve"/>
      <point x="1172" y="-6"/>
      <point x="1077" y="1"/>
      <point x="1035" y="16" type="curve" smooth="yes"/>
      <point x="983" y="35"/>
      <point x="938" y="63"/>
      <point x="899" y="102" type="curve" smooth="yes"/>
      <point x="862" y="138"/>
      <point x="712" y="307"/>
      <point x="449" y="608" type="curve" smooth="yes"/>
      <point x="446" y="612"/>
      <point x="440" y="614"/>
      <point x="431" y="614" type="curve" smooth="yes"/>
      <point x="424" y="614"/>
      <point x="418" y="613"/>
      <point x="413" y="610" type="curve"/>
      <point x="413" y="238" type="line" smooth="yes"/>
      <point x="413" y="161"/>
      <point x="416" y="111"/>
      <point x="423" y="90" type="curve" smooth="yes"/>
      <point x="426" y="81"/>
      <point x="444" y="73"/>
      <point x="479" y="67" type="curve" smooth="yes"/>
      <point x="514" y="61"/>
      <point x="541" y="58"/>
      <point x="561" y="58" type="curve"/>
      <point x="565" y="53"/>
      <point x="568" y="42"/>
      <point x="568" y="26" type="curve" smooth="yes"/>
      <point x="568" y="10"/>
      <point x="566" y="-1"/>
      <point x="561" y="-6" type="curve"/>
      <point x="424" y="1"/>
      <point x="346" y="4"/>
      <point x="327" y="4" type="curve" smooth="yes"/>
      <point x="306" y="4"/>
      <point x="228" y="1"/>
      <point x="91" y="-6" type="curve"/>
      <point x="86" y="-1"/>
      <point x="84" y="10"/>
      <point x="84" y="26" type="curve" smooth="yes"/>
      <point x="84" y="42"/>
      <point x="87" y="53"/>
      <point x="91" y="58" type="curve"/>
      <point x="111" y="58"/>
      <point x="138" y="61"/>
      <point x="173" y="67" type="curve" smooth="yes"/>
      <point x="208" y="73"/>
      <point x="226" y="81"/>
      <point x="229" y="90" type="curve" smooth="yes"/>
      <point x="236" y="111"/>
      <point x="239" y="161"/>
      <point x="239" y="238" type="curve" smooth="yes"/>
      <point x="239" y="1080" type="line" smooth="yes"/>
      <point x="239" y="1157"/>
      <point x="236" y="1207"/>
      <point x="229" y="1228" type="curve" smooth="yes"/>
      <point x="226" y="1237"/>
      <point x="208" y="1245"/>
      <point x="173" y="1251" type="curve" smooth="yes"/>
      <point x="138" y="1257"/>
      <point x="111" y="1260"/>
      <point x="91" y="1260" type="curve"/>
      <point x="87" y="1265"/>
      <point x="84" y="1276"/>
      <point x="84" y="1292" type="curve" smooth="yes"/>
      <point x="84" y="1308"/>
      <point x="86" y="1319"/>
      <point x="91" y="1324" type="curve"/>
      <point x="228" y="1317"/>
      <point x="306" y="1314"/>
    </contour>
  </outline>
</glyph>
<glyph name="L" format="2">
  <advance width="1128"/>
  <unicode hex="004C"/>
  <outline>
    <contour>
      <point x="413" y="232" type="line" smooth="yes"/>
      <point x="413" y="143"/>
      <point x="417" y="95"/>
      <point x="425" y="88" type="curve" smooth="yes"/>
      <point x="437" y="79"/>
      <point x="452" y="73"/>
      <point x="470" y="71" type="curve" smooth="yes"/>
      <point x="488" y="69"/>
      <point x="520" y="68"/>
      <point x="567" y="68" type="curve" smooth="yes"/>
      <point x="681" y="68" type="line" smooth="yes"/>
      <point x="723" y="68"/>
      <point x="766" y="73"/>
      <point x="810" y="82" type="curve" smooth="yes"/>
      <point x="854" y="91"/>
      <point x="889" y="104"/>
      <point x="915" y="122" type="curve" smooth="yes"/>
      <point x="970" y="159"/>
      <point x="1012" y="227"/>
      <point x="1041" y="324" type="curve" smooth="yes"/>
      <point x="1043" y="332"/>
      <point x="1052" y="336"/>
      <point x="1069" y="336" type="curve" smooth="yes"/>
      <point x="1094" y="336"/>
      <point x="1111" y="332"/>
      <point x="1119" y="324" type="curve"/>
      <point x="1113" y="307"/>
      <point x="1103" y="279"/>
      <point x="1089" y="241" type="curve" smooth="yes"/>
      <point x="1075" y="203"/>
      <point x="1064" y="172"/>
      <point x="1056" y="148" type="curve" smooth="yes"/>
      <point x="1048" y="124"/>
      <point x="1039" y="98"/>
      <point x="1030" y="68" type="curve" smooth="yes"/>
      <point x="1021" y="38"/>
      <point x="1014" y="13"/>
      <point x="1011" y="-8" type="curve"/>
      <point x="942" y="-8"/>
      <point x="835" y="-7"/>
      <point x="688" y="-4" type="curve" smooth="yes"/>
      <point x="541" y="-1"/>
      <point x="422" y="0"/>
      <point x="329" y="0" type="curve" smooth="yes"/>
      <point x="296" y="0"/>
      <point x="255" y="-1"/>
      <point x="204" y="-3" type="curve" smooth="yes"/>
      <point x="153" y="-5"/>
      <point x="116" y="-6"/>
      <point x="91" y="-6" type="curve"/>
      <point x="86" y="-1"/>
      <point x="84" y="9"/>
      <point x="84" y="23" type="curve" smooth="yes"/>
      <point x="84" y="37"/>
      <point x="87" y="47"/>
      <point x="91" y="52" type="curve"/>
      <point x="111" y="52"/>
      <point x="138" y="55"/>
      <point x="173" y="61" type="curve" smooth="yes"/>
      <point x="208" y="67"/>
      <point x="226" y="75"/>
      <point x="229" y="84" type="curve" smooth="yes"/>
      <point x="236" y="105"/>
      <point x="239" y="155"/>
      <point x="239" y="232" type="curve" smooth="yes"/>
      <point x="239" y="1086" type="line" smooth="yes"/>
      <point x="239" y="1163"/>
      <point x="236" y="1213"/>
      <point x="229" y="1234" type="curve" smooth="yes"/>
      <point x="226" y="1243"/>
      <point x="208" y="1251"/>
      <point x="173" y="1257" type="curve" smooth="yes"/>
      <point x="138" y="1263"/>
      <point x="111" y="1266"/>
      <point x="91" y="1266" type="curve"/>
      <point x="87" y="1271"/>
      <point x="84" y="1281"/>
      <point x="84" y="1295" type="curve" smooth="yes"/>
      <point x="84" y="1309"/>
      <point x="86" y="1319"/>
      <point x="91" y="1324" type="curve"/>
      <point x="228" y="1317"/>
      <point x="306" y="1314"/>
      <point x="327" y="1314" type="curve" smooth="yes"/>
      <point x="346" y="1314"/>
      <point x="424" y="1317"/>
      <point x="561" y="1324" type="curve"/>
      <point x="566" y="1319"/>
      <point x="568" y="1309"/>
      <point x="568" y="1295" type="curve" smooth="yes"/>
      <point x="568" y="1281"/>
      <point x="565" y="1271"/>
      <point x="561" y="1266" type="curve"/>
      <point x="541" y="1266"/>
      <point x="514" y="1263"/>
      <point x="479" y="1257" type="curve" smooth="yes"/>
      <point x="444" y="1251"/>
      <point x="426" y="1243"/>
      <point x="423" y="1234" type="curve" smooth="yes"/>
      <point x="416" y="1212"/>
      <point x="413" y="1173"/>
      <point x="413" y="1116" type="curve" smooth="yes"/>
      <point x="413" y="1102"/>
      <point x="413" y="1102"/>
      <point x="413" y="1086" type="curve" smooth="yes"/>
    </contour>
  </outline>
</glyph>
<glyph name="R" format="2">
  <advance width="1242"/>
  <unicode hex="0052"/>
  <outline>
    <contour>
      <point x="830" y="954" type="curve" smooth="yes"/>
      <point x="830" y="1047"/>
      <point x="806" y="1120"/>
      <point x="756" y="1174" type="curve" smooth="yes"/>
      <point x="706" y="1228"/>
      <point x="628" y="1254"/>
      <point x="522" y="1254" type="curve" smooth="yes"/>
      <point x="461" y="1254"/>
      <point x="428" y="1247"/>
      <point x="422" y="1234" type="curve" smooth="yes"/>
      <point x="415" y="1218"/>
      <point x="412" y="1168"/>
      <point x="412" y="1084" type="curve" smooth="yes"/>
      <point x="413" y="666" type="line"/>
      <point x="520" y="666" type="line" smooth="yes"/>
      <point x="602" y="666"/>
      <point x="674" y="692"/>
      <point x="736" y="746" type="curve" smooth="yes"/>
      <point x="798" y="800"/>
      <point x="830" y="869"/>
    </contour>
    <contour>
      <point x="610" y="1318" type="curve" smooth="yes"/>
      <point x="657" y="1318"/>
      <point x="703" y="1311"/>
      <point x="750" y="1296" type="curve" smooth="yes"/>
      <point x="797" y="1281"/>
      <point x="842" y="1259"/>
      <point x="882" y="1231" type="curve" smooth="yes"/>
      <point x="922" y="1203"/>
      <point x="955" y="1167"/>
      <point x="980" y="1122" type="curve" smooth="yes"/>
      <point x="1005" y="1077"/>
      <point x="1017" y="1027"/>
      <point x="1017" y="972" type="curve" smooth="yes"/>
      <point x="1017" y="903"/>
      <point x="990" y="838"/>
      <point x="934" y="774" type="curve" smooth="yes"/>
      <point x="878" y="710"/>
      <point x="815" y="666"/>
      <point x="744" y="642" type="curve"/>
      <point x="830" y="499"/>
      <point x="938" y="342"/>
      <point x="1067" y="172" type="curve" smooth="yes"/>
      <point x="1097" y="133"/>
      <point x="1128" y="104"/>
      <point x="1162" y="86" type="curve" smooth="yes"/>
      <point x="1196" y="68"/>
      <point x="1240" y="56"/>
      <point x="1293" y="52" type="curve"/>
      <point x="1297" y="45"/>
      <point x="1298" y="34"/>
      <point x="1296" y="20" type="curve" smooth="yes"/>
      <point x="1294" y="6"/>
      <point x="1293" y="-2"/>
      <point x="1291" y="-6" type="curve"/>
      <point x="1161" y="-6"/>
      <point x="1073" y="2"/>
      <point x="1027" y="18" type="curve" smooth="yes"/>
      <point x="984" y="33"/>
      <point x="952" y="51"/>
      <point x="929" y="72" type="curve" smooth="yes"/>
      <point x="918" y="82"/>
      <point x="907" y="93"/>
      <point x="897" y="106" type="curve" smooth="yes"/>
      <point x="880" y="129"/>
      <point x="836" y="192"/>
      <point x="768" y="293" type="curve" smooth="yes"/>
      <point x="700" y="394"/>
      <point x="637" y="490"/>
      <point x="579" y="580" type="curve" smooth="yes"/>
      <point x="568" y="596"/>
      <point x="548" y="604"/>
      <point x="519" y="604" type="curve" smooth="yes"/>
      <point x="413" y="604" type="line"/>
      <point x="413" y="232" type="line" smooth="yes"/>
      <point x="413" y="155"/>
      <point x="416" y="105"/>
      <point x="423" y="84" type="curve" smooth="yes"/>
      <point x="426" y="75"/>
      <point x="444" y="67"/>
      <point x="479" y="61" type="curve" smooth="yes"/>
      <point x="514" y="55"/>
      <point x="541" y="52"/>
      <point x="561" y="52" type="curve"/>
      <point x="565" y="47"/>
      <point x="568" y="37"/>
      <point x="568" y="23" type="curve" smooth="yes"/>
      <point x="568" y="9"/>
      <point x="566" y="-1"/>
      <point x="561" y="-6" type="curve"/>
      <point x="424" y="1"/>
      <point x="346" y="4"/>
      <point x="327" y="4" type="curve" smooth="yes"/>
      <point x="306" y="4"/>
      <point x="228" y="1"/>
      <point x="91" y="-6" type="curve"/>
      <point x="86" y="-1"/>
      <point x="84" y="9"/>
      <point x="84" y="23" type="curve" smooth="yes"/>
      <point x="84" y="37"/>
      <point x="87" y="47"/>
      <point x="91" y="52" type="curve"/>
      <point x="111" y="52"/>
      <point x="138" y="55"/>
      <point x="173" y="61" type="curve" smooth="yes"/>
      <point x="208" y="67"/>
      <point x="226" y="75"/>
      <point x="229" y="84" type="curve" smooth="yes"/>
      <point x="234" y="101"/>
      <point x="238" y="150"/>
      <point x="239" y="232" type="curve" smooth="yes"/>
      <point x="238" y="1086" type="line" smooth="yes"/>
      <point x="238" y="1163"/>
      <point x="235" y="1213"/>
      <point x="228" y="1234" type="curve" smooth="yes"/>
      <point x="225" y="1243"/>
      <point x="207" y="1251"/>
      <point x="172" y="1257" type="curve" smooth="yes"/>
      <point x="137" y="1263"/>
      <point x="110" y="1266"/>
      <point x="90" y="1266" type="curve"/>
      <point x="86" y="1271"/>
      <point x="84" y="1281"/>
      <point x="84" y="1295" type="curve" smooth="yes"/>
      <point x="84" y="1309"/>
      <point x="85" y="1319"/>
      <point x="90" y="1324" type="curve"/>
      <point x="227" y="1317"/>
      <point x="305" y="1314"/>
      <point x="326" y="1314" type="curve" smooth="yes"/>
      <point x="349" y="1314"/>
      <point x="391" y="1315"/>
      <point x="453" y="1316" type="curve" smooth="yes"/>
      <point x="515" y="1317"/>
      <point x="567" y="1318"/>
    </contour>
  </outline>
</glyph>
<glyph name="U" format="2">
  <advance width="1446"/>
  <unicode hex="0055"/>
  <outline>
    <contour>
      <point x="295" y="1314" type="curve" smooth="yes"/>
      <point x="314" y="1314"/>
      <point x="392" y="1317"/>
      <point x="529" y="1324" type="curve"/>
      <point x="534" y="1319"/>
      <point x="536" y="1309"/>
      <point x="536" y="1295" type="curve" smooth="yes"/>
      <point x="536" y="1281"/>
      <point x="533" y="1271"/>
      <point x="529" y="1266" type="curve"/>
      <point x="509" y="1266"/>
      <point x="482" y="1263"/>
      <point x="447" y="1257" type="curve" smooth="yes"/>
      <point x="412" y="1251"/>
      <point x="394" y="1243"/>
      <point x="391" y="1234" type="curve" smooth="yes"/>
      <point x="384" y="1213"/>
      <point x="381" y="1163"/>
      <point x="381" y="1086" type="curve" smooth="yes"/>
      <point x="381" y="592" type="line" smooth="yes"/>
      <point x="381" y="428"/>
      <point x="414" y="305"/>
      <point x="479" y="224" type="curve" smooth="yes"/>
      <point x="542" y="147"/>
      <point x="633" y="108"/>
      <point x="753" y="108" type="curve" smooth="yes"/>
      <point x="1006" y="108"/>
      <point x="1136" y="255"/>
      <point x="1141" y="548" type="curve"/>
      <point x="1141" y="1090" type="line" smooth="yes"/>
      <point x="1141" y="1131"/>
      <point x="1140" y="1161"/>
      <point x="1138" y="1179" type="curve" smooth="yes"/>
      <point x="1136" y="1197"/>
      <point x="1130" y="1213"/>
      <point x="1121" y="1228" type="curve" smooth="yes"/>
      <point x="1116" y="1237"/>
      <point x="1096" y="1246"/>
      <point x="1060" y="1255" type="curve" smooth="yes"/>
      <point x="1024" y="1264"/>
      <point x="996" y="1268"/>
      <point x="977" y="1268" type="curve"/>
      <point x="972" y="1275"/>
      <point x="970" y="1285"/>
      <point x="970" y="1298" type="curve" smooth="yes"/>
      <point x="970" y="1311"/>
      <point x="970" y="1321"/>
      <point x="973" y="1326" type="curve"/>
      <point x="1106" y="1319"/>
      <point x="1180" y="1316"/>
      <point x="1195" y="1316" type="curve" smooth="yes"/>
      <point x="1222" y="1316"/>
      <point x="1247" y="1317"/>
      <point x="1268" y="1318" type="curve" smooth="yes"/>
      <point x="1289" y="1319"/>
      <point x="1312" y="1320"/>
      <point x="1337" y="1322" type="curve" smooth="yes"/>
      <point x="1362" y="1324"/>
      <point x="1386" y="1325"/>
      <point x="1409" y="1326" type="curve"/>
      <point x="1419" y="1309"/>
      <point x="1419" y="1290"/>
      <point x="1409" y="1268" type="curve"/>
      <point x="1390" y="1268"/>
      <point x="1362" y="1264"/>
      <point x="1322" y="1256" type="curve" smooth="yes"/>
      <point x="1282" y="1248"/>
      <point x="1259" y="1239"/>
      <point x="1253" y="1228" type="curve" smooth="yes"/>
      <point x="1244" y="1214"/>
      <point x="1238" y="1198"/>
      <point x="1236" y="1180" type="curve" smooth="yes"/>
      <point x="1234" y="1162"/>
      <point x="1233" y="1133"/>
      <point x="1233" y="1092" type="curve" smooth="yes"/>
      <point x="1233" y="552" type="line" smooth="yes"/>
      <point x="1233" y="360"/>
      <point x="1187" y="219"/>
      <point x="1095" y="128" type="curve" smooth="yes"/>
      <point x="1003" y="37"/>
      <point x="875" y="-8"/>
      <point x="711" y="-8" type="curve" smooth="yes"/>
      <point x="565" y="-8"/>
      <point x="446" y="36"/>
      <point x="354" y="124" type="curve" smooth="yes"/>
      <point x="256" y="217"/>
      <point x="207" y="343"/>
      <point x="207" y="502" type="curve" smooth="yes"/>
      <point x="207" y="1086" type="line" smooth="yes"/>
      <point x="207" y="1163"/>
      <point x="204" y="1213"/>
      <point x="197" y="1234" type="curve" smooth="yes"/>
      <point x="194" y="1243"/>
      <point x="176" y="1251"/>
      <point x="141" y="1257" type="curve" smooth="yes"/>
      <point x="106" y="1263"/>
      <point x="79" y="1266"/>
      <point x="59" y="1266" type="curve"/>
      <point x="55" y="1271"/>
      <point x="52" y="1281"/>
      <point x="52" y="1295" type="curve" smooth="yes"/>
      <point x="52" y="1309"/>
      <point x="54" y="1319"/>
      <point x="59" y="1324" type="curve"/>
      <point x="196" y="1317"/>
      <point x="274" y="1314"/>
    </contour>
  </outline>
</glyph>
<glyph name="W" format="2">
  <advance width="1800"/>
  <unicode hex="0057"/>
  <outline>
    <contour>
      <point x="235" y="1314" type="curve" smooth="yes"/>
      <point x="261" y="1314"/>
      <point x="285" y="1315"/>
      <point x="308" y="1316" type="curve" smooth="yes"/>
      <point x="331" y="1317"/>
      <point x="356" y="1318"/>
      <point x="384" y="1320" type="curve" smooth="yes"/>
      <point x="412" y="1322"/>
      <point x="434" y="1323"/>
      <point x="451" y="1324" type="curve"/>
      <point x="453" y="1318"/>
      <point x="454" y="1307"/>
      <point x="454" y="1291" type="curve" smooth="yes"/>
      <point x="454" y="1275"/>
      <point x="451" y="1267"/>
      <point x="447" y="1266" type="curve" smooth="yes"/>
      <point x="441" y="1266"/>
      <point x="432" y="1266"/>
      <point x="421" y="1264" type="curve" smooth="yes"/>
      <point x="410" y="1262"/>
      <point x="397" y="1258"/>
      <point x="382" y="1254" type="curve" smooth="yes"/>
      <point x="367" y="1250"/>
      <point x="354" y="1244"/>
      <point x="343" y="1234" type="curve" smooth="yes"/>
      <point x="332" y="1224"/>
      <point x="327" y="1213"/>
      <point x="327" y="1200" type="curve" smooth="yes"/>
      <point x="327" y="1187"/>
      <point x="337" y="1144"/>
      <point x="357" y="1070" type="curve" smooth="yes"/>
      <point x="374" y="1009"/>
      <point x="411" y="885"/>
      <point x="468" y="698" type="curve" smooth="yes"/>
      <point x="525" y="511"/>
      <point x="566" y="377"/>
      <point x="590" y="296" type="curve"/>
      <point x="623" y="407"/>
      <point x="677" y="580"/>
      <point x="752" y="816" type="curve" smooth="yes"/>
      <point x="827" y="1052"/>
      <point x="874" y="1199"/>
      <point x="892" y="1258" type="curve" smooth="yes"/>
      <point x="897" y="1276"/>
      <point x="908" y="1291"/>
      <point x="923" y="1304" type="curve" smooth="yes"/>
      <point x="938" y="1317"/>
      <point x="952" y="1324"/>
      <point x="964" y="1324" type="curve" smooth="yes"/>
      <point x="970" y="1324"/>
      <point x="978" y="1313"/>
      <point x="988" y="1292" type="curve" smooth="yes"/>
      <point x="1163" y="740"/>
      <point x="1269" y="410"/>
      <point x="1306" y="302" type="curve"/>
      <point x="1325" y="371"/>
      <point x="1350" y="455"/>
      <point x="1378" y="554" type="curve" smooth="yes"/>
      <point x="1406" y="653"/>
      <point x="1430" y="739"/>
      <point x="1451" y="812" type="curve" smooth="yes"/>
      <point x="1472" y="885"/>
      <point x="1493" y="964"/>
      <point x="1515" y="1048" type="curve" smooth="yes"/>
      <point x="1531" y="1112"/>
      <point x="1539" y="1159"/>
      <point x="1539" y="1188" type="curve" smooth="yes"/>
      <point x="1539" y="1203"/>
      <point x="1534" y="1216"/>
      <point x="1522" y="1227" type="curve" smooth="yes"/>
      <point x="1510" y="1238"/>
      <point x="1496" y="1247"/>
      <point x="1480" y="1252" type="curve" smooth="yes"/>
      <point x="1464" y="1257"/>
      <point x="1448" y="1260"/>
      <point x="1435" y="1262" type="curve" smooth="yes"/>
      <point x="1422" y="1264"/>
      <point x="1411" y="1266"/>
      <point x="1403" y="1266" type="curve" smooth="yes"/>
      <point x="1398" y="1268"/>
      <point x="1396" y="1276"/>
      <point x="1396" y="1292" type="curve" smooth="yes"/>
      <point x="1396" y="1308"/>
      <point x="1398" y="1319"/>
      <point x="1403" y="1324" type="curve"/>
      <point x="1526" y="1317"/>
      <point x="1598" y="1314"/>
      <point x="1619" y="1314" type="curve" smooth="yes"/>
      <point x="1646" y="1314"/>
      <point x="1669" y="1315"/>
      <point x="1688" y="1316" type="curve" smooth="yes"/>
      <point x="1707" y="1317"/>
      <point x="1727" y="1318"/>
      <point x="1748" y="1320" type="curve" smooth="yes"/>
      <point x="1769" y="1322"/>
      <point x="1790" y="1323"/>
      <point x="1809" y="1324" type="curve"/>
      <point x="1812" y="1319"/>
      <point x="1813" y="1308"/>
      <point x="1812" y="1291" type="curve" smooth="yes"/>
      <point x="1811" y="1274"/>
      <point x="1808" y="1266"/>
      <point x="1805" y="1266" type="curve" smooth="yes"/>
      <point x="1794" y="1266"/>
      <point x="1774" y="1261"/>
      <point x="1746" y="1251" type="curve" smooth="yes"/>
      <point x="1718" y="1241"/>
      <point x="1695" y="1229"/>
      <point x="1678" y="1214" type="curve" smooth="yes"/>
      <point x="1653" y="1193"/>
      <point x="1629" y="1143"/>
      <point x="1606" y="1062" type="curve" smooth="yes"/>
      <point x="1575" y="957"/>
      <point x="1529" y="796"/>
      <point x="1468" y="582" type="curve" smooth="yes"/>
      <point x="1407" y="368"/>
      <point x="1358" y="195"/>
      <point x="1319" y="64" type="curve" smooth="yes"/>
      <point x="1314" y="47"/>
      <point x="1304" y="31"/>
      <point x="1288" y="17" type="curve" smooth="yes"/>
      <point x="1272" y="3"/>
      <point x="1256" y="-4"/>
      <point x="1243" y="-4" type="curve" smooth="yes"/>
      <point x="1240" y="-4"/>
      <point x="1236" y="0"/>
      <point x="1232" y="8" type="curve" smooth="yes"/>
      <point x="1228" y="16"/>
      <point x="1224" y="23"/>
      <point x="1223" y="28" type="curve" smooth="yes"/>
      <point x="1204" y="82"/>
      <point x="1181" y="153"/>
      <point x="1152" y="240" type="curve" smooth="yes"/>
      <point x="1064" y="504" type="line" smooth="yes"/>
      <point x="1035" y="591"/>
      <point x="1008" y="674"/>
      <point x="983" y="751" type="curve" smooth="yes"/>
      <point x="958" y="828"/>
      <point x="937" y="893"/>
      <point x="920" y="944" type="curve" smooth="yes"/>
      <point x="920" y="944"/>
      <point x="920" y="944"/>
      <point x="896" y="1016" type="curve"/>
      <point x="861" y="899"/>
      <point x="810" y="742"/>
      <point x="746" y="544" type="curve" smooth="yes"/>
      <point x="682" y="346"/>
      <point x="632" y="187"/>
      <point x="595" y="64" type="curve" smooth="yes"/>
      <point x="590" y="47"/>
      <point x="580" y="31"/>
      <point x="564" y="17" type="curve" smooth="yes"/>
      <point x="548" y="3"/>
      <point x="532" y="-4"/>
      <point x="519" y="-4" type="curve" smooth="yes"/>
      <point x="516" y="-4"/>
      <point x="512" y="0"/>
      <point x="508" y="8" type="curve" smooth="yes"/>
      <point x="504" y="16"/>
      <point x="500" y="23"/>
      <point x="499" y="28" type="curve" smooth="yes"/>
      <point x="454" y="170"/>
      <point x="396" y="358"/>
      <point x="324" y="592" type="curve" smooth="yes"/>
      <point x="252" y="826"/>
      <point x="204" y="983"/>
      <point x="179" y="1064" type="curve" smooth="yes"/>
      <point x="178" y="1069"/>
      <point x="175" y="1080"/>
      <point x="170" y="1096" type="curve" smooth="yes"/>
      <point x="165" y="1112"/>
      <point x="162" y="1122"/>
      <point x="161" y="1126" type="curve" smooth="yes"/>
      <point x="160" y="1130"/>
      <point x="157" y="1138"/>
      <point x="153" y="1150" type="curve" smooth="yes"/>
      <point x="149" y="1162"/>
      <point x="146" y="1170"/>
      <point x="144" y="1174" type="curve" smooth="yes"/>
      <point x="142" y="1178"/>
      <point x="138" y="1184"/>
      <point x="134" y="1192" type="curve" smooth="yes"/>
      <point x="130" y="1200"/>
      <point x="126" y="1205"/>
      <point x="122" y="1210" type="curve" smooth="yes"/>
      <point x="118" y="1215"/>
      <point x="112" y="1221"/>
      <point x="107" y="1226" type="curve" smooth="yes"/>
      <point x="94" y="1238"/>
      <point x="75" y="1248"/>
      <point x="50" y="1255" type="curve" smooth="yes"/>
      <point x="25" y="1262"/>
      <point x="6" y="1266"/>
      <point x="-9" y="1266" type="curve" smooth="yes"/>
      <point x="-11" y="1266"/>
      <point x="-12" y="1276"/>
      <point x="-12" y="1294" type="curve" smooth="yes"/>
      <point x="-12" y="1312"/>
      <point x="-11" y="1322"/>
      <point x="-9" y="1324" type="curve" smooth="yes"/>
      <point x="144" y="1317"/>
      <point x="226" y="1314"/>
    </contour>
  </outline>
</glyph>
<glyph name="X" format="2">
  <advance width="1336"/>
  <unicode hex="0058"/>
  <outline>
    <contour>
      <point x="319" y="1314" type="curve" smooth="yes"/>
      <point x="356" y="1314"/>
      <point x="442" y="1317"/>
      <point x="575" y="1324" type="curve"/>
      <point x="578" y="1318"/>
      <point x="578" y="1306"/>
      <point x="578" y="1290" type="curve" smooth="yes"/>
      <point x="578" y="1274"/>
      <point x="576" y="1266"/>
      <point x="571" y="1266" type="curve" smooth="yes"/>
      <point x="558" y="1266"/>
      <point x="544" y="1265"/>
      <point x="527" y="1262" type="curve" smooth="yes"/>
      <point x="510" y="1259"/>
      <point x="493" y="1252"/>
      <point x="476" y="1242" type="curve" smooth="yes"/>
      <point x="459" y="1232"/>
      <point x="451" y="1218"/>
      <point x="451" y="1202" type="curve" smooth="yes"/>
      <point x="451" y="1185"/>
      <point x="459" y="1165"/>
      <point x="475" y="1142" type="curve" smooth="yes"/>
      <point x="707" y="786" type="line"/>
      <point x="728" y="815"/>
      <point x="757" y="854"/>
      <point x="794" y="902" type="curve" smooth="yes"/>
      <point x="831" y="950"/>
      <point x="859" y="988"/>
      <point x="880" y="1016" type="curve" smooth="yes"/>
      <point x="901" y="1044"/>
      <point x="923" y="1072"/>
      <point x="946" y="1104" type="curve" smooth="yes"/>
      <point x="969" y="1136"/>
      <point x="986" y="1161"/>
      <point x="998" y="1180" type="curve" smooth="yes"/>
      <point x="1004" y="1189"/>
      <point x="1007" y="1200"/>
      <point x="1007" y="1212" type="curve" smooth="yes"/>
      <point x="1007" y="1219"/>
      <point x="1004" y="1227"/>
      <point x="998" y="1234" type="curve" smooth="yes"/>
      <point x="992" y="1241"/>
      <point x="977" y="1247"/>
      <point x="956" y="1254" type="curve" smooth="yes"/>
      <point x="935" y="1261"/>
      <point x="907" y="1264"/>
      <point x="872" y="1264" type="curve" smooth="yes"/>
      <point x="868" y="1265"/>
      <point x="865" y="1272"/>
      <point x="864" y="1288" type="curve" smooth="yes"/>
      <point x="863" y="1304"/>
      <point x="865" y="1315"/>
      <point x="868" y="1322" type="curve"/>
      <point x="957" y="1315"/>
      <point x="1026" y="1312"/>
      <point x="1075" y="1312" type="curve" smooth="yes"/>
      <point x="1142" y="1312"/>
      <point x="1215" y="1315"/>
      <point x="1295" y="1322" type="curve"/>
      <point x="1298" y="1317"/>
      <point x="1300" y="1308"/>
      <point x="1300" y="1294" type="curve" smooth="yes"/>
      <point x="1300" y="1280"/>
      <point x="1296" y="1269"/>
      <point x="1291" y="1264" type="curve"/>
      <point x="1281" y="1264"/>
      <point x="1267" y="1263"/>
      <point x="1250" y="1260" type="curve" smooth="yes"/>
      <point x="1233" y="1257"/>
      <point x="1210" y="1248"/>
      <point x="1182" y="1235" type="curve" smooth="yes"/>
      <point x="1154" y="1222"/>
      <point x="1131" y="1205"/>
      <point x="1113" y="1184" type="curve" smooth="yes"/>
      <point x="992" y="1040"/>
      <point x="869" y="885"/>
      <point x="745" y="720" type="curve"/>
      <point x="1139" y="132" type="line" smooth="yes"/>
      <point x="1156" y="105"/>
      <point x="1184" y="85"/>
      <point x="1222" y="72" type="curve" smooth="yes"/>
      <point x="1260" y="59"/>
      <point x="1297" y="52"/>
      <point x="1335" y="52" type="curve"/>
      <point x="1338" y="46"/>
      <point x="1340" y="36"/>
      <point x="1340" y="21" type="curve" smooth="yes"/>
      <point x="1340" y="6"/>
      <point x="1338" y="-3"/>
      <point x="1337" y="-6" type="curve" smooth="yes"/>
      <point x="1319" y="-5"/>
      <point x="1296" y="-4"/>
      <point x="1270" y="-2" type="curve" smooth="yes"/>
      <point x="1244" y="0"/>
      <point x="1221" y="1"/>
      <point x="1200" y="2" type="curve" smooth="yes"/>
      <point x="1179" y="3"/>
      <point x="1156" y="4"/>
      <point x="1131" y="4" type="curve" smooth="yes"/>
      <point x="1098" y="4"/>
      <point x="1066" y="3"/>
      <point x="1036" y="2" type="curve" smooth="yes"/>
      <point x="1006" y="1"/>
      <point x="972" y="0"/>
      <point x="934" y="-2" type="curve" smooth="yes"/>
      <point x="896" y="-4"/>
      <point x="864" y="-5"/>
      <point x="839" y="-6" type="curve"/>
      <point x="834" y="-1"/>
      <point x="832" y="10"/>
      <point x="832" y="27" type="curve" smooth="yes"/>
      <point x="832" y="44"/>
      <point x="834" y="52"/>
      <point x="839" y="52" type="curve" smooth="yes"/>
      <point x="857" y="52"/>
      <point x="880" y="58"/>
      <point x="910" y="68" type="curve" smooth="yes"/>
      <point x="940" y="78"/>
      <point x="955" y="91"/>
      <point x="955" y="108" type="curve" smooth="yes"/>
      <point x="955" y="111"/>
      <point x="952" y="119"/>
      <point x="945" y="132" type="curve" smooth="yes"/>
      <point x="640" y="602" type="line"/>
      <point x="576" y="517"/>
      <point x="508" y="424"/>
      <point x="437" y="323" type="curve" smooth="yes"/>
      <point x="366" y="222"/>
      <point x="323" y="159"/>
      <point x="309" y="132" type="curve" smooth="yes"/>
      <point x="302" y="112"/>
      <point x="299" y="101"/>
      <point x="299" y="100" type="curve" smooth="yes"/>
      <point x="299" y="91"/>
      <point x="304" y="83"/>
      <point x="314" y="76" type="curve" smooth="yes"/>
      <point x="324" y="69"/>
      <point x="340" y="64"/>
      <point x="364" y="59" type="curve" smooth="yes"/>
      <point x="388" y="54"/>
      <point x="418" y="52"/>
      <point x="453" y="52" type="curve"/>
      <point x="457" y="47"/>
      <point x="460" y="36"/>
      <point x="460" y="21" type="curve" smooth="yes"/>
      <point x="460" y="6"/>
      <point x="459" y="-3"/>
      <point x="457" y="-6" type="curve" smooth="yes"/>
      <point x="334" y="1"/>
      <point x="258" y="4"/>
      <point x="231" y="4" type="curve" smooth="yes"/>
      <point x="200" y="4"/>
      <point x="118" y="1"/>
      <point x="-15" y="-6" type="curve"/>
      <point x="-18" y="1"/>
      <point x="-18" y="12"/>
      <point x="-17" y="26" type="curve" smooth="yes"/>
      <point x="-16" y="40"/>
      <point x="-14" y="49"/>
      <point x="-11" y="52" type="curve" smooth="yes"/>
      <point x="12" y="52"/>
      <point x="47" y="59"/>
      <point x="95" y="73" type="curve" smooth="yes"/>
      <point x="143" y="87"/>
      <point x="179" y="109"/>
      <point x="203" y="140" type="curve" smooth="yes"/>
      <point x="248" y="197"/>
      <point x="291" y="254"/>
      <point x="333" y="310" type="curve" smooth="yes"/>
      <point x="375" y="366"/>
      <point x="421" y="429"/>
      <point x="470" y="496" type="curve" smooth="yes"/>
      <point x="519" y="563"/>
      <point x="561" y="619"/>
      <point x="595" y="664" type="curve"/>
      <point x="313" y="1096" type="line" smooth="yes"/>
      <point x="289" y="1133"/>
      <point x="268" y="1162"/>
      <point x="250" y="1182" type="curve" smooth="yes"/>
      <point x="232" y="1202"/>
      <point x="208" y="1219"/>
      <point x="181" y="1234" type="curve" smooth="yes"/>
      <point x="165" y="1243"/>
      <point x="146" y="1251"/>
      <point x="123" y="1257" type="curve" smooth="yes"/>
      <point x="100" y="1263"/>
      <point x="82" y="1266"/>
      <point x="69" y="1266" type="curve" smooth="yes"/>
      <point x="64" y="1266"/>
      <point x="62" y="1274"/>
      <point x="62" y="1291" type="curve" smooth="yes"/>
      <point x="62" y="1308"/>
      <point x="64" y="1319"/>
      <point x="69" y="1324" type="curve"/>
      <point x="92" y="1323"/>
      <point x="119" y="1322"/>
      <point x="151" y="1320" type="curve" smooth="yes"/>
      <point x="183" y="1318"/>
      <point x="212" y="1317"/>
      <point x="237" y="1316" type="curve" smooth="yes"/>
      <point x="262" y="1315"/>
      <point x="290" y="1314"/>
    </contour>
  </outline>
</glyph>
<glyph name="Y" format="2">
  <advance width="1196"/>
  <unicode hex="0059"/>
  <outline>
    <contour>
      <point x="522" y="232" type="curve" smooth="yes"/>
      <point x="522" y="534" type="line" smooth="yes"/>
      <point x="522" y="553"/>
      <point x="517" y="571"/>
      <point x="508" y="590" type="curve" smooth="yes"/>
      <point x="467" y="665"/>
      <point x="418" y="753"/>
      <point x="362" y="852" type="curve" smooth="yes"/>
      <point x="306" y="951"/>
      <point x="259" y="1033"/>
      <point x="224" y="1096" type="curve" smooth="yes"/>
      <point x="203" y="1132"/>
      <point x="183" y="1160"/>
      <point x="164" y="1180" type="curve" smooth="yes"/>
      <point x="145" y="1200"/>
      <point x="121" y="1217"/>
      <point x="92" y="1234" type="curve" smooth="yes"/>
      <point x="76" y="1243"/>
      <point x="57" y="1251"/>
      <point x="34" y="1257" type="curve" smooth="yes"/>
      <point x="11" y="1263"/>
      <point x="-7" y="1266"/>
      <point x="-20" y="1266" type="curve" smooth="yes"/>
      <point x="-25" y="1266"/>
      <point x="-28" y="1274"/>
      <point x="-28" y="1291" type="curve" smooth="yes"/>
      <point x="-28" y="1308"/>
      <point x="-25" y="1319"/>
      <point x="-20" y="1324" type="curve"/>
      <point x="3" y="1323"/>
      <point x="30" y="1322"/>
      <point x="62" y="1320" type="curve" smooth="yes"/>
      <point x="94" y="1318"/>
      <point x="123" y="1317"/>
      <point x="148" y="1316" type="curve" smooth="yes"/>
      <point x="173" y="1315"/>
      <point x="201" y="1314"/>
      <point x="230" y="1314" type="curve" smooth="yes"/>
      <point x="267" y="1314"/>
      <point x="353" y="1317"/>
      <point x="486" y="1324" type="curve"/>
      <point x="489" y="1318"/>
      <point x="490" y="1306"/>
      <point x="490" y="1290" type="curve" smooth="yes"/>
      <point x="490" y="1274"/>
      <point x="487" y="1266"/>
      <point x="482" y="1266" type="curve" smooth="yes"/>
      <point x="469" y="1266"/>
      <point x="455" y="1265"/>
      <point x="438" y="1262" type="curve" smooth="yes"/>
      <point x="421" y="1259"/>
      <point x="405" y="1252"/>
      <point x="388" y="1242" type="curve" smooth="yes"/>
      <point x="371" y="1232"/>
      <point x="362" y="1218"/>
      <point x="362" y="1202" type="curve" smooth="yes"/>
      <point x="362" y="1188"/>
      <point x="370" y="1168"/>
      <point x="386" y="1142" type="curve" smooth="yes"/>
      <point x="664" y="662" type="line"/>
      <point x="709" y="743"/>
      <point x="760" y="840"/>
      <point x="816" y="952" type="curve" smooth="yes"/>
      <point x="872" y="1064"/>
      <point x="907" y="1139"/>
      <point x="924" y="1180" type="curve" smooth="yes"/>
      <point x="928" y="1189"/>
      <point x="930" y="1199"/>
      <point x="930" y="1210" type="curve" smooth="yes"/>
      <point x="930" y="1218"/>
      <point x="927" y="1226"/>
      <point x="920" y="1233" type="curve" smooth="yes"/>
      <point x="913" y="1240"/>
      <point x="898" y="1247"/>
      <point x="876" y="1254" type="curve" smooth="yes"/>
      <point x="854" y="1261"/>
      <point x="825" y="1264"/>
      <point x="790" y="1264" type="curve" smooth="yes"/>
      <point x="787" y="1264"/>
      <point x="785" y="1273"/>
      <point x="784" y="1291" type="curve" smooth="yes"/>
      <point x="783" y="1309"/>
      <point x="784" y="1319"/>
      <point x="786" y="1322" type="curve" smooth="yes"/>
      <point x="909" y="1315"/>
      <point x="976" y="1312"/>
      <point x="986" y="1312" type="curve" smooth="yes"/>
      <point x="1017" y="1312"/>
      <point x="1045" y="1313"/>
      <point x="1068" y="1314" type="curve" smooth="yes"/>
      <point x="1091" y="1315"/>
      <point x="1115" y="1316"/>
      <point x="1141" y="1318" type="curve" smooth="yes"/>
      <point x="1167" y="1320"/>
      <point x="1189" y="1321"/>
      <point x="1206" y="1322" type="curve"/>
      <point x="1208" y="1316"/>
      <point x="1209" y="1304"/>
      <point x="1208" y="1288" type="curve" smooth="yes"/>
      <point x="1207" y="1272"/>
      <point x="1205" y="1264"/>
      <point x="1202" y="1264" type="curve" smooth="yes"/>
      <point x="1193" y="1264"/>
      <point x="1182" y="1263"/>
      <point x="1172" y="1262" type="curve" smooth="yes"/>
      <point x="1162" y="1261"/>
      <point x="1147" y="1258"/>
      <point x="1126" y="1254" type="curve" smooth="yes"/>
      <point x="1105" y="1250"/>
      <point x="1086" y="1242"/>
      <point x="1068" y="1230" type="curve" smooth="yes"/>
      <point x="1050" y="1218"/>
      <point x="1035" y="1203"/>
      <point x="1024" y="1184" type="curve" smooth="yes"/>
      <point x="983" y="1113"/>
      <point x="878" y="919"/>
      <point x="708" y="602" type="curve" smooth="yes"/>
      <point x="701" y="590"/>
      <point x="698" y="569"/>
      <point x="698" y="540" type="curve" smooth="yes"/>
      <point x="696" y="232" type="line" smooth="yes"/>
      <point x="696" y="155"/>
      <point x="699" y="105"/>
      <point x="706" y="84" type="curve" smooth="yes"/>
      <point x="709" y="75"/>
      <point x="727" y="67"/>
      <point x="762" y="61" type="curve" smooth="yes"/>
      <point x="797" y="55"/>
      <point x="824" y="52"/>
      <point x="844" y="52" type="curve"/>
      <point x="848" y="47"/>
      <point x="850" y="37"/>
      <point x="850" y="23" type="curve" smooth="yes"/>
      <point x="850" y="9"/>
      <point x="849" y="-1"/>
      <point x="844" y="-6" type="curve"/>
      <point x="707" y="1"/>
      <point x="629" y="4"/>
      <point x="610" y="4" type="curve" smooth="yes"/>
      <point x="589" y="4"/>
      <point x="511" y="1"/>
      <point x="374" y="-6" type="curve"/>
      <point x="369" y="-1"/>
      <point x="368" y="9"/>
      <point x="368" y="23" type="curve" smooth="yes"/>
      <point x="368" y="37"/>
      <point x="370" y="47"/>
      <point x="374" y="52" type="curve"/>
      <point x="394" y="52"/>
      <point x="421" y="55"/>
      <point x="456" y="61" type="curve" smooth="yes"/>
      <point x="491" y="67"/>
      <point x="509" y="75"/>
      <point x="512" y="84" type="curve" smooth="yes"/>
      <point x="519" y="105"/>
      <point x="522" y="155"/>
    </contour>
  </outline>
</glyph>
<glyph name="Z" format="2">
  <advance width="1266"/>
  <unicode hex="005A"/>
  <outline>
    <contour>
      <point x="432" y="1252" type="line" smooth="yes"/>
      <point x="365" y="1252"/>
      <point x="309" y="1230"/>
      <point x="263" y="1184" type="curve" smooth="yes"/>
      <point x="217" y="1138"/>
      <point x="183" y="1073"/>
      <point x="160" y="990" type="curve" smooth="yes"/>
      <point x="157" y="985"/>
      <point x="149" y="982"/>
      <point x="138" y="982" type="curve" smooth="yes"/>
      <point x="129" y="982"/>
      <point x="119" y="984"/>
      <point x="108" y="988" type="curve" smooth="yes"/>
      <point x="97" y="992"/>
      <point x="89" y="995"/>
      <point x="86" y="998" type="curve"/>
      <point x="117" y="1083"/>
      <point x="139" y="1197"/>
      <point x="152" y="1338" type="curve"/>
      <point x="227" y="1327"/>
      <point x="281" y="1322"/>
      <point x="316" y="1322" type="curve" smooth="yes"/>
      <point x="704" y="1322" type="line" smooth="yes"/>
      <point x="797" y="1322"/>
      <point x="937" y="1329"/>
      <point x="1124" y="1342" type="curve" smooth="yes"/>
      <point x="1129" y="1341"/>
      <point x="1136" y="1334"/>
      <point x="1146" y="1324" type="curve" smooth="yes"/>
      <point x="1156" y="1314"/>
      <point x="1160" y="1305"/>
      <point x="1160" y="1298" type="curve" smooth="yes"/>
      <point x="1159" y="1293"/>
      <point x="1087" y="1189"/>
      <point x="946" y="984" type="curve" smooth="yes"/>
      <point x="805" y="779"/>
      <point x="665" y="576"/>
      <point x="524" y="374" type="curve" smooth="yes"/>
      <point x="314" y="70" type="line"/>
      <point x="836" y="70" type="line" smooth="yes"/>
      <point x="914" y="70"/>
      <point x="976" y="94"/>
      <point x="1022" y="141" type="curve" smooth="yes"/>
      <point x="1029" y="148"/>
      <point x="1035" y="156"/>
      <point x="1042" y="164" type="curve" smooth="yes"/>
      <point x="1049" y="172"/>
      <point x="1054" y="181"/>
      <point x="1059" y="188" type="curve" smooth="yes"/>
      <point x="1064" y="195"/>
      <point x="1069" y="203"/>
      <point x="1075" y="214" type="curve" smooth="yes"/>
      <point x="1081" y="225"/>
      <point x="1085" y="234"/>
      <point x="1088" y="239" type="curve" smooth="yes"/>
      <point x="1091" y="244"/>
      <point x="1095" y="253"/>
      <point x="1100" y="266" type="curve" smooth="yes"/>
      <point x="1105" y="279"/>
      <point x="1109" y="287"/>
      <point x="1110" y="290" type="curve" smooth="yes"/>
      <point x="1111" y="293"/>
      <point x="1115" y="302"/>
      <point x="1120" y="316" type="curve" smooth="yes"/>
      <point x="1125" y="330"/>
      <point x="1128" y="337"/>
      <point x="1128" y="338" type="curve" smooth="yes"/>
      <point x="1130" y="342"/>
      <point x="1139" y="344"/>
      <point x="1156" y="344" type="curve" smooth="yes"/>
      <point x="1176" y="344"/>
      <point x="1192" y="338"/>
      <point x="1204" y="326" type="curve"/>
      <point x="1195" y="296"/>
      <point x="1184" y="262"/>
      <point x="1172" y="224" type="curve" smooth="yes"/>
      <point x="1160" y="186"/>
      <point x="1152" y="159"/>
      <point x="1146" y="140" type="curve" smooth="yes"/>
      <point x="1140" y="121"/>
      <point x="1134" y="99"/>
      <point x="1127" y="74" type="curve" smooth="yes"/>
      <point x="1120" y="49"/>
      <point x="1113" y="24"/>
      <point x="1108" y="0" type="curve"/>
      <point x="106" y="0" type="line" smooth="yes"/>
      <point x="95" y="0"/>
      <point x="84" y="4"/>
      <point x="76" y="10" type="curve" smooth="yes"/>
      <point x="68" y="16"/>
      <point x="66" y="22"/>
      <point x="70" y="28" type="curve" smooth="yes"/>
      <point x="920" y="1252" type="line"/>
    </contour>
  </outline>
</glyph>
<glyph name="bracketleft" format="2">
  <advance width="518"/>
  <unicode hex="005B"/>
  <outline>
    <contour>
      <point x="196" y="1436" type="curve" smooth="yes"/>
      <point x="245" y="1436"/>
      <point x="295" y="1437"/>
      <point x="346" y="1439" type="curve" smooth="yes"/>
      <point x="397" y="1441"/>
      <point x="435" y="1443"/>
      <point x="462" y="1445" type="curve" smooth="yes"/>
      <point x="502" y="1448" type="line"/>
      <point x="506" y="1444"/>
      <point x="508" y="1438"/>
      <point x="508" y="1430" type="curve" smooth="yes"/>
      <point x="508" y="1413"/>
      <point x="501" y="1403"/>
      <point x="488" y="1398" type="curve" smooth="yes"/>
      <point x="465" y="1390"/>
      <point x="435" y="1382"/>
      <point x="396" y="1374" type="curve" smooth="yes"/>
      <point x="357" y="1366"/>
      <point x="323" y="1361"/>
      <point x="296" y="1358" type="curve" smooth="yes"/>
      <point x="254" y="1352" type="line"/>
      <point x="254" y="-192" type="line"/>
      <point x="359" y="-205"/>
      <point x="437" y="-221"/>
      <point x="488" y="-238" type="curve" smooth="yes"/>
      <point x="501" y="-243"/>
      <point x="508" y="-253"/>
      <point x="508" y="-270" type="curve" smooth="yes"/>
      <point x="508" y="-273"/>
      <point x="507" y="-277"/>
      <point x="506" y="-280" type="curve" smooth="yes"/>
      <point x="505" y="-283"/>
      <point x="505" y="-285"/>
      <point x="504" y="-286" type="curve" smooth="yes"/>
      <point x="502" y="-288" type="line"/>
      <point x="407" y="-280"/>
      <point x="305" y="-276"/>
      <point x="196" y="-276" type="curve" smooth="yes"/>
      <point x="185" y="-276"/>
      <point x="176" y="-272"/>
      <point x="170" y="-264" type="curve" smooth="yes"/>
      <point x="164" y="-256"/>
      <point x="161" y="-250"/>
      <point x="160" y="-244" type="curve" smooth="yes"/>
      <point x="159" y="-238"/>
      <point x="158" y="-233"/>
      <point x="158" y="-230" type="curve" smooth="yes"/>
      <point x="158" y="1390" type="line" smooth="yes"/>
      <point x="158" y="1393"/>
      <point x="159" y="1398"/>
      <point x="160" y="1404" type="curve" smooth="yes"/>
      <point x="161" y="1410"/>
      <point x="164" y="1416"/>
      <point x="170" y="1424" type="curve" smooth="yes"/>
      <point x="176" y="1432"/>
      <point x="185" y="1436"/>
    </contour>
  </outline>
</glyph>
<glyph name="backslash" format="2">
  <advance width="802"/>
  <unicode hex="005C"/>
  <outline>
    <contour>
      <point x="62" y="1500" type="curve"/>
      <point x="67" y="1509"/>
      <point x="81" y="1514"/>
      <point x="102" y="1514" type="curve" smooth="yes"/>
      <point x="113" y="1514"/>
      <point x="124" y="1511"/>
      <point x="136" y="1504" type="curve" smooth="yes"/>
      <point x="148" y="1497"/>
      <point x="155" y="1490"/>
      <point x="158" y="1482" type="curve" smooth="yes"/>
      <point x="545" y="479"/>
      <point x="738" y="-26"/>
      <point x="738" y="-34" type="curve" smooth="yes"/>
      <point x="737" y="-39"/>
      <point x="731" y="-43"/>
      <point x="722" y="-48" type="curve" smooth="yes"/>
      <point x="713" y="-53"/>
      <point x="703" y="-56"/>
      <point x="692" y="-56" type="curve" smooth="yes"/>
      <point x="685" y="-56"/>
      <point x="677" y="-53"/>
      <point x="668" y="-47" type="curve" smooth="yes"/>
      <point x="659" y="-41"/>
      <point x="653" y="-35"/>
      <point x="650" y="-28" type="curve" smooth="yes"/>
      <point x="313" y="849"/>
      <point x="117" y="1359"/>
    </contour>
  </outline>
</glyph>
<glyph name="bracketright" format="2">
  <advance width="520"/>
  <unicode hex="005D"/>
  <outline>
    <contour>
      <point x="324" y="1436" type="curve" smooth="yes"/>
      <point x="335" y="1436"/>
      <point x="344" y="1432"/>
      <point x="350" y="1424" type="curve" smooth="yes"/>
      <point x="356" y="1416"/>
      <point x="359" y="1410"/>
      <point x="360" y="1404" type="curve" smooth="yes"/>
      <point x="361" y="1398"/>
      <point x="362" y="1393"/>
      <point x="362" y="1390" type="curve" smooth="yes"/>
      <point x="362" y="-230" type="line" smooth="yes"/>
      <point x="362" y="-233"/>
      <point x="361" y="-238"/>
      <point x="360" y="-244" type="curve" smooth="yes"/>
      <point x="359" y="-250"/>
      <point x="356" y="-256"/>
      <point x="350" y="-264" type="curve" smooth="yes"/>
      <point x="344" y="-272"/>
      <point x="335" y="-276"/>
      <point x="324" y="-276" type="curve" smooth="yes"/>
      <point x="275" y="-276"/>
      <point x="225" y="-277"/>
      <point x="174" y="-279" type="curve" smooth="yes"/>
      <point x="123" y="-281"/>
      <point x="85" y="-283"/>
      <point x="58" y="-285" type="curve" smooth="yes"/>
      <point x="18" y="-288" type="line"/>
      <point x="14" y="-284"/>
      <point x="12" y="-278"/>
      <point x="12" y="-270" type="curve" smooth="yes"/>
      <point x="12" y="-253"/>
      <point x="19" y="-243"/>
      <point x="32" y="-238" type="curve" smooth="yes"/>
      <point x="55" y="-230"/>
      <point x="85" y="-222"/>
      <point x="124" y="-214" type="curve" smooth="yes"/>
      <point x="163" y="-206"/>
      <point x="197" y="-201"/>
      <point x="224" y="-198" type="curve" smooth="yes"/>
      <point x="266" y="-192" type="line"/>
      <point x="266" y="1352" type="line"/>
      <point x="161" y="1365"/>
      <point x="83" y="1381"/>
      <point x="32" y="1398" type="curve" smooth="yes"/>
      <point x="19" y="1403"/>
      <point x="12" y="1413"/>
      <point x="12" y="1430" type="curve" smooth="yes"/>
      <point x="12" y="1433"/>
      <point x="13" y="1437"/>
      <point x="14" y="1440" type="curve" smooth="yes"/>
      <point x="15" y="1443"/>
      <point x="15" y="1445"/>
      <point x="16" y="1446" type="curve" smooth="yes"/>
      <point x="18" y="1448" type="line"/>
      <point x="113" y="1440"/>
      <point x="215" y="1436"/>
    </contour>
  </outline>
</glyph>
<glyph name="asciicircum" format="2">
  <advance width="780"/>
  <unicode hex="005E"/>
  <outline>
    <contour>
      <point x="372" y="1290" type="curve" smooth="yes"/>
      <point x="385" y="1290"/>
      <point x="395" y="1281"/>
      <point x="404" y="1264" type="curve" smooth="yes"/>
      <point x="428" y="1217"/>
      <point x="451" y="1174"/>
      <point x="472" y="1136" type="curve" smooth="yes"/>
      <point x="493" y="1098"/>
      <point x="519" y="1053"/>
      <point x="550" y="1001" type="curve" smooth="yes"/>
      <point x="581" y="949"/>
      <point x="605" y="908"/>
      <point x="622" y="878" type="curve"/>
      <point x="622" y="869"/>
      <point x="619" y="861"/>
      <point x="612" y="855" type="curve" smooth="yes"/>
      <point x="605" y="849"/>
      <point x="599" y="846"/>
      <point x="592" y="846" type="curve"/>
      <point x="565" y="875"/>
      <point x="533" y="911"/>
      <point x="496" y="954" type="curve" smooth="yes"/>
      <point x="459" y="997"/>
      <point x="429" y="1032"/>
      <point x="406" y="1061" type="curve" smooth="yes"/>
      <point x="372" y="1104" type="line"/>
      <point x="288" y="996"/>
      <point x="215" y="910"/>
      <point x="154" y="846" type="curve"/>
      <point x="147" y="846"/>
      <point x="140" y="849"/>
      <point x="133" y="855" type="curve" smooth="yes"/>
      <point x="126" y="861"/>
      <point x="122" y="869"/>
      <point x="122" y="878" type="curve"/>
      <point x="141" y="911"/>
      <point x="166" y="953"/>
      <point x="195" y="1002" type="curve" smooth="yes"/>
      <point x="224" y="1051"/>
      <point x="250" y="1095"/>
      <point x="272" y="1134" type="curve" smooth="yes"/>
      <point x="294" y="1173"/>
      <point x="318" y="1217"/>
      <point x="342" y="1264" type="curve" smooth="yes"/>
      <point x="351" y="1281"/>
      <point x="361" y="1290"/>
    </contour>
  </outline>
</glyph>
<glyph name="a" format="2">
  <advance width="862"/>
  <unicode hex="0061"/>
  <outline>
    <contour>
      <point x="482" y="872" type="curve" smooth="yes"/>
      <point x="540" y="872"/>
      <point x="590" y="845"/>
      <point x="634" y="792" type="curve" smooth="yes"/>
      <point x="678" y="739"/>
      <point x="700" y="674"/>
      <point x="700" y="598" type="curve" smooth="yes"/>
      <point x="700" y="186" type="line" smooth="yes"/>
      <point x="700" y="123"/>
      <point x="721" y="92"/>
      <point x="762" y="92" type="curve" smooth="yes"/>
      <point x="768" y="92"/>
      <point x="774" y="93"/>
      <point x="780" y="94" type="curve" smooth="yes"/>
      <point x="786" y="95"/>
      <point x="790" y="96"/>
      <point x="794" y="98" type="curve" smooth="yes"/>
      <point x="798" y="100"/>
      <point x="802" y="102"/>
      <point x="806" y="104" type="curve" smooth="yes"/>
      <point x="810" y="106"/>
      <point x="814" y="108"/>
      <point x="816" y="110" type="curve" smooth="yes"/>
      <point x="818" y="112"/>
      <point x="822" y="113"/>
      <point x="824" y="115" type="curve" smooth="yes"/>
      <point x="826" y="117"/>
      <point x="827" y="118"/>
      <point x="828" y="118" type="curve" smooth="yes"/>
      <point x="833" y="118"/>
      <point x="836" y="113"/>
      <point x="836" y="102" type="curve" smooth="yes"/>
      <point x="836" y="88"/>
      <point x="833" y="75"/>
      <point x="826" y="64" type="curve" smooth="yes"/>
      <point x="811" y="50"/>
      <point x="787" y="34"/>
      <point x="754" y="16" type="curve" smooth="yes"/>
      <point x="721" y="-2"/>
      <point x="695" y="-12"/>
      <point x="676" y="-12" type="curve" smooth="yes"/>
      <point x="648" y="-12"/>
      <point x="622" y="1"/>
      <point x="599" y="28" type="curve" smooth="yes"/>
      <point x="576" y="55"/>
      <point x="561" y="85"/>
      <point x="554" y="118" type="curve"/>
      <point x="535" y="99"/>
      <point x="497" y="71"/>
      <point x="440" y="36" type="curve" smooth="yes"/>
      <point x="383" y="1"/>
      <point x="339" y="-16"/>
      <point x="308" y="-16" type="curve" smooth="yes"/>
      <point x="242" y="-16"/>
      <point x="187" y="6"/>
      <point x="142" y="50" type="curve" smooth="yes"/>
      <point x="97" y="94"/>
      <point x="74" y="149"/>
      <point x="74" y="214" type="curve" smooth="yes"/>
      <point x="74" y="252"/>
      <point x="85" y="286"/>
      <point x="106" y="316" type="curve" smooth="yes"/>
      <point x="127" y="346"/>
      <point x="149" y="365"/>
      <point x="174" y="374" type="curve" smooth="yes"/>
      <point x="196" y="382"/>
      <point x="236" y="396"/>
      <point x="294" y="416" type="curve" smooth="yes"/>
      <point x="352" y="436"/>
      <point x="401" y="453"/>
      <point x="440" y="467" type="curve" smooth="yes"/>
      <point x="479" y="481"/>
      <point x="507" y="492"/>
      <point x="524" y="500" type="curve" smooth="yes"/>
      <point x="534" y="504"/>
      <point x="541" y="509"/>
      <point x="544" y="515" type="curve" smooth="yes"/>
      <point x="547" y="521"/>
      <point x="548" y="533"/>
      <point x="548" y="550" type="curve" smooth="yes"/>
      <point x="548" y="604" type="line" smooth="yes"/>
      <point x="548" y="651"/>
      <point x="532" y="696"/>
      <point x="498" y="736" type="curve" smooth="yes"/>
      <point x="464" y="776"/>
      <point x="423" y="796"/>
      <point x="376" y="796" type="curve" smooth="yes"/>
      <point x="343" y="796"/>
      <point x="318" y="786"/>
      <point x="302" y="766" type="curve" smooth="yes"/>
      <point x="286" y="746"/>
      <point x="273" y="714"/>
      <point x="266" y="672" type="curve" smooth="yes"/>
      <point x="255" y="608"/>
      <point x="223" y="576"/>
      <point x="172" y="576" type="curve" smooth="yes"/>
      <point x="152" y="576"/>
      <point x="136" y="585"/>
      <point x="123" y="602" type="curve" smooth="yes"/>
      <point x="110" y="619"/>
      <point x="104" y="639"/>
      <point x="104" y="660" type="curve" smooth="yes"/>
      <point x="104" y="665"/>
      <point x="105" y="673"/>
      <point x="108" y="684" type="curve" smooth="yes"/>
      <point x="111" y="695"/>
      <point x="115" y="703"/>
      <point x="118" y="708" type="curve" smooth="yes"/>
      <point x="159" y="747"/>
      <point x="214" y="784"/>
      <point x="282" y="819" type="curve" smooth="yes"/>
      <point x="350" y="854"/>
      <point x="417" y="872"/>
    </contour>
    <contour>
      <point x="374" y="92" type="curve" smooth="yes"/>
      <point x="407" y="92"/>
      <point x="444" y="102"/>
      <point x="486" y="124" type="curve" smooth="yes"/>
      <point x="528" y="146"/>
      <point x="548" y="163"/>
      <point x="548" y="174" type="curve" smooth="yes"/>
      <point x="548" y="446" type="line"/>
      <point x="445" y="415"/>
      <point x="383" y="396"/>
      <point x="362" y="388" type="curve" smooth="yes"/>
      <point x="324" y="373"/>
      <point x="294" y="352"/>
      <point x="272" y="326" type="curve" smooth="yes"/>
      <point x="250" y="300"/>
      <point x="240" y="269"/>
      <point x="240" y="232" type="curve" smooth="yes"/>
      <point x="240" y="195"/>
      <point x="253" y="162"/>
      <point x="279" y="134" type="curve" smooth="yes"/>
      <point x="305" y="106"/>
      <point x="337" y="92"/>
    </contour>
  </outline>
</glyph>
<glyph name="g" format="2">
  <advance width="932"/>
  <unicode hex="0067"/>
  <outline>
    <contour>
      <point x="602" y="134" type="line" smooth="yes"/>
      <point x="682" y="134"/>
      <point x="754" y="112"/>
      <point x="817" y="70" type="curve" smooth="yes"/>
      <point x="880" y="28"/>
      <point x="912" y="-21"/>
      <point x="912" y="-76" type="curve" smooth="yes"/>
      <point x="912" y="-117"/>
      <point x="898" y="-159"/>
      <point x="869" y="-204" type="curve" smooth="yes"/>
      <point x="840" y="-249"/>
      <point x="802" y="-289"/>
      <point x="756" y="-326" type="curve" smooth="yes"/>
      <point x="710" y="-363"/>
      <point x="655" y="-393"/>
      <point x="590" y="-417" type="curve" smooth="yes"/>
      <point x="525" y="-441"/>
      <point x="459" y="-453"/>
      <point x="392" y="-454" type="curve" smooth="yes"/>
      <point x="389" y="-454"/>
      <point x="389" y="-454"/>
      <point x="386" y="-454" type="curve" smooth="yes"/>
      <point x="331" y="-454"/>
      <point x="279" y="-446"/>
      <point x="230" y="-429" type="curve" smooth="yes"/>
      <point x="179" y="-412"/>
      <point x="136" y="-384"/>
      <point x="100" y="-346" type="curve" smooth="yes"/>
      <point x="64" y="-308"/>
      <point x="46" y="-262"/>
      <point x="46" y="-210" type="curve" smooth="yes"/>
      <point x="46" y="-189"/>
      <point x="53" y="-168"/>
      <point x="68" y="-146" type="curve" smooth="yes"/>
      <point x="83" y="-124"/>
      <point x="104" y="-104"/>
      <point x="128" y="-85" type="curve" smooth="yes"/>
      <point x="152" y="-66"/>
      <point x="175" y="-51"/>
      <point x="196" y="-38" type="curve" smooth="yes"/>
      <point x="217" y="-25"/>
      <point x="237" y="-13"/>
      <point x="258" y="-2" type="curve"/>
      <point x="216" y="11"/>
      <point x="178" y="34"/>
      <point x="144" y="67" type="curve" smooth="yes"/>
      <point x="110" y="100"/>
      <point x="94" y="139"/>
      <point x="94" y="184" type="curve"/>
      <point x="109" y="202"/>
      <point x="136" y="226"/>
      <point x="174" y="255" type="curve" smooth="yes"/>
      <point x="212" y="284"/>
      <point x="243" y="306"/>
      <point x="266" y="320" type="curve"/>
      <point x="217" y="347"/>
      <point x="177" y="385"/>
      <point x="146" y="432" type="curve" smooth="yes"/>
      <point x="115" y="479"/>
      <point x="100" y="527"/>
      <point x="100" y="576" type="curve" smooth="yes"/>
      <point x="100" y="657"/>
      <point x="132" y="728"/>
      <point x="198" y="788" type="curve" smooth="yes"/>
      <point x="264" y="848"/>
      <point x="344" y="878"/>
      <point x="438" y="878" type="curve" smooth="yes"/>
      <point x="454" y="878"/>
      <point x="470" y="878"/>
      <point x="485" y="876" type="curve" smooth="yes"/>
      <point x="500" y="874"/>
      <point x="515" y="871"/>
      <point x="530" y="866" type="curve" smooth="yes"/>
      <point x="545" y="861"/>
      <point x="557" y="858"/>
      <point x="564" y="856" type="curve" smooth="yes"/>
      <point x="571" y="854"/>
      <point x="582" y="850"/>
      <point x="597" y="844" type="curve" smooth="yes"/>
      <point x="620" y="834" type="line" smooth="yes"/>
      <point x="637" y="827"/>
      <point x="653" y="823"/>
      <point x="666" y="820" type="curve"/>
      <point x="880" y="850" type="line"/>
      <point x="893" y="846"/>
      <point x="900" y="839"/>
      <point x="900" y="830" type="curve" smooth="yes"/>
      <point x="900" y="821"/>
      <point x="895" y="806"/>
      <point x="884" y="786" type="curve" smooth="yes"/>
      <point x="873" y="766"/>
      <point x="863" y="753"/>
      <point x="854" y="748" type="curve"/>
      <point x="722" y="756" type="line" smooth="yes"/>
      <point x="717" y="756"/>
      <point x="714" y="754"/>
      <point x="714" y="750" type="curve" smooth="yes"/>
      <point x="723" y="741"/>
      <point x="735" y="718"/>
      <point x="749" y="682" type="curve" smooth="yes"/>
      <point x="763" y="646"/>
      <point x="770" y="607"/>
      <point x="770" y="568" type="curve" smooth="yes"/>
      <point x="770" y="495"/>
      <point x="736" y="427"/>
      <point x="670" y="366" type="curve" smooth="yes"/>
      <point x="604" y="305"/>
      <point x="525" y="274"/>
      <point x="432" y="274" type="curve" smooth="yes"/>
      <point x="415" y="274"/>
      <point x="395" y="276"/>
      <point x="371" y="280" type="curve" smooth="yes"/>
      <point x="347" y="284"/>
      <point x="330" y="288"/>
      <point x="320" y="292" type="curve"/>
      <point x="300" y="281"/>
      <point x="283" y="266"/>
      <point x="268" y="250" type="curve" smooth="yes"/>
      <point x="253" y="234"/>
      <point x="246" y="219"/>
      <point x="246" y="204" type="curve" smooth="yes"/>
      <point x="246" y="191"/>
      <point x="258" y="176"/>
      <point x="280" y="159" type="curve" smooth="yes"/>
      <point x="302" y="142"/>
      <point x="331" y="134"/>
      <point x="366" y="134" type="curve" smooth="yes"/>
    </contour>
    <contour>
      <point x="510" y="-8" type="curve" smooth="yes"/>
      <point x="398" y="-8"/>
      <point x="336" y="-11"/>
      <point x="324" y="-18" type="curve" smooth="yes"/>
      <point x="295" y="-35"/>
      <point x="267" y="-55"/>
      <point x="242" y="-80" type="curve" smooth="yes"/>
      <point x="217" y="-105"/>
      <point x="204" y="-129"/>
      <point x="204" y="-152" type="curve" smooth="yes"/>
      <point x="204" y="-219"/>
      <point x="228" y="-273"/>
      <point x="276" y="-314" type="curve" smooth="yes"/>
      <point x="324" y="-355"/>
      <point x="389" y="-376"/>
      <point x="472" y="-376" type="curve" smooth="yes"/>
      <point x="517" y="-376"/>
      <point x="563" y="-366"/>
      <point x="610" y="-346" type="curve" smooth="yes"/>
      <point x="657" y="-326"/>
      <point x="697" y="-300"/>
      <point x="728" y="-266" type="curve" smooth="yes"/>
      <point x="759" y="-232"/>
      <point x="774" y="-197"/>
      <point x="774" y="-162" type="curve" smooth="yes"/>
      <point x="774" y="-147"/>
      <point x="769" y="-131"/>
      <point x="759" y="-114" type="curve" smooth="yes"/>
      <point x="749" y="-97"/>
      <point x="734" y="-80"/>
      <point x="714" y="-64" type="curve" smooth="yes"/>
      <point x="694" y="-48"/>
      <point x="666" y="-34"/>
      <point x="630" y="-24" type="curve" smooth="yes"/>
      <point x="594" y="-14"/>
      <point x="555" y="-8"/>
    </contour>
    <contour>
      <point x="430" y="818" type="curve" smooth="yes"/>
      <point x="376" y="818"/>
      <point x="334" y="794"/>
      <point x="302" y="747" type="curve" smooth="yes"/>
      <point x="270" y="700"/>
      <point x="254" y="645"/>
      <point x="254" y="584" type="curve" smooth="yes"/>
      <point x="254" y="519"/>
      <point x="271" y="461"/>
      <point x="306" y="410" type="curve" smooth="yes"/>
      <point x="341" y="359"/>
      <point x="388" y="334"/>
      <point x="446" y="334" type="curve" smooth="yes"/>
      <point x="498" y="334"/>
      <point x="539" y="358"/>
      <point x="570" y="404" type="curve" smooth="yes"/>
      <point x="601" y="450"/>
      <point x="616" y="503"/>
      <point x="616" y="562" type="curve" smooth="yes"/>
      <point x="616" y="630"/>
      <point x="599" y="690"/>
      <point x="566" y="741" type="curve" smooth="yes"/>
      <point x="533" y="792"/>
      <point x="488" y="818"/>
    </contour>
  </outline>
</glyph>
<glyph name="n" format="2">
  <advance width="1064"/>
  <unicode hex="006E"/>
  <outline>
    <contour>
      <point x="645" y="876" type="curve" smooth="yes"/>
      <point x="688" y="876"/>
      <point x="725" y="870"/>
      <point x="755" y="859" type="curve" smooth="yes"/>
      <point x="785" y="848"/>
      <point x="810" y="832"/>
      <point x="829" y="811" type="curve" smooth="yes"/>
      <point x="848" y="790"/>
      <point x="863" y="762"/>
      <point x="874" y="726" type="curve" smooth="yes"/>
      <point x="885" y="690"/>
      <point x="893" y="651"/>
      <point x="897" y="608" type="curve" smooth="yes"/>
      <point x="901" y="565"/>
      <point x="903" y="513"/>
      <point x="903" y="452" type="curve" smooth="yes"/>
      <point x="903" y="232" type="line" smooth="yes"/>
      <point x="903" y="155"/>
      <point x="906" y="105"/>
      <point x="913" y="84" type="curve" smooth="yes"/>
      <point x="916" y="75"/>
      <point x="933" y="67"/>
      <point x="964" y="61" type="curve" smooth="yes"/>
      <point x="995" y="55"/>
      <point x="1020" y="52"/>
      <point x="1039" y="52" type="curve"/>
      <point x="1043" y="47"/>
      <point x="1046" y="37"/>
      <point x="1046" y="23" type="curve" smooth="yes"/>
      <point x="1046" y="9"/>
      <point x="1044" y="-1"/>
      <point x="1039" y="-6" type="curve"/>
      <point x="902" y="1"/>
      <point x="831" y="4"/>
      <point x="825" y="4" type="curve" smooth="yes"/>
      <point x="802" y="4"/>
      <point x="780" y="3"/>
      <point x="758" y="2" type="curve" smooth="yes"/>
      <point x="736" y="1"/>
      <point x="711" y="0"/>
      <point x="683" y="-2" type="curve" smooth="yes"/>
      <point x="655" y="-4"/>
      <point x="632" y="-5"/>
      <point x="613" y="-6" type="curve"/>
      <point x="608" y="-1"/>
      <point x="606" y="9"/>
      <point x="606" y="23" type="curve" smooth="yes"/>
      <point x="606" y="37"/>
      <point x="609" y="47"/>
      <point x="613" y="52" type="curve"/>
      <point x="632" y="52"/>
      <point x="657" y="55"/>
      <point x="688" y="61" type="curve" smooth="yes"/>
      <point x="719" y="67"/>
      <point x="736" y="75"/>
      <point x="739" y="84" type="curve" smooth="yes"/>
      <point x="746" y="105"/>
      <point x="749" y="155"/>
      <point x="749" y="232" type="curve" smooth="yes"/>
      <point x="749" y="432" type="line" smooth="yes"/>
      <point x="749" y="558"/>
      <point x="735" y="644"/>
      <point x="708" y="690" type="curve" smooth="yes"/>
      <point x="681" y="736"/>
      <point x="630" y="760"/>
      <point x="553" y="760" type="curve" smooth="yes"/>
      <point x="530" y="760"/>
      <point x="503" y="752"/>
      <point x="472" y="736" type="curve" smooth="yes"/>
      <point x="441" y="720"/>
      <point x="415" y="703"/>
      <point x="394" y="686" type="curve" smooth="yes"/>
      <point x="373" y="669"/>
      <point x="363" y="657"/>
      <point x="363" y="650" type="curve" smooth="yes"/>
      <point x="363" y="232" type="line" smooth="yes"/>
      <point x="363" y="155"/>
      <point x="366" y="105"/>
      <point x="373" y="84" type="curve" smooth="yes"/>
      <point x="376" y="75"/>
      <point x="393" y="67"/>
      <point x="424" y="61" type="curve" smooth="yes"/>
      <point x="455" y="55"/>
      <point x="480" y="52"/>
      <point x="499" y="52" type="curve"/>
      <point x="503" y="47"/>
      <point x="506" y="37"/>
      <point x="506" y="23" type="curve" smooth="yes"/>
      <point x="506" y="9"/>
      <point x="504" y="-1"/>
      <point x="499" y="-6" type="curve"/>
      <point x="362" y="1"/>
      <point x="291" y="4"/>
      <point x="285" y="4" type="curve" smooth="yes"/>
      <point x="262" y="4"/>
      <point x="240" y="3"/>
      <point x="218" y="2" type="curve" smooth="yes"/>
      <point x="196" y="1"/>
      <point x="171" y="0"/>
      <point x="143" y="-2" type="curve" smooth="yes"/>
      <point x="115" y="-4"/>
      <point x="92" y="-5"/>
      <point x="73" y="-6" type="curve"/>
      <point x="68" y="-1"/>
      <point x="66" y="9"/>
      <point x="66" y="23" type="curve" smooth="yes"/>
      <point x="66" y="37"/>
      <point x="69" y="47"/>
      <point x="73" y="52" type="curve"/>
      <point x="92" y="52"/>
      <point x="117" y="55"/>
      <point x="148" y="61" type="curve" smooth="yes"/>
      <point x="179" y="67"/>
      <point x="196" y="75"/>
      <point x="199" y="84" type="curve" smooth="yes"/>
      <point x="206" y="105"/>
      <point x="209" y="155"/>
      <point x="209" y="232" type="curve" smooth="yes"/>
      <point x="209" y="596" type="line" smooth="yes"/>
      <point x="209" y="655"/>
      <point x="206" y="692"/>
      <point x="199" y="708" type="curve" smooth="yes"/>
      <point x="195" y="718"/>
      <point x="182" y="726"/>
      <point x="161" y="732" type="curve" smooth="yes"/>
      <point x="140" y="738"/>
      <point x="122" y="741"/>
      <point x="108" y="742" type="curve" smooth="yes"/>
      <point x="94" y="743"/>
      <point x="80" y="744"/>
      <point x="69" y="744" type="curve" smooth="yes"/>
      <point x="66" y="747"/>
      <point x="64" y="755"/>
      <point x="64" y="768" type="curve" smooth="yes"/>
      <point x="64" y="781"/>
      <point x="66" y="791"/>
      <point x="69" y="796" type="curve"/>
      <point x="183" y="811"/>
      <point x="278" y="839"/>
      <point x="355" y="880" type="curve" smooth="yes"/>
      <point x="360" y="880"/>
      <point x="365" y="876"/>
      <point x="370" y="868" type="curve" smooth="yes"/>
      <point x="375" y="860"/>
      <point x="377" y="853"/>
      <point x="377" y="848" type="curve" smooth="yes"/>
      <point x="369" y="792"/>
      <point x="365" y="754"/>
      <point x="365" y="734" type="curve" smooth="yes"/>
      <point x="365" y="729"/>
      <point x="366" y="726"/>
      <point x="369" y="726" type="curve" smooth="yes"/>
      <point x="370" y="726"/>
      <point x="372" y="727"/>
      <point x="375" y="730" type="curve" smooth="yes"/>
      <point x="402" y="759"/>
      <point x="443" y="791"/>
      <point x="498" y="825" type="curve" smooth="yes"/>
      <point x="553" y="859"/>
      <point x="602" y="876"/>
    </contour>
  </outline>
</glyph>
<glyph name="r" format="2">
  <advance width="766"/>
  <unicode hex="0072"/>
  <outline>
    <contour>
      <point x="607" y="874" type="curve" smooth="yes"/>
      <point x="633" y="874"/>
      <point x="657" y="868"/>
      <point x="680" y="857" type="curve" smooth="yes"/>
      <point x="703" y="846"/>
      <point x="720" y="832"/>
      <point x="729" y="816" type="curve" smooth="yes"/>
      <point x="734" y="800"/>
      <point x="737" y="782"/>
      <point x="737" y="762" type="curve" smooth="yes"/>
      <point x="737" y="729"/>
      <point x="729" y="704"/>
      <point x="714" y="686" type="curve" smooth="yes"/>
      <point x="699" y="668"/>
      <point x="684" y="658"/>
      <point x="671" y="658" type="curve" smooth="yes"/>
      <point x="662" y="658"/>
      <point x="654" y="660"/>
      <point x="646" y="664" type="curve" smooth="yes"/>
      <point x="638" y="668"/>
      <point x="630" y="674"/>
      <point x="618" y="682" type="curve" smooth="yes"/>
      <point x="606" y="690"/>
      <point x="599" y="695"/>
      <point x="597" y="696" type="curve" smooth="yes"/>
      <point x="573" y="712"/>
      <point x="548" y="720"/>
      <point x="523" y="720" type="curve" smooth="yes"/>
      <point x="484" y="720"/>
      <point x="448" y="698"/>
      <point x="414" y="652" type="curve" smooth="yes"/>
      <point x="380" y="606"/>
      <point x="363" y="569"/>
      <point x="363" y="540" type="curve" smooth="yes"/>
      <point x="363" y="232" type="line" smooth="yes"/>
      <point x="363" y="155"/>
      <point x="366" y="105"/>
      <point x="373" y="84" type="curve" smooth="yes"/>
      <point x="376" y="75"/>
      <point x="400" y="67"/>
      <point x="444" y="61" type="curve" smooth="yes"/>
      <point x="488" y="55"/>
      <point x="522" y="52"/>
      <point x="545" y="52" type="curve"/>
      <point x="549" y="47"/>
      <point x="552" y="37"/>
      <point x="552" y="23" type="curve" smooth="yes"/>
      <point x="552" y="9"/>
      <point x="550" y="-1"/>
      <point x="545" y="-6" type="curve"/>
      <point x="408" y="1"/>
      <point x="326" y="4"/>
      <point x="297" y="4" type="curve" smooth="yes"/>
      <point x="284" y="4"/>
      <point x="210" y="1"/>
      <point x="73" y="-6" type="curve"/>
      <point x="68" y="-1"/>
      <point x="66" y="9"/>
      <point x="66" y="23" type="curve" smooth="yes"/>
      <point x="66" y="37"/>
      <point x="69" y="47"/>
      <point x="73" y="52" type="curve"/>
      <point x="92" y="52"/>
      <point x="117" y="55"/>
      <point x="148" y="61" type="curve" smooth="yes"/>
      <point x="179" y="67"/>
      <point x="196" y="75"/>
      <point x="199" y="84" type="curve" smooth="yes"/>
      <point x="204" y="101"/>
      <point x="208" y="150"/>
      <point x="209" y="232" type="curve" smooth="yes"/>
      <point x="209" y="604" type="line" smooth="yes"/>
      <point x="209" y="657"/>
      <point x="206" y="692"/>
      <point x="199" y="708" type="curve" smooth="yes"/>
      <point x="195" y="718"/>
      <point x="182" y="726"/>
      <point x="161" y="732" type="curve" smooth="yes"/>
      <point x="140" y="738"/>
      <point x="122" y="741"/>
      <point x="108" y="742" type="curve" smooth="yes"/>
      <point x="94" y="743"/>
      <point x="80" y="744"/>
      <point x="69" y="744" type="curve" smooth="yes"/>
      <point x="66" y="747"/>
      <point x="64" y="755"/>
      <point x="64" y="768" type="curve" smooth="yes"/>
      <point x="64" y="781"/>
      <point x="66" y="791"/>
      <point x="69" y="796" type="curve"/>
      <point x="183" y="811"/>
      <point x="278" y="839"/>
      <point x="355" y="880" type="curve" smooth="yes"/>
      <point x="360" y="880"/>
      <point x="365" y="876"/>
      <point x="370" y="868" type="curve" smooth="yes"/>
      <point x="375" y="860"/>
      <point x="377" y="853"/>
      <point x="377" y="848" type="curve" smooth="yes"/>
      <point x="376" y="840"/>
      <point x="373" y="810"/>
      <point x="369" y="758" type="curve" smooth="yes"/>
      <point x="365" y="706"/>
      <point x="363" y="674"/>
      <point x="363" y="664" type="curve" smooth="yes"/>
      <point x="363" y="661"/>
      <point x="364" y="659"/>
      <point x="365" y="658" type="curve" smooth="yes"/>
      <point x="366" y="657"/>
      <point x="367" y="658"/>
      <point x="368" y="658" type="curve" smooth="yes"/>
      <point x="369" y="658"/>
      <point x="370" y="659"/>
      <point x="371" y="660" type="curve" smooth="yes"/>
      <point x="394" y="709"/>
      <point x="428" y="757"/>
      <point x="475" y="804" type="curve" smooth="yes"/>
      <point x="522" y="851"/>
      <point x="566" y="874"/>
    </contour>
  </outline>
</glyph>
<glyph name="s" format="2">
  <advance width="738"/>
  <unicode hex="0073"/>
  <outline>
    <contour>
      <point x="390" y="874" type="curve" smooth="yes"/>
      <point x="420" y="874"/>
      <point x="457" y="870"/>
      <point x="501" y="862" type="curve" smooth="yes"/>
      <point x="545" y="854"/>
      <point x="576" y="850"/>
      <point x="594" y="848" type="curve"/>
      <point x="607" y="788"/>
      <point x="615" y="715"/>
      <point x="618" y="628" type="curve" smooth="yes"/>
      <point x="618" y="621"/>
      <point x="611" y="618"/>
      <point x="598" y="618" type="curve" smooth="yes"/>
      <point x="583" y="618"/>
      <point x="572" y="621"/>
      <point x="564" y="628" type="curve"/>
      <point x="552" y="673"/>
      <point x="531" y="715"/>
      <point x="500" y="754" type="curve" smooth="yes"/>
      <point x="469" y="793"/>
      <point x="435" y="812"/>
      <point x="396" y="812" type="curve" smooth="yes"/>
      <point x="350" y="812"/>
      <point x="314" y="800"/>
      <point x="290" y="777" type="curve" smooth="yes"/>
      <point x="266" y="754"/>
      <point x="254" y="723"/>
      <point x="254" y="686" type="curve" smooth="yes"/>
      <point x="254" y="669"/>
      <point x="257" y="654"/>
      <point x="262" y="640" type="curve" smooth="yes"/>
      <point x="267" y="626"/>
      <point x="272" y="613"/>
      <point x="278" y="604" type="curve" smooth="yes"/>
      <point x="284" y="595"/>
      <point x="294" y="584"/>
      <point x="308" y="573" type="curve" smooth="yes"/>
      <point x="322" y="562"/>
      <point x="334" y="553"/>
      <point x="342" y="548" type="curve" smooth="yes"/>
      <point x="350" y="543"/>
      <point x="364" y="534"/>
      <point x="385" y="522" type="curve" smooth="yes"/>
      <point x="406" y="510"/>
      <point x="420" y="503"/>
      <point x="428" y="498" type="curve" smooth="yes"/>
      <point x="434" y="495"/>
      <point x="447" y="487"/>
      <point x="468" y="475" type="curve" smooth="yes"/>
      <point x="489" y="463"/>
      <point x="504" y="454"/>
      <point x="514" y="448" type="curve" smooth="yes"/>
      <point x="524" y="442"/>
      <point x="538" y="432"/>
      <point x="556" y="420" type="curve" smooth="yes"/>
      <point x="574" y="408"/>
      <point x="588" y="396"/>
      <point x="597" y="386" type="curve" smooth="yes"/>
      <point x="606" y="376"/>
      <point x="617" y="362"/>
      <point x="628" y="348" type="curve" smooth="yes"/>
      <point x="639" y="334"/>
      <point x="646" y="320"/>
      <point x="651" y="304" type="curve" smooth="yes"/>
      <point x="656" y="288"/>
      <point x="658" y="271"/>
      <point x="658" y="254" type="curve" smooth="yes"/>
      <point x="658" y="175"/>
      <point x="627" y="108"/>
      <point x="566" y="56" type="curve" smooth="yes"/>
      <point x="505" y="4"/>
      <point x="433" y="-22"/>
      <point x="350" y="-22" type="curve" smooth="yes"/>
      <point x="323" y="-22"/>
      <point x="298" y="-20"/>
      <point x="274" y="-16" type="curve" smooth="yes"/>
      <point x="250" y="-12"/>
      <point x="222" y="-7"/>
      <point x="190" y="0" type="curve" smooth="yes"/>
      <point x="158" y="7"/>
      <point x="134" y="13"/>
      <point x="116" y="16" type="curve"/>
      <point x="108" y="37"/>
      <point x="100" y="70"/>
      <point x="93" y="116" type="curve" smooth="yes"/>
      <point x="86" y="162"/>
      <point x="82" y="197"/>
      <point x="82" y="224" type="curve"/>
      <point x="93" y="232"/>
      <point x="105" y="236"/>
      <point x="118" y="236" type="curve" smooth="yes"/>
      <point x="126" y="236"/>
      <point x="132" y="235"/>
      <point x="136" y="232" type="curve" smooth="yes"/>
      <point x="149" y="185"/>
      <point x="176" y="142"/>
      <point x="217" y="102" type="curve" smooth="yes"/>
      <point x="258" y="62"/>
      <point x="303" y="42"/>
      <point x="352" y="42" type="curve" smooth="yes"/>
      <point x="394" y="42"/>
      <point x="429" y="54"/>
      <point x="456" y="80" type="curve" smooth="yes"/>
      <point x="483" y="106"/>
      <point x="496" y="141"/>
      <point x="496" y="186" type="curve" smooth="yes"/>
      <point x="496" y="209"/>
      <point x="492" y="230"/>
      <point x="484" y="249" type="curve" smooth="yes"/>
      <point x="476" y="268"/>
      <point x="461" y="285"/>
      <point x="442" y="301" type="curve" smooth="yes"/>
      <point x="423" y="317"/>
      <point x="405" y="330"/>
      <point x="390" y="340" type="curve" smooth="yes"/>
      <point x="375" y="350"/>
      <point x="351" y="362"/>
      <point x="320" y="378" type="curve" smooth="yes"/>
      <point x="289" y="394"/>
      <point x="266" y="407"/>
      <point x="252" y="416" type="curve" smooth="yes"/>
      <point x="205" y="443"/>
      <point x="168" y="472"/>
      <point x="141" y="506" type="curve" smooth="yes"/>
      <point x="114" y="540"/>
      <point x="100" y="581"/>
      <point x="100" y="630" type="curve" smooth="yes"/>
      <point x="100" y="701"/>
      <point x="129" y="760"/>
      <point x="187" y="806" type="curve" smooth="yes"/>
      <point x="245" y="852"/>
      <point x="313" y="874"/>
    </contour>
  </outline>
</glyph>
<glyph name="y" format="2">
  <advance width="938"/>
  <unicode hex="0079"/>
  <outline>
    <contour>
      <point x="203" y="850" type="curve" smooth="yes"/>
      <point x="280" y="850"/>
      <point x="346" y="853"/>
      <point x="403" y="860" type="curve"/>
      <point x="406" y="854"/>
      <point x="406" y="842"/>
      <point x="404" y="826" type="curve" smooth="yes"/>
      <point x="402" y="810"/>
      <point x="400" y="802"/>
      <point x="395" y="802" type="curve" smooth="yes"/>
      <point x="386" y="802"/>
      <point x="375" y="801"/>
      <point x="362" y="800" type="curve" smooth="yes"/>
      <point x="349" y="799"/>
      <point x="335" y="796"/>
      <point x="320" y="790" type="curve" smooth="yes"/>
      <point x="305" y="784"/>
      <point x="297" y="777"/>
      <point x="297" y="768" type="curve" smooth="yes"/>
      <point x="297" y="765"/>
      <point x="298" y="763"/>
      <point x="299" y="760" type="curve" smooth="yes"/>
      <point x="511" y="220" type="line"/>
      <point x="579" y="397"/>
      <point x="638" y="549"/>
      <point x="689" y="674" type="curve" smooth="yes"/>
      <point x="697" y="693"/>
      <point x="701" y="715"/>
      <point x="701" y="738" type="curve" smooth="yes"/>
      <point x="701" y="758"/>
      <point x="690" y="774"/>
      <point x="669" y="785" type="curve" smooth="yes"/>
      <point x="648" y="796"/>
      <point x="620" y="802"/>
      <point x="585" y="802" type="curve" smooth="yes"/>
      <point x="580" y="802"/>
      <point x="578" y="810"/>
      <point x="578" y="827" type="curve" smooth="yes"/>
      <point x="578" y="844"/>
      <point x="580" y="855"/>
      <point x="585" y="860" type="curve"/>
      <point x="635" y="853"/>
      <point x="695" y="850"/>
      <point x="765" y="850" type="curve" smooth="yes"/>
      <point x="810" y="850"/>
      <point x="866" y="853"/>
      <point x="933" y="860" type="curve"/>
      <point x="937" y="854"/>
      <point x="938" y="842"/>
      <point x="936" y="826" type="curve" smooth="yes"/>
      <point x="934" y="810"/>
      <point x="931" y="802"/>
      <point x="927" y="802" type="curve" smooth="yes"/>
      <point x="910" y="802"/>
      <point x="886" y="797"/>
      <point x="858" y="786" type="curve" smooth="yes"/>
      <point x="830" y="775"/>
      <point x="811" y="758"/>
      <point x="801" y="734" type="curve" smooth="yes"/>
      <point x="658" y="394"/>
      <point x="558" y="153"/>
      <point x="501" y="12" type="curve" smooth="yes"/>
      <point x="494" y="-4"/>
      <point x="480" y="-41"/>
      <point x="458" y="-100" type="curve" smooth="yes"/>
      <point x="436" y="-159"/>
      <point x="417" y="-206"/>
      <point x="400" y="-242" type="curve" smooth="yes"/>
      <point x="383" y="-278"/>
      <point x="364" y="-312"/>
      <point x="342" y="-344" type="curve" smooth="yes"/>
      <point x="291" y="-419"/>
      <point x="233" y="-456"/>
      <point x="168" y="-456" type="curve" smooth="yes"/>
      <point x="110" y="-456"/>
      <point x="81" y="-427"/>
      <point x="81" y="-370" type="curve" smooth="yes"/>
      <point x="81" y="-351"/>
      <point x="89" y="-331"/>
      <point x="105" y="-312" type="curve"/>
      <point x="158" y="-312"/>
      <point x="200" y="-305"/>
      <point x="230" y="-292" type="curve" smooth="yes"/>
      <point x="260" y="-279"/>
      <point x="294" y="-248"/>
      <point x="331" y="-198" type="curve" smooth="yes"/>
      <point x="345" y="-179"/>
      <point x="363" y="-145"/>
      <point x="386" y="-94" type="curve" smooth="yes"/>
      <point x="409" y="-43"/>
      <point x="423" y="-11"/>
      <point x="427" y="4" type="curve"/>
      <point x="294" y="344"/>
      <point x="189" y="597"/>
      <point x="113" y="762" type="curve" smooth="yes"/>
      <point x="100" y="789"/>
      <point x="64" y="802"/>
      <point x="3" y="802" type="curve" smooth="yes"/>
      <point x="1" y="802"/>
      <point x="0" y="812"/>
      <point x="0" y="830" type="curve" smooth="yes"/>
      <point x="0" y="848"/>
      <point x="1" y="858"/>
      <point x="3" y="860" type="curve" smooth="yes"/>
      <point x="66" y="853"/>
      <point x="133" y="850"/>
    </contour>
  </outline>
</glyph>
<glyph name="bar" format="2">
  <advance width="410"/>
  <unicode hex="007C"/>
  <outline>
    <contour>
      <point x="257" y="-212" type="line" smooth="yes"/>
      <point x="257" y="-219"/>
      <point x="244" y="-226"/>
      <point x="216" y="-234" type="curve" smooth="yes"/>
      <point x="188" y="-242"/>
      <point x="171" y="-246"/>
      <point x="165" y="-246" type="curve" smooth="yes"/>
      <point x="162" y="-246"/>
      <point x="160" y="-245"/>
      <point x="158" y="-244" type="curve" smooth="yes"/>
      <point x="156" y="-243"/>
      <point x="154" y="-243"/>
      <point x="154" y="-242" type="curve" smooth="yes"/>
      <point x="154" y="-241"/>
      <point x="154" y="-239"/>
      <point x="154" y="-236" type="curve" smooth="yes"/>
      <point x="154" y="-233"/>
      <point x="155" y="-231"/>
      <point x="155" y="-230" type="curve" smooth="yes"/>
      <point x="155" y="1514" type="line" smooth="yes"/>
      <point x="154" y="1522"/>
      <point x="157" y="1527"/>
      <point x="165" y="1530" type="curve" smooth="yes"/>
      <point x="197" y="1539"/>
      <point x="222" y="1544"/>
      <point x="239" y="1544" type="curve" smooth="yes"/>
      <point x="244" y="1544"/>
      <point x="248" y="1543"/>
      <point x="251" y="1541" type="curve" smooth="yes"/>
      <point x="254" y="1539"/>
      <point x="255" y="1537"/>
      <point x="255" y="1535" type="curve" smooth="yes"/>
      <point x="255" y="1532" type="line"/>
    </contour>
  </outline>
</glyph>
<glyph name="sterling" format="2">
  <advance width="954"/>
  <unicode hex="00A3"/>
  <outline>
    <contour>
      <point x="628" y="1272" type="curve" smooth="yes"/>
      <point x="660" y="1272"/>
      <point x="686" y="1269"/>
      <point x="704" y="1262" type="curve" smooth="yes"/>
      <point x="722" y="1255"/>
      <point x="745" y="1243"/>
      <point x="772" y="1224" type="curve" smooth="yes"/>
      <point x="777" y="1219"/>
      <point x="782" y="1212"/>
      <point x="786" y="1200" type="curve" smooth="yes"/>
      <point x="790" y="1188"/>
      <point x="792" y="1177"/>
      <point x="792" y="1168" type="curve" smooth="yes"/>
      <point x="792" y="1135"/>
      <point x="784" y="1112"/>
      <point x="769" y="1096" type="curve" smooth="yes"/>
      <point x="754" y="1080"/>
      <point x="736" y="1072"/>
      <point x="716" y="1072" type="curve" smooth="yes"/>
      <point x="706" y="1072"/>
      <point x="695" y="1074"/>
      <point x="684" y="1080" type="curve" smooth="yes"/>
      <point x="673" y="1086"/>
      <point x="664" y="1092"/>
      <point x="658" y="1098" type="curve" smooth="yes"/>
      <point x="652" y="1104"/>
      <point x="643" y="1112"/>
      <point x="632" y="1123" type="curve" smooth="yes"/>
      <point x="621" y="1134"/>
      <point x="614" y="1142"/>
      <point x="610" y="1146" type="curve" smooth="yes"/>
      <point x="595" y="1160"/>
      <point x="583" y="1170"/>
      <point x="574" y="1174" type="curve" smooth="yes"/>
      <point x="565" y="1178"/>
      <point x="553" y="1180"/>
      <point x="540" y="1180" type="curve" smooth="yes"/>
      <point x="507" y="1180"/>
      <point x="479" y="1167"/>
      <point x="458" y="1142" type="curve" smooth="yes"/>
      <point x="437" y="1117"/>
      <point x="424" y="1085"/>
      <point x="416" y="1048" type="curve" smooth="yes"/>
      <point x="408" y="1011"/>
      <point x="404" y="967"/>
      <point x="404" y="918" type="curve" smooth="yes"/>
      <point x="404" y="866"/>
      <point x="411" y="799"/>
      <point x="425" y="718" type="curve" smooth="yes"/>
      <point x="427" y="706"/>
      <point x="429" y="695"/>
      <point x="431" y="684" type="curve"/>
      <point x="762" y="684" type="line"/>
      <point x="771" y="677"/>
      <point x="774" y="668"/>
      <point x="772" y="658" type="curve" smooth="yes"/>
      <point x="770" y="648"/>
      <point x="766" y="638"/>
      <point x="760" y="630" type="curve" smooth="yes"/>
      <point x="754" y="622"/>
      <point x="749" y="615"/>
      <point x="744" y="612" type="curve" smooth="yes"/>
      <point x="441" y="612" type="line"/>
      <point x="444" y="584"/>
      <point x="446" y="561"/>
      <point x="446" y="544" type="curve" smooth="yes"/>
      <point x="446" y="479"/>
      <point x="426" y="413"/>
      <point x="386" y="346" type="curve" smooth="yes"/>
      <point x="346" y="279"/>
      <point x="306" y="229"/>
      <point x="268" y="194" type="curve"/>
      <point x="289" y="205"/>
      <point x="313" y="210"/>
      <point x="338" y="210" type="curve" smooth="yes"/>
      <point x="362" y="210"/>
      <point x="386" y="206"/>
      <point x="409" y="196" type="curve" smooth="yes"/>
      <point x="432" y="186"/>
      <point x="452" y="175"/>
      <point x="470" y="163" type="curve" smooth="yes"/>
      <point x="488" y="151"/>
      <point x="514" y="140"/>
      <point x="546" y="130" type="curve" smooth="yes"/>
      <point x="578" y="120"/>
      <point x="614" y="116"/>
      <point x="654" y="116" type="curve" smooth="yes"/>
      <point x="679" y="116"/>
      <point x="704" y="122"/>
      <point x="728" y="135" type="curve" smooth="yes"/>
      <point x="752" y="148"/>
      <point x="773" y="164"/>
      <point x="790" y="184" type="curve" smooth="yes"/>
      <point x="807" y="204"/>
      <point x="820" y="222"/>
      <point x="830" y="236" type="curve" smooth="yes"/>
      <point x="840" y="250"/>
      <point x="847" y="265"/>
      <point x="854" y="278" type="curve" smooth="yes"/>
      <point x="855" y="278"/>
      <point x="858" y="277"/>
      <point x="862" y="274" type="curve" smooth="yes"/>
      <point x="866" y="271"/>
      <point x="870" y="266"/>
      <point x="874" y="261" type="curve" smooth="yes"/>
      <point x="878" y="256"/>
      <point x="880" y="251"/>
      <point x="880" y="246" type="curve" smooth="yes"/>
      <point x="880" y="238"/>
      <point x="878" y="228"/>
      <point x="874" y="216" type="curve" smooth="yes"/>
      <point x="868" y="198"/>
      <point x="856" y="176"/>
      <point x="840" y="152" type="curve" smooth="yes"/>
      <point x="824" y="128"/>
      <point x="804" y="102"/>
      <point x="779" y="76" type="curve" smooth="yes"/>
      <point x="754" y="50"/>
      <point x="725" y="28"/>
      <point x="690" y="10" type="curve" smooth="yes"/>
      <point x="655" y="-8"/>
      <point x="619" y="-16"/>
      <point x="582" y="-16" type="curve" smooth="yes"/>
      <point x="544" y="-16"/>
      <point x="506" y="-10"/>
      <point x="470" y="2" type="curve" smooth="yes"/>
      <point x="434" y="14"/>
      <point x="405" y="27"/>
      <point x="382" y="41" type="curve" smooth="yes"/>
      <point x="359" y="55"/>
      <point x="334" y="68"/>
      <point x="307" y="80" type="curve" smooth="yes"/>
      <point x="280" y="92"/>
      <point x="255" y="98"/>
      <point x="232" y="98" type="curve" smooth="yes"/>
      <point x="213" y="98"/>
      <point x="197" y="91"/>
      <point x="184" y="78" type="curve" smooth="yes"/>
      <point x="171" y="65"/>
      <point x="159" y="49"/>
      <point x="148" y="29" type="curve" smooth="yes"/>
      <point x="137" y="9"/>
      <point x="127" y="-5"/>
      <point x="120" y="-12" type="curve"/>
      <point x="112" y="-12"/>
      <point x="105" y="-7"/>
      <point x="98" y="3" type="curve" smooth="yes"/>
      <point x="91" y="13"/>
      <point x="88" y="23"/>
      <point x="88" y="32" type="curve" smooth="yes"/>
      <point x="88" y="69"/>
      <point x="121" y="121"/>
      <point x="188" y="188" type="curve" smooth="yes"/>
      <point x="217" y="217"/>
      <point x="242" y="258"/>
      <point x="264" y="311" type="curve" smooth="yes"/>
      <point x="286" y="364"/>
      <point x="296" y="415"/>
      <point x="296" y="462" type="curve" smooth="yes"/>
      <point x="296" y="475"/>
      <point x="289" y="525"/>
      <point x="275" y="612" type="curve"/>
      <point x="110" y="612" type="line"/>
      <point x="104" y="618"/>
      <point x="108" y="631"/>
      <point x="122" y="652" type="curve" smooth="yes"/>
      <point x="136" y="673"/>
      <point x="147" y="684"/>
      <point x="156" y="684" type="curve" smooth="yes"/>
      <point x="264" y="684" type="line"/>
      <point x="255" y="743"/>
      <point x="251" y="781"/>
      <point x="250" y="798" type="curve" smooth="yes"/>
      <point x="250" y="806"/>
      <point x="250" y="806"/>
      <point x="250" y="815" type="curve" smooth="yes"/>
      <point x="250" y="875"/>
      <point x="260" y="932"/>
      <point x="280" y="986" type="curve" smooth="yes"/>
      <point x="301" y="1046"/>
      <point x="330" y="1097"/>
      <point x="366" y="1138" type="curve" smooth="yes"/>
      <point x="402" y="1179"/>
      <point x="442" y="1212"/>
      <point x="488" y="1236" type="curve" smooth="yes"/>
      <point x="534" y="1260"/>
      <point x="581" y="1272"/>
    </contour>
  </outline>
</glyph>
<glyph name="brokenbar" format="2">
  <advance width="428"/>
  <unicode hex="00A6"/>
  <outline>
    <contour>
      <point x="165" y="-230" type="curve" smooth="yes"/>
      <point x="165" y="498" type="line" smooth="yes"/>
      <point x="164" y="506"/>
      <point x="167" y="511"/>
      <point x="175" y="514" type="curve" smooth="yes"/>
      <point x="198" y="521"/>
      <point x="223" y="524"/>
      <point x="251" y="524" type="curve" smooth="yes"/>
      <point x="256" y="524"/>
      <point x="260" y="523"/>
      <point x="263" y="521" type="curve" smooth="yes"/>
      <point x="266" y="519"/>
      <point x="267" y="517"/>
      <point x="267" y="515" type="curve" smooth="yes"/>
      <point x="267" y="512" type="line"/>
      <point x="267" y="-216" type="line" smooth="yes"/>
      <point x="266" y="-223"/>
      <point x="253" y="-229"/>
      <point x="226" y="-236" type="curve" smooth="yes"/>
      <point x="199" y="-243"/>
      <point x="182" y="-246"/>
      <point x="175" y="-246" type="curve" smooth="yes"/>
      <point x="172" y="-246"/>
      <point x="170" y="-245"/>
      <point x="168" y="-244" type="curve" smooth="yes"/>
      <point x="166" y="-243"/>
      <point x="164" y="-243"/>
      <point x="164" y="-242" type="curve" smooth="yes"/>
      <point x="164" y="-241"/>
      <point x="164" y="-239"/>
      <point x="164" y="-236" type="curve" smooth="yes"/>
      <point x="164" y="-233"/>
      <point x="165" y="-231"/>
    </contour>
    <contour>
      <point x="267" y="800" type="line" smooth="yes"/>
      <point x="266" y="793"/>
      <point x="253" y="787"/>
      <point x="226" y="780" type="curve" smooth="yes"/>
      <point x="199" y="773"/>
      <point x="182" y="770"/>
      <point x="175" y="770" type="curve" smooth="yes"/>
      <point x="172" y="770"/>
      <point x="170" y="771"/>
      <point x="168" y="772" type="curve" smooth="yes"/>
      <point x="166" y="773"/>
      <point x="164" y="773"/>
      <point x="164" y="774" type="curve" smooth="yes"/>
      <point x="164" y="775"/>
      <point x="164" y="777"/>
      <point x="164" y="780" type="curve" smooth="yes"/>
      <point x="164" y="783"/>
      <point x="165" y="785"/>
      <point x="165" y="786" type="curve" smooth="yes"/>
      <point x="165" y="1514" type="line" smooth="yes"/>
      <point x="164" y="1522"/>
      <point x="167" y="1527"/>
      <point x="175" y="1530" type="curve" smooth="yes"/>
      <point x="198" y="1537"/>
      <point x="223" y="1540"/>
      <point x="251" y="1540" type="curve" smooth="yes"/>
      <point x="256" y="1540"/>
      <point x="260" y="1539"/>
      <point x="263" y="1537" type="curve" smooth="yes"/>
      <point x="266" y="1535"/>
      <point x="267" y="1533"/>
      <point x="267" y="1531" type="curve" smooth="yes"/>
      <point x="267" y="1528" type="line"/>
    </contour>
  </outline>
</glyph>
<glyph name="copyright" format="2">
  <advance width="1318"/>
  <unicode hex="00A9"/>
  <outline>
    <contour>
      <point x="112" y="684" type="curve" smooth="yes"/>
      <point x="112" y="835"/>
      <point x="165" y="963"/>
      <point x="272" y="1070" type="curve" smooth="yes"/>
      <point x="379" y="1177"/>
      <point x="507" y="1230"/>
      <point x="658" y="1230" type="curve" smooth="yes"/>
      <point x="757" y="1230"/>
      <point x="849" y="1206"/>
      <point x="933" y="1157" type="curve" smooth="yes"/>
      <point x="1017" y="1108"/>
      <point x="1083" y="1042"/>
      <point x="1132" y="958" type="curve" smooth="yes"/>
      <point x="1181" y="874"/>
      <point x="1206" y="783"/>
      <point x="1206" y="684" type="curve" smooth="yes"/>
      <point x="1206" y="585"/>
      <point x="1181" y="494"/>
      <point x="1132" y="410" type="curve" smooth="yes"/>
      <point x="1083" y="326"/>
      <point x="1017" y="260"/>
      <point x="933" y="211" type="curve" smooth="yes"/>
      <point x="849" y="162"/>
      <point x="757" y="138"/>
      <point x="658" y="138" type="curve" smooth="yes"/>
      <point x="507" y="138"/>
      <point x="379" y="191"/>
      <point x="272" y="298" type="curve" smooth="yes"/>
      <point x="165" y="405"/>
      <point x="112" y="533"/>
    </contour>
    <contour>
      <point x="178" y="684" type="curve" smooth="yes"/>
      <point x="178" y="597"/>
      <point x="199" y="516"/>
      <point x="242" y="442" type="curve" smooth="yes"/>
      <point x="285" y="368"/>
      <point x="344" y="308"/>
      <point x="418" y="265" type="curve" smooth="yes"/>
      <point x="492" y="222"/>
      <point x="573" y="200"/>
      <point x="660" y="200" type="curve" smooth="yes"/>
      <point x="747" y="200"/>
      <point x="828" y="222"/>
      <point x="902" y="265" type="curve" smooth="yes"/>
      <point x="976" y="308"/>
      <point x="1036" y="368"/>
      <point x="1079" y="442" type="curve" smooth="yes"/>
      <point x="1122" y="516"/>
      <point x="1144" y="597"/>
      <point x="1144" y="684" type="curve" smooth="yes"/>
      <point x="1144" y="771"/>
      <point x="1122" y="852"/>
      <point x="1079" y="926" type="curve" smooth="yes"/>
      <point x="1036" y="1000"/>
      <point x="976" y="1060"/>
      <point x="902" y="1103" type="curve" smooth="yes"/>
      <point x="828" y="1146"/>
      <point x="747" y="1168"/>
      <point x="660" y="1168" type="curve" smooth="yes"/>
      <point x="573" y="1168"/>
      <point x="492" y="1146"/>
      <point x="418" y="1103" type="curve" smooth="yes"/>
      <point x="344" y="1060"/>
      <point x="285" y="1000"/>
      <point x="242" y="926" type="curve" smooth="yes"/>
      <point x="199" y="852"/>
      <point x="178" y="771"/>
    </contour>
    <contour>
      <point x="912" y="552" type="curve" smooth="yes"/>
      <point x="912" y="546"/>
      <point x="906" y="525"/>
      <point x="896" y="488" type="curve" smooth="yes"/>
      <point x="886" y="451"/>
      <point x="878" y="431"/>
      <point x="872" y="428" type="curve" smooth="yes"/>
      <point x="809" y="403"/>
      <point x="739" y="390"/>
      <point x="660" y="390" type="curve" smooth="yes"/>
      <point x="579" y="390"/>
      <point x="511" y="418"/>
      <point x="456" y="472" type="curve" smooth="yes"/>
      <point x="401" y="526"/>
      <point x="374" y="593"/>
      <point x="374" y="672" type="curve" smooth="yes"/>
      <point x="374" y="753"/>
      <point x="401" y="823"/>
      <point x="454" y="880" type="curve" smooth="yes"/>
      <point x="507" y="937"/>
      <point x="575" y="966"/>
      <point x="656" y="966" type="curve" smooth="yes"/>
      <point x="739" y="966"/>
      <point x="814" y="953"/>
      <point x="880" y="928" type="curve"/>
      <point x="901" y="852"/>
      <point x="912" y="811"/>
      <point x="912" y="806" type="curve" smooth="yes"/>
      <point x="912" y="801"/>
      <point x="909" y="798"/>
      <point x="902" y="794" type="curve" smooth="yes"/>
      <point x="895" y="790"/>
      <point x="887" y="788"/>
      <point x="880" y="788" type="curve" smooth="yes"/>
      <point x="876" y="788"/>
      <point x="871" y="789"/>
      <point x="866" y="792" type="curve"/>
      <point x="864" y="801"/>
      <point x="860" y="810"/>
      <point x="854" y="820" type="curve" smooth="yes"/>
      <point x="848" y="830"/>
      <point x="837" y="841"/>
      <point x="824" y="854" type="curve" smooth="yes"/>
      <point x="811" y="867"/>
      <point x="793" y="878"/>
      <point x="768" y="886" type="curve" smooth="yes"/>
      <point x="743" y="894"/>
      <point x="713" y="898"/>
      <point x="680" y="898" type="curve" smooth="yes"/>
      <point x="627" y="898"/>
      <point x="581" y="877"/>
      <point x="544" y="836" type="curve" smooth="yes"/>
      <point x="507" y="795"/>
      <point x="488" y="746"/>
      <point x="488" y="690" type="curve" smooth="yes"/>
      <point x="488" y="615"/>
      <point x="510" y="557"/>
      <point x="554" y="516" type="curve" smooth="yes"/>
      <point x="598" y="475"/>
      <point x="645" y="454"/>
      <point x="698" y="454" type="curve" smooth="yes"/>
      <point x="767" y="454"/>
      <point x="815" y="467"/>
      <point x="842" y="492" type="curve" smooth="yes"/>
      <point x="849" y="499"/>
      <point x="854" y="507"/>
      <point x="859" y="518" type="curve" smooth="yes"/>
      <point x="864" y="529"/>
      <point x="866" y="538"/>
      <point x="868" y="546" type="curve" smooth="yes"/>
      <point x="870" y="554"/>
      <point x="871" y="558"/>
      <point x="872" y="558" type="curve" smooth="yes"/>
      <point x="897" y="558"/>
      <point x="910" y="556"/>
    </contour>
  </outline>
</glyph>
<glyph name="ordfeminine" format="2">
  <advance width="690"/>
  <unicode hex="00AA"/>
  <outline>
    <contour>
      <point x="376" y="1112" type="curve" smooth="yes"/>
      <point x="416" y="1112"/>
      <point x="451" y="1094"/>
      <point x="482" y="1057" type="curve" smooth="yes"/>
      <point x="513" y="1020"/>
      <point x="528" y="976"/>
      <point x="528" y="924" type="curve" smooth="yes"/>
      <point x="528" y="638" type="line" smooth="yes"/>
      <point x="528" y="594"/>
      <point x="542" y="572"/>
      <point x="570" y="572" type="curve" smooth="yes"/>
      <point x="575" y="572"/>
      <point x="580" y="572"/>
      <point x="586" y="574" type="curve" smooth="yes"/>
      <point x="592" y="576"/>
      <point x="596" y="578"/>
      <point x="600" y="580" type="curve" smooth="yes"/>
      <point x="604" y="582"/>
      <point x="608" y="584"/>
      <point x="611" y="586" type="curve" smooth="yes"/>
      <point x="616" y="590" type="line" smooth="yes"/>
      <point x="620" y="590"/>
      <point x="622" y="587"/>
      <point x="622" y="580" type="curve" smooth="yes"/>
      <point x="622" y="571"/>
      <point x="619" y="562"/>
      <point x="614" y="554" type="curve" smooth="yes"/>
      <point x="604" y="544"/>
      <point x="587" y="533"/>
      <point x="564" y="520" type="curve" smooth="yes"/>
      <point x="541" y="507"/>
      <point x="523" y="500"/>
      <point x="510" y="500" type="curve" smooth="yes"/>
      <point x="491" y="500"/>
      <point x="472" y="509"/>
      <point x="456" y="528" type="curve" smooth="yes"/>
      <point x="440" y="547"/>
      <point x="430" y="567"/>
      <point x="426" y="590" type="curve"/>
      <point x="413" y="577"/>
      <point x="387" y="558"/>
      <point x="347" y="534" type="curve" smooth="yes"/>
      <point x="307" y="510"/>
      <point x="277" y="498"/>
      <point x="256" y="498" type="curve" smooth="yes"/>
      <point x="210" y="498"/>
      <point x="171" y="513"/>
      <point x="140" y="544" type="curve" smooth="yes"/>
      <point x="109" y="575"/>
      <point x="94" y="613"/>
      <point x="94" y="658" type="curve" smooth="yes"/>
      <point x="94" y="684"/>
      <point x="101" y="708"/>
      <point x="116" y="728" type="curve" smooth="yes"/>
      <point x="131" y="748"/>
      <point x="147" y="761"/>
      <point x="164" y="768" type="curve" smooth="yes"/>
      <point x="317" y="823"/>
      <point x="398" y="852"/>
      <point x="406" y="856" type="curve" smooth="yes"/>
      <point x="413" y="859"/>
      <point x="418" y="862"/>
      <point x="420" y="866" type="curve" smooth="yes"/>
      <point x="422" y="870"/>
      <point x="422" y="878"/>
      <point x="422" y="890" type="curve" smooth="yes"/>
      <point x="422" y="928" type="line" smooth="yes"/>
      <point x="422" y="961"/>
      <point x="411" y="990"/>
      <point x="390" y="1015" type="curve" smooth="yes"/>
      <point x="369" y="1040"/>
      <point x="340" y="1052"/>
      <point x="304" y="1052" type="curve" smooth="yes"/>
      <point x="281" y="1052"/>
      <point x="264" y="1046"/>
      <point x="252" y="1034" type="curve" smooth="yes"/>
      <point x="240" y="1022"/>
      <point x="231" y="1001"/>
      <point x="226" y="974" type="curve" smooth="yes"/>
      <point x="219" y="930"/>
      <point x="197" y="908"/>
      <point x="162" y="908" type="curve" smooth="yes"/>
      <point x="148" y="908"/>
      <point x="137" y="914"/>
      <point x="128" y="926" type="curve" smooth="yes"/>
      <point x="119" y="938"/>
      <point x="114" y="951"/>
      <point x="114" y="966" type="curve" smooth="yes"/>
      <point x="114" y="982"/>
      <point x="117" y="993"/>
      <point x="124" y="1000" type="curve" smooth="yes"/>
      <point x="151" y="1026"/>
      <point x="188" y="1052"/>
      <point x="236" y="1076" type="curve" smooth="yes"/>
      <point x="284" y="1100"/>
      <point x="331" y="1112"/>
    </contour>
    <contour>
      <point x="302" y="572" type="curve" smooth="yes"/>
      <point x="324" y="572"/>
      <point x="349" y="582"/>
      <point x="378" y="600" type="curve" smooth="yes"/>
      <point x="407" y="618"/>
      <point x="422" y="631"/>
      <point x="422" y="640" type="curve" smooth="yes"/>
      <point x="422" y="810" type="line"/>
      <point x="413" y="807"/>
      <point x="400" y="803"/>
      <point x="380" y="797" type="curve" smooth="yes"/>
      <point x="360" y="791"/>
      <point x="343" y="786"/>
      <point x="328" y="781" type="curve" smooth="yes"/>
      <point x="313" y="776"/>
      <point x="301" y="773"/>
      <point x="294" y="770" type="curve" smooth="yes"/>
      <point x="237" y="747"/>
      <point x="208" y="714"/>
      <point x="208" y="670" type="curve" smooth="yes"/>
      <point x="208" y="644"/>
      <point x="218" y="622"/>
      <point x="236" y="602" type="curve" smooth="yes"/>
      <point x="254" y="582"/>
      <point x="276" y="572"/>
    </contour>
  </outline>
</glyph>
<glyph name="uni00B2" format="2">
  <advance width="716"/>
  <unicode hex="00B2"/>
  <outline>
    <contour>
      <point x="641" y="720" type="curve"/>
      <point x="636" y="706"/>
      <point x="625" y="673"/>
      <point x="608" y="622" type="curve" smooth="yes"/>
      <point x="591" y="571"/>
      <point x="578" y="533"/>
      <point x="567" y="508" type="curve"/>
      <point x="103" y="508" type="line" smooth="yes"/>
      <point x="97" y="508"/>
      <point x="91" y="511"/>
      <point x="85" y="517" type="curve" smooth="yes"/>
      <point x="79" y="523"/>
      <point x="77" y="528"/>
      <point x="79" y="532" type="curve" smooth="yes"/>
      <point x="96" y="551"/>
      <point x="124" y="580"/>
      <point x="164" y="620" type="curve" smooth="yes"/>
      <point x="204" y="660"/>
      <point x="241" y="698"/>
      <point x="274" y="734" type="curve" smooth="yes"/>
      <point x="307" y="770"/>
      <point x="335" y="803"/>
      <point x="359" y="836" type="curve" smooth="yes"/>
      <point x="423" y="922"/>
      <point x="455" y="997"/>
      <point x="455" y="1060" type="curve" smooth="yes"/>
      <point x="455" y="1103"/>
      <point x="443" y="1137"/>
      <point x="420" y="1164" type="curve" smooth="yes"/>
      <point x="397" y="1191"/>
      <point x="364" y="1204"/>
      <point x="323" y="1204" type="curve" smooth="yes"/>
      <point x="295" y="1204"/>
      <point x="269" y="1198"/>
      <point x="245" y="1187" type="curve" smooth="yes"/>
      <point x="221" y="1176"/>
      <point x="203" y="1164"/>
      <point x="191" y="1152" type="curve" smooth="yes"/>
      <point x="179" y="1140"/>
      <point x="165" y="1125"/>
      <point x="149" y="1106" type="curve" smooth="yes"/>
      <point x="145" y="1102"/>
      <point x="138" y="1105"/>
      <point x="128" y="1116" type="curve" smooth="yes"/>
      <point x="118" y="1127"/>
      <point x="114" y="1135"/>
      <point x="115" y="1140" type="curve" smooth="yes"/>
      <point x="139" y="1182"/>
      <point x="173" y="1218"/>
      <point x="216" y="1248" type="curve" smooth="yes"/>
      <point x="259" y="1278"/>
      <point x="303" y="1294"/>
      <point x="347" y="1294" type="curve" smooth="yes"/>
      <point x="417" y="1294"/>
      <point x="474" y="1274"/>
      <point x="518" y="1234" type="curve" smooth="yes"/>
      <point x="562" y="1194"/>
      <point x="585" y="1143"/>
      <point x="585" y="1080" type="curve" smooth="yes"/>
      <point x="585" y="1019"/>
      <point x="554" y="951"/>
      <point x="493" y="878" type="curve" smooth="yes"/>
      <point x="474" y="855"/>
      <point x="390" y="768"/>
      <point x="243" y="618" type="curve"/>
      <point x="483" y="618" type="line" smooth="yes"/>
      <point x="498" y="618"/>
      <point x="513" y="621"/>
      <point x="526" y="627" type="curve" smooth="yes"/>
      <point x="539" y="633"/>
      <point x="549" y="641"/>
      <point x="558" y="651" type="curve" smooth="yes"/>
      <point x="567" y="661"/>
      <point x="574" y="670"/>
      <point x="579" y="679" type="curve" smooth="yes"/>
      <point x="584" y="688"/>
      <point x="589" y="697"/>
      <point x="594" y="708" type="curve" smooth="yes"/>
      <point x="599" y="719"/>
      <point x="602" y="725"/>
      <point x="603" y="726" type="curve" smooth="yes"/>
      <point x="604" y="728"/>
      <point x="608" y="730"/>
      <point x="613" y="732" type="curve" smooth="yes"/>
      <point x="626" y="732"/>
      <point x="635" y="728"/>
    </contour>
  </outline>
</glyph>
<glyph name="paragraph" format="2">
  <advance width="968"/>
  <unicode hex="00B6"/>
  <outline>
    <contour>
      <point x="722" y="598" type="curve"/>
      <point x="722" y="232" type="line" smooth="yes"/>
      <point x="722" y="155"/>
      <point x="725" y="105"/>
      <point x="732" y="84" type="curve" smooth="yes"/>
      <point x="735" y="74"/>
      <point x="753" y="66"/>
      <point x="786" y="58" type="curve" smooth="yes"/>
      <point x="819" y="50"/>
      <point x="845" y="46"/>
      <point x="862" y="46" type="curve" smooth="yes"/>
      <point x="864" y="46"/>
      <point x="865" y="37"/>
      <point x="865" y="20" type="curve" smooth="yes"/>
      <point x="865" y="3"/>
      <point x="864" y="-6"/>
      <point x="862" y="-8" type="curve" smooth="yes"/>
      <point x="829" y="-7"/>
      <point x="787" y="-4"/>
      <point x="738" y="-1" type="curve" smooth="yes"/>
      <point x="689" y="2"/>
      <point x="641" y="4"/>
      <point x="594" y="4" type="curve" smooth="yes"/>
      <point x="569" y="4"/>
      <point x="476" y="0"/>
      <point x="316" y="-8" type="curve"/>
      <point x="313" y="-3"/>
      <point x="312" y="6"/>
      <point x="312" y="20" type="curve" smooth="yes"/>
      <point x="312" y="34"/>
      <point x="315" y="43"/>
      <point x="320" y="46" type="curve" smooth="yes"/>
      <point x="334" y="46"/>
      <point x="358" y="50"/>
      <point x="390" y="58" type="curve" smooth="yes"/>
      <point x="422" y="66"/>
      <point x="439" y="75"/>
      <point x="442" y="84" type="curve" smooth="yes"/>
      <point x="449" y="105"/>
      <point x="452" y="155"/>
      <point x="452" y="232" type="curve" smooth="yes"/>
      <point x="452" y="574" type="line"/>
      <point x="391" y="574"/>
      <point x="336" y="586"/>
      <point x="285" y="611" type="curve" smooth="yes"/>
      <point x="234" y="636"/>
      <point x="194" y="667"/>
      <point x="164" y="704" type="curve" smooth="yes"/>
      <point x="134" y="741"/>
      <point x="110" y="781"/>
      <point x="93" y="822" type="curve" smooth="yes"/>
      <point x="76" y="863"/>
      <point x="68" y="901"/>
      <point x="68" y="938" type="curve" smooth="yes"/>
      <point x="68" y="1008"/>
      <point x="86" y="1071"/>
      <point x="120" y="1128" type="curve" smooth="yes"/>
      <point x="154" y="1185"/>
      <point x="197" y="1229"/>
      <point x="249" y="1259" type="curve" smooth="yes"/>
      <point x="301" y="1289"/>
      <point x="355" y="1304"/>
      <point x="410" y="1304" type="curve" smooth="yes"/>
      <point x="449" y="1304"/>
      <point x="482" y="1303"/>
      <point x="507" y="1300" type="curve" smooth="yes"/>
      <point x="532" y="1297"/>
      <point x="565" y="1296"/>
      <point x="604" y="1296" type="curve" smooth="yes"/>
      <point x="644" y="1296"/>
      <point x="684" y="1296"/>
      <point x="724" y="1298" type="curve" smooth="yes"/>
      <point x="764" y="1300"/>
      <point x="795" y="1302"/>
      <point x="816" y="1304" type="curve" smooth="yes"/>
      <point x="846" y="1306" type="line"/>
      <point x="851" y="1301"/>
      <point x="852" y="1291"/>
      <point x="852" y="1276" type="curve" smooth="yes"/>
      <point x="852" y="1261"/>
      <point x="849" y="1251"/>
      <point x="844" y="1248" type="curve" smooth="yes"/>
      <point x="825" y="1248"/>
      <point x="802" y="1244"/>
      <point x="776" y="1236" type="curve" smooth="yes"/>
      <point x="750" y="1228"/>
      <point x="735" y="1219"/>
      <point x="730" y="1208" type="curve" smooth="yes"/>
      <point x="726" y="1194"/>
      <point x="724" y="1151"/>
      <point x="724" y="1080" type="curve" smooth="yes"/>
      <point x="724" y="678" type="line" smooth="yes"/>
      <point x="727" y="677"/>
      <point x="736" y="680"/>
      <point x="752" y="684" type="curve" smooth="yes"/>
      <point x="768" y="688"/>
      <point x="785" y="692"/>
      <point x="800" y="697" type="curve" smooth="yes"/>
      <point x="822" y="704" type="line"/>
      <point x="835" y="704"/>
      <point x="842" y="700"/>
      <point x="842" y="692" type="curve" smooth="yes"/>
      <point x="841" y="683"/>
      <point x="833" y="668"/>
      <point x="818" y="650" type="curve" smooth="yes"/>
      <point x="803" y="632"/>
      <point x="792" y="621"/>
      <point x="784" y="618" type="curve" smooth="yes"/>
      <point x="759" y="607"/>
      <point x="739" y="600"/>
    </contour>
    <contour>
      <point x="642" y="584" type="line"/>
      <point x="637" y="583"/>
      <point x="626" y="583"/>
      <point x="610" y="582" type="curve" smooth="yes"/>
      <point x="594" y="581"/>
      <point x="579" y="579"/>
      <point x="565" y="578" type="curve" smooth="yes"/>
      <point x="530" y="576" type="line"/>
      <point x="530" y="232" type="line" smooth="yes"/>
      <point x="530" y="155"/>
      <point x="532" y="105"/>
      <point x="536" y="84" type="curve" smooth="yes"/>
      <point x="537" y="76"/>
      <point x="554" y="72"/>
      <point x="586" y="72" type="curve" smooth="yes"/>
      <point x="619" y="72"/>
      <point x="637" y="76"/>
      <point x="638" y="84" type="curve" smooth="yes"/>
      <point x="642" y="105"/>
      <point x="644" y="155"/>
      <point x="644" y="232" type="curve" smooth="yes"/>
    </contour>
    <contour>
      <point x="644" y="666" type="curve" smooth="yes"/>
      <point x="644" y="666"/>
      <point x="644" y="666"/>
      <point x="644" y="1212" type="curve"/>
      <point x="637" y="1219"/>
      <point x="618" y="1222"/>
      <point x="586" y="1222" type="curve" smooth="yes"/>
      <point x="557" y="1222"/>
      <point x="538" y="1218"/>
      <point x="530" y="1210" type="curve"/>
      <point x="530" y="1210"/>
      <point x="530" y="1210"/>
      <point x="530" y="656" type="curve"/>
      <point x="542" y="656"/>
      <point x="564" y="657"/>
      <point x="594" y="659" type="curve" smooth="yes"/>
      <point x="624" y="661"/>
      <point x="641" y="663"/>
    </contour>
  </outline>
</glyph>
<glyph name="ordmasculine" format="2">
  <advance width="776"/>
  <unicode hex="00BA"/>
  <outline>
    <contour>
      <point x="392" y="1108" type="curve" smooth="yes"/>
      <point x="479" y="1108"/>
      <point x="552" y="1079"/>
      <point x="611" y="1020" type="curve" smooth="yes"/>
      <point x="670" y="961"/>
      <point x="700" y="889"/>
      <point x="700" y="806" type="curve" smooth="yes"/>
      <point x="700" y="722"/>
      <point x="670" y="649"/>
      <point x="610" y="587" type="curve" smooth="yes"/>
      <point x="550" y="525"/>
      <point x="478" y="494"/>
      <point x="392" y="494" type="curve" smooth="yes"/>
      <point x="305" y="494"/>
      <point x="231" y="524"/>
      <point x="169" y="584" type="curve" smooth="yes"/>
      <point x="107" y="644"/>
      <point x="76" y="715"/>
      <point x="76" y="798" type="curve" smooth="yes"/>
      <point x="76" y="883"/>
      <point x="107" y="956"/>
      <point x="168" y="1017" type="curve" smooth="yes"/>
      <point x="229" y="1078"/>
      <point x="303" y="1108"/>
    </contour>
    <contour>
      <point x="374" y="1060" type="curve" smooth="yes"/>
      <point x="321" y="1060"/>
      <point x="281" y="1036"/>
      <point x="254" y="989" type="curve" smooth="yes"/>
      <point x="227" y="942"/>
      <point x="214" y="886"/>
      <point x="214" y="822" type="curve" smooth="yes"/>
      <point x="214" y="749"/>
      <point x="231" y="684"/>
      <point x="265" y="627" type="curve" smooth="yes"/>
      <point x="299" y="570"/>
      <point x="347" y="542"/>
      <point x="408" y="542" type="curve" smooth="yes"/>
      <point x="459" y="542"/>
      <point x="497" y="566"/>
      <point x="523" y="615" type="curve" smooth="yes"/>
      <point x="549" y="664"/>
      <point x="562" y="719"/>
      <point x="562" y="782" type="curve" smooth="yes"/>
      <point x="562" y="828"/>
      <point x="556" y="871"/>
      <point x="543" y="912" type="curve" smooth="yes"/>
      <point x="530" y="953"/>
      <point x="509" y="987"/>
      <point x="480" y="1016" type="curve" smooth="yes"/>
      <point x="451" y="1045"/>
      <point x="415" y="1060"/>
    </contour>
  </outline>
</glyph>
<glyph name="guillemotright" format="2">
  <advance width="964"/>
  <unicode hex="00BB"/>
  <outline>
    <contour>
      <point x="914" y="492" type="curve" smooth="yes"/>
      <point x="914" y="481"/>
      <point x="911" y="470"/>
      <point x="904" y="460" type="curve"/>
      <point x="736" y="359"/>
      <point x="597" y="253"/>
      <point x="486" y="142" type="curve"/>
      <point x="463" y="149"/>
      <point x="448" y="157"/>
      <point x="442" y="166" type="curve"/>
      <point x="447" y="186"/>
      <point x="485" y="235"/>
      <point x="556" y="312" type="curve" smooth="yes"/>
      <point x="627" y="389"/>
      <point x="687" y="449"/>
      <point x="738" y="494" type="curve"/>
      <point x="687" y="539"/>
      <point x="627" y="599"/>
      <point x="556" y="676" type="curve" smooth="yes"/>
      <point x="485" y="753"/>
      <point x="447" y="802"/>
      <point x="442" y="822" type="curve"/>
      <point x="448" y="831"/>
      <point x="463" y="839"/>
      <point x="486" y="846" type="curve"/>
      <point x="597" y="735"/>
      <point x="736" y="629"/>
      <point x="904" y="528" type="curve"/>
      <point x="911" y="513"/>
      <point x="914" y="501"/>
    </contour>
    <contour>
      <point x="554" y="492" type="curve" smooth="yes"/>
      <point x="554" y="481"/>
      <point x="551" y="470"/>
      <point x="544" y="460" type="curve"/>
      <point x="376" y="359"/>
      <point x="237" y="253"/>
      <point x="126" y="142" type="curve"/>
      <point x="103" y="149"/>
      <point x="88" y="157"/>
      <point x="82" y="166" type="curve"/>
      <point x="87" y="186"/>
      <point x="125" y="235"/>
      <point x="196" y="312" type="curve" smooth="yes"/>
      <point x="267" y="389"/>
      <point x="327" y="449"/>
      <point x="378" y="494" type="curve"/>
      <point x="327" y="539"/>
      <point x="267" y="599"/>
      <point x="196" y="676" type="curve" smooth="yes"/>
      <point x="125" y="753"/>
      <point x="87" y="802"/>
      <point x="82" y="822" type="curve"/>
      <point x="88" y="831"/>
      <point x="103" y="839"/>
      <point x="126" y="846" type="curve"/>
      <point x="237" y="735"/>
      <point x="376" y="629"/>
      <point x="544" y="528" type="curve"/>
      <point x="551" y="513"/>
      <point x="554" y="501"/>
    </contour>
  </outline>
</glyph>
